<?xml version="1.0" standalone="no"?>
<!DOCTYPE svg PUBLIC "-//W3C//DTD SVG 1.1//EN" "http://www.w3.org/Graphics/SVG/1.1/DTD/svg11.dtd" >
<svg xmlns="http://www.w3.org/2000/svg" xmlns:xlink="http://www.w3.org/1999/xlink" version="1.1">
<metadata>
Created by FontForge 20201107 at Tue Oct 29 11:47:36 2024
 By 
Copyright (c) 2023 Fontfabric. All rights reserved.
</metadata>
<defs>
<font id="Plush-Trial-Medium" horiz-adv-x="1177" >
  <font-face 
    font-family="Plush-Trial Medium"
    font-weight="500"
    font-stretch="normal"
    units-per-em="2048"
    panose-1="0 0 0 0 0 0 0 0 0 0"
    ascent="1638"
    descent="-410"
    x-height="913"
    cap-height="1434"
    bbox="-209.509 -516.783 2399.83 2057.66"
    underline-thickness="102"
    underline-position="-255"
    unicode-range="U+000D-25CA"
  />
<missing-glyph horiz-adv-x="1064" 
 />
    <glyph glyph-name="f_b.liga" unicode="fb" horiz-adv-x="1755" 
d="M1243 -20q-104 0 -198 33.5t-162 88.5q-35 29 -47.5 50t-12.5 57q0 59 2 164.5t2 154.5v625q0 138 -60 203t-189 65q-132 0 -199.5 -67t-67.5 -174q0 -113 56 -203q24 -37 51 -50.5t74 -13.5h124q54 0 54 -51q0 -65 -70 -65h-154q-27 0 -36 -10t-9 -42v-456
q0 -77 13 -135q8 -26 24.5 -38.5t57.5 -21.5l41 -6q38 -8 38 -45q0 -43 -53 -43h-397q-53 0 -53 43q0 32 37 43l26 6q32 6 46 19.5t20 40.5q12 71 12 155v441q0 26 -9 36.5t-32 10.5h-76q-53 0 -53 51q0 47 51 53l80 10q22 3 30 7t11 12q5 14 -16 55q-66 107 -66 219
q0 167 111.5 253.5t310.5 86.5q69 0 150 -10t94 -10q44 0 94.5 12t69.5 12q30 0 44.5 -19t14.5 -65q0 -18 -3 -114.5t-3 -178.5v-366q0 -19 12 -19q8 0 21 13q86 139 260 139q179 0 286 -126.5t107 -336.5q0 -235 -127 -364t-332 -129zM1270 96q107 0 167 88t60 238
q0 165 -69.5 277t-182.5 112q-110 0 -173.5 -100t-63.5 -256q0 -165 65 -262t197 -97z" />
    <glyph glyph-name="f_f.liga" unicode="ff" horiz-adv-x="1417" 
d="M125 0q-53 0 -53 43q0 32 37 43l26 6q32 6 46 19.5t20 40.5q12 71 12 155v441q0 26 -9 36.5t-32 10.5h-76q-53 0 -53 51q0 45 51 53l78 10q33 7 33 29q0 6 -3.5 14.5t-11.5 26t-14 31.5q-49 104 -49 204q2 124 86.5 207.5t226.5 83.5q120 0 190 -52t75 -124
q3 -44 -18 -68t-58 -26q-57 0 -80 55q-13 34 -45 53t-74 19q-79 0 -117.5 -48.5t-40.5 -121.5q0 -63 22.5 -126t51.5 -99q27 -33 54 -43.5t81 -10.5h348q33 0 33 25q0 6 -4 14.5t-12.5 24t-14.5 31.5q-47 111 -47 211q0 152 94 239.5t240 87.5q133 0 211.5 -66t83.5 -149
q1 -44 -22.5 -69t-57.5 -25q-35 0 -52 13t-28 44q-29 109 -141 109q-86 0 -134.5 -56t-45.5 -157q0 -67 21 -126t53 -97q27 -33 53.5 -43.5t79.5 -10.5h166q31 0 43 -12t12 -37q0 -31 -18.5 -49t-53.5 -18h-184q-28 0 -37.5 -10t-9.5 -42v-456q0 -72 14 -135
q8 -26 24.5 -39.5t57.5 -20.5l51 -6q39 -8 39 -45q0 -43 -51 -43h-412q-27 0 -45 12.5t-18 30.5q0 13 14 25t35 18l27 6q32 6 45 19.5t20 40.5q12 70 12 155v441q0 27 -9 38t-32 11h-383q-27 0 -36 -10t-9 -42v-456q0 -77 13 -135q8 -26 24.5 -39.5t57.5 -20.5l53 -6
q37 -8 37 -45q0 -43 -51 -43h-410z" />
    <glyph glyph-name="f_h.liga" unicode="fh" horiz-adv-x="1802" 
d="M125 0q-53 0 -53 43q0 32 37 43l26 6q32 6 46 19.5t20 40.5q12 71 12 155v441q0 26 -9 36.5t-32 10.5h-76q-53 0 -53 51q0 47 51 53l80 10q22 3 30 7t11 12q5 14 -16 55q-66 107 -66 219q0 167 111.5 253.5t310.5 86.5q75 0 159 -10t97 -10q43 0 92.5 12t69.5 12
q30 0 44.5 -19t14.5 -65q0 -18 -3 -114.5t-3 -178.5v-346q0 -14 10 -14q11 0 29 18q109 109 262 109q154 0 232.5 -93.5t78.5 -262.5v-273q0 -79 13 -155q7 -27 20 -40.5t45 -19.5l27 -6q37 -11 37 -43q0 -43 -54 -43h-348q-55 0 -55 43q0 30 31 41l26 6q32 6 44.5 18.5
t17.5 36.5q8 45 8 134v272q0 242 -184 242q-111 -1 -175.5 -86.5t-64.5 -221.5v-206q0 -89 8 -134q5 -24 18.5 -36.5t45.5 -18.5l24 -6q31 -11 31 -41q0 -18 -12 -30.5t-39 -12.5h-352q-52 0 -52 43q0 33 35 43l29 6q32 6 45 19.5t18 40.5q13 76 13 155v846q0 139 -62 203.5
t-198 64.5q-132 0 -199.5 -67t-67.5 -174q0 -113 56 -203q24 -37 51 -50.5t74 -13.5h124q54 0 54 -51q0 -65 -70 -65h-154q-27 0 -36 -10t-9 -42v-456q0 -77 13 -135q8 -26 24.5 -38.5t57.5 -21.5l41 -6q38 -8 38 -45q0 -43 -53 -43h-397z" />
    <glyph glyph-name="f_k.liga" unicode="fk" horiz-adv-x="1734" 
d="M125 0q-53 0 -53 43q0 32 37 43l26 6q32 6 46 19.5t20 40.5q12 71 12 155v441q0 26 -9 36.5t-32 10.5h-76q-53 0 -53 51q0 47 51 53l80 10q22 3 30 7t11 12q5 14 -16 55q-66 107 -66 219q0 167 111.5 253.5t310.5 86.5q75 0 159 -10t97 -10q43 0 92.5 12t69.5 12
q30 0 44.5 -19t14.5 -65q0 -18 -3 -114.5t-3 -178.5v-655q0 -25 14.5 -28t36.5 16l170 180q68 73 68 106q0 26 -47 37l-27 6q-31 11 -31 41q0 41 52 41h354q51 0 51 -41q0 -34 -41 -43l-29 -8q-51 -10 -96 -55q-82 -74 -112 -104l-70 -70q-14 -12 -15 -23t11 -28l182 -265
q70 -101 90 -124q24 -29 40.5 -41t45.5 -21l23 -6q37 -12 37 -41q0 -43 -52 -43h-356q-53 0 -53 43q0 28 33 39l26 6q43 8 43 35q0 20 -63 119l-127 192q-15 23 -25 26.5t-22 -7.5l-93 -95q-18 -16 -18 -65q0 -76 4 -119q2 -36 15.5 -55t52.5 -29l24 -6q31 -11 31 -41
q0 -18 -12 -30.5t-39 -12.5h-352q-52 0 -52 43q0 33 35 43l29 6q32 6 45 19.5t18 40.5q13 76 13 155v846q0 139 -62 203.5t-198 64.5q-132 0 -199.5 -67t-67.5 -174q0 -113 56 -203q24 -37 51 -50.5t74 -13.5h124q54 0 54 -51q0 -65 -70 -65h-154q-27 0 -36 -10t-9 -42v-456
q0 -77 13 -135q8 -26 24.5 -38.5t57.5 -21.5l41 -6q38 -8 38 -45q0 -43 -53 -43h-397z" />
    <glyph glyph-name="f_l.liga" unicode="fl" horiz-adv-x="1200" 
d="M125 0q-53 0 -53 43q0 32 37 43l26 6q32 6 46 19.5t20 40.5q12 71 12 155v441q0 26 -9 36.5t-32 10.5h-76q-53 0 -53 51q0 47 51 53l80 10q22 3 30 7t11 12q5 14 -16 55q-66 107 -66 219q0 167 111.5 253.5t310.5 86.5q75 0 159 -10t97 -10q43 0 92.5 12t69.5 12
q30 0 44.5 -19t14.5 -65q0 -18 -3 -114.5t-3 -178.5v-862q0 -93 10 -149q5 -28 19.5 -43.5t48.5 -22.5l26 -6q35 -10 35 -43q0 -43 -51 -43h-364q-52 0 -52 43q0 32 39 45l25 4q33 7 46.5 22t18.5 44q11 62 11 149v846q0 139 -62 203.5t-198 64.5q-132 0 -199.5 -67
t-67.5 -174q0 -113 56 -203q24 -37 51 -50.5t74 -13.5h124q54 0 54 -51q0 -65 -70 -65h-154q-27 0 -36 -10t-9 -42v-456q0 -77 13 -135q8 -26 24.5 -38.5t57.5 -21.5l41 -6q38 -8 38 -45q0 -43 -53 -43h-397z" />
    <glyph glyph-name="f_t.liga" unicode="ft" horiz-adv-x="1337" 
d="M125 0q-53 0 -53 43q0 32 37 43l26 6q32 6 46 19.5t20 40.5q12 71 12 155v441q0 26 -9 36.5t-32 10.5h-76q-53 0 -53 51q0 45 51 53l78 10q33 7 33 29q0 10 -29 70q-51 104 -51 211q0 152 95 239.5t241 87.5q133 0 211.5 -66t83.5 -149q3 -43 -21 -68.5t-59 -25.5
q-33 -1 -51 12t-29 45q-29 109 -141 109q-86 0 -136 -56t-47 -157q0 -66 22 -125t54 -98q27 -33 53.5 -43.5t79.5 -10.5h154q129 0 162 15q7 4 12.5 8.5t11.5 11t10 12.5t10 17t9.5 18.5t10.5 23t11 26t12.5 32t14.5 35.5q26 51 68 51q17 0 28 -12t11 -37q0 -23 -2.5 -51.5
t-6 -62.5t-4.5 -52q-3 -35 31 -35h207q30 0 42.5 -11.5t12.5 -35.5q0 -33 -20 -51t-56 -18h-182q-20 0 -28.5 -8.5t-8.5 -30.5v-490q0 -98 31 -135t98 -37q38 0 78 12.5t53 12.5q16 0 26.5 -9t10.5 -26q0 -45 -73 -75.5t-162 -30.5q-125 0 -187.5 59.5t-62.5 187.5v502
q0 43 -11 55.5t-51 12.5h-295q-27 0 -36 -10t-9 -42v-456q0 -77 13 -135q8 -26 24.5 -39.5t57.5 -20.5l53 -6q37 -8 37 -45q0 -43 -51 -43h-410z" />
    <glyph glyph-name=".notdef" horiz-adv-x="1064" 
 />
    <glyph glyph-name=".null" horiz-adv-x="0" 
 />
    <glyph glyph-name="nonmarkingreturn" horiz-adv-x="682" 
 />
    <glyph glyph-name="NULL" horiz-adv-x="1228" 
 />
    <glyph glyph-name="NULL" horiz-adv-x="1228" 
 />
    <glyph glyph-name="CR" unicode="&#xd;" horiz-adv-x="1228" 
 />
    <glyph glyph-name="space" unicode=" " horiz-adv-x="393" 
 />
    <glyph glyph-name="exclam" unicode="!" horiz-adv-x="581" 
d="M291 381q-28 0 -44 16.5t-22 55.5q-43 634 -49 880q-3 121 115 121t115 -121q-5 -224 -50 -880q-6 -40 -21 -56t-44 -16zM291 -16q-55 0 -88 32t-33 84t33 85.5t88 33.5t88 -33.5t33 -85.5t-33 -84t-88 -32z" />
    <glyph glyph-name="quotedbl" unicode="&#x22;" horiz-adv-x="755" 
d="M236 915q-24 0 -36 14t-18 46q-29 223 -32 379q-1 52 23 76t63 24q40 0 64.5 -24t23.5 -76q-3 -147 -33 -379q-6 -32 -18 -46t-37 -14zM520 915q-24 0 -35.5 14t-17.5 46q-30 232 -33 379q-1 52 23 76t63 24q40 0 64.5 -24t23.5 -76q-3 -147 -33 -379q-6 -32 -18 -46
t-37 -14z" />
    <glyph glyph-name="numbersign" unicode="#" horiz-adv-x="1339" 
d="M254 0q-15 0 -21.5 8.5t-3.5 22.5l93 372q3 13 -4 22t-21 9h-211q-12 0 -19.5 7.5t-7.5 19.5v41q0 26 27 26h240q27 0 30 25l82 321q3 14 -4 22.5t-20 8.5h-258q-12 0 -19.5 7.5t-7.5 19.5v41q0 26 27 26h286q25 0 31 25l96 385q3 25 29 25h55q28 0 25 -31l-94 -373
q-3 -14 4 -22.5t20 -8.5h271q25 0 28 25l97 385q6 25 30 25h53q14 0 21 -9t4 -22l-94 -373q-3 -31 24 -31h211q12 0 20.5 -7t8.5 -19v-41q0 -12 -8.5 -19.5t-20.5 -7.5h-239q-25 0 -31 -24l-80 -322q-3 -14 3.5 -22.5t21.5 -8.5h256q12 0 20 -7t8 -19v-41q0 -12 -8 -19.5
t-20 -7.5h-287q-25 0 -31 -24l-94 -385q-6 -25 -31 -25h-53q-13 0 -20 8.5t-4 22.5l92 372q3 13 -4 22t-21 9h-268q-25 0 -31 -24l-94 -385q-6 -25 -31 -25h-53zM762 528q25 0 31 25l79 321q3 14 -4 22.5t-20 8.5h-268q-25 0 -31 -24l-82 -322q-3 -13 4 -22t21 -9h270z" />
    <glyph glyph-name="dollar" unicode="$" horiz-adv-x="1060" 
d="M498 1561q0 41 39 41q19 0 30 -11t11 -30v-93q0 -14 14 -14q160 -15 264.5 -109.5t110.5 -220.5q0 -50 -24 -75t-62 -25q-33 0 -59.5 22t-33.5 68q-9 91 -59.5 150.5t-136.5 74.5q-6 1 -10 -3t-4 -11v-485q0 -15 12 -17q158 -70 214 -105q148 -92 180 -230q11 -45 11 -97
q0 -161 -108.5 -276t-294.5 -133q-14 -3 -14 -15v-110q0 -19 -11 -30t-30 -11q-39 0 -39 41v108q0 14 -17 17q-183 12 -295 115.5t-116 277.5q-1 49 23.5 76.5t64.5 27.5q38 2 64 -23.5t32 -76.5q3 -126 63.5 -196.5t163.5 -86.5q17 -3 17 13v518q0 13 -13 16
q-45 21 -66.5 31t-62 31t-62 35t-54 37.5t-50 43.5t-39 49t-32 58t-18 65.5t-7.5 77.5q0 153 104 259.5t283 121.5q7 0 12 5t5 11v93zM297 1120q0 -88 46.5 -143t135.5 -100q7 -4 13 -1t6 11v438q0 15 -17 12q-86 -14 -135 -71t-49 -146zM578 109q0 -8 4 -12t10 -1
q92 12 147.5 76t55.5 164q0 93 -50 148t-151 104q-6 6 -11 2.5t-5 -12.5v-469z" />
    <glyph glyph-name="percent" unicode="%" horiz-adv-x="1701" 
d="M412 635q-143 0 -232.5 111t-89.5 296q0 188 88.5 300t231.5 112t232 -111.5t89 -298.5t-88 -298t-231 -111zM422 727q70 0 110.5 73.5t40.5 215.5t-48.5 244t-125.5 102q-70 0 -110.5 -73.5t-40.5 -215.5q0 -91 21 -169.5t61.5 -127.5t91.5 -49zM1290 -20
q-143 0 -232 111t-89 296q0 189 88.5 300.5t232.5 111.5q143 0 232.5 -111.5t89.5 -298.5t-89 -298t-233 -111zM1303 72q70 0 109.5 73t39.5 215t-47.5 244.5t-124.5 102.5q-70 0 -111 -73.5t-41 -215.5q0 -140 49 -243t126 -103zM512 -27q-27 2 -44 25t-3 53l661 1360
q19 42 62 39q33 -5 46.5 -27.5t0.5 -52.5l-664 -1362q-20 -41 -59 -35z" />
    <glyph glyph-name="ampersand" unicode="&#x26;" horiz-adv-x="1536" 
d="M506 -20q-208 0 -329.5 99t-121.5 273q0 143 85.5 249t250.5 185q11 5 4 19q-127 169 -127 301q0 158 113 253t293 95q162 0 260 -79t98 -199q0 -44 -9.5 -81.5t-32.5 -69.5t-49.5 -58t-72 -54.5t-87 -51t-107.5 -54.5q-16 -6 -6 -16q24 -28 321 -320q11 -15 21 2
q40 66 66.5 106t59 80.5t61 61.5t63.5 34t75 13q67 0 110.5 -32.5t43.5 -80.5q0 -38 -20.5 -64t-59.5 -26q-33 0 -66 22.5t-57 22.5q-44 0 -82 -44t-103 -148q-10 -18 -16 -27t2 -20l134 -133q84 -80 127 -109.5t92 -26.5q57 5 57 -43q0 -35 -39 -57t-94 -22
q-83 0 -153 32.5t-169 124.5l-61 62q-10 8 -20 -2q-100 -119 -209 -168t-246 -49zM571 117q182 0 314 157q8 8 0 21q-296 294 -404 407q-8 10 -18 3q-95 -60 -145 -133t-50 -177q0 -131 85.5 -204.5t217.5 -73.5zM596 885q146 76 207 136.5t61 147.5q0 69 -48.5 118.5
t-139.5 49.5q-94 0 -148.5 -57t-54.5 -150q0 -63 26 -119t79 -122q6 -12 18 -4z" />
    <glyph glyph-name="quotesingle" unicode="'" horiz-adv-x="473" 
d="M236 915q-24 0 -36 14t-18 46q-29 223 -32 379q-1 52 23 76t63 24q40 0 64.5 -24t23.5 -76q-3 -147 -33 -379q-6 -32 -18 -46t-37 -14z" />
    <glyph glyph-name="parenleft" unicode="(" horiz-adv-x="702" 
d="M317 541q0 -305 83 -552.5t225 -389.5q35 -37 6 -66q-30 -26 -74 0q-201 135 -322.5 408t-121.5 600t121 593t323 400q44 29 74 2q29 -29 -6 -66q-143 -143 -225.5 -384t-82.5 -545z" />
    <glyph glyph-name="parenright" unicode=")" horiz-adv-x="702" 
d="M385 524q0 305 -82.5 552.5t-224.5 389.5q-35 37 -6 66q29 26 73 0q201 -135 323 -408t122 -600t-121.5 -593t-323.5 -400q-43 -29 -73 -2q-28 28 6 65q143 143 225 384.5t82 545.5z" />
    <glyph glyph-name="asterisk" unicode="*" horiz-adv-x="919" 
d="M252 807q-69 49 -19 111q10 11 140 141q5 4 4 9.5t-8 6.5q-156 28 -197 37q-39 10 -51.5 40t0.5 62q11 33 37 47.5t65 0.5q29 -15 92 -50t86 -47q5 -3 9.5 0t3.5 9q-25 144 -33 200q-3 40 20 60t60 20t59 -20t19 -60q-4 -37 -33 -198q-1 -7 2.5 -10.5t9.5 -0.5
q105 57 180 95q39 15 64.5 1t36.5 -47q13 -32 0.5 -61.5t-51.5 -40.5q-66 -14 -197 -37q-6 -1 -7.5 -6t3.5 -10q119 -120 139 -141q23 -31 16.5 -59.5t-36.5 -51.5q-27 -21 -58.5 -17.5t-52.5 35.5q-15 26 -44 90t-44 91q-1 6 -6 6t-8 -6q-13 -26 -43.5 -90t-44.5 -91
q-19 -32 -51 -36t-62 18z" />
    <glyph glyph-name="plus" unicode="+" 
d="M588 147q-22 0 -37.5 14.5t-15.5 39.5v331q0 8 -5 13.5t-12 5.5h-334q-25 0 -39 15t-14 38q0 22 14 37.5t39 15.5h334q6 0 11.5 5t5.5 12v332q0 25 15.5 39t37.5 14t37.5 -14t15.5 -39v-332q0 -17 18 -17h332q25 0 39 -15t14 -38t-14 -38t-39 -15h-332q-7 0 -12.5 -5.5
t-5.5 -13.5v-331q0 -25 -15 -39.5t-38 -14.5z" />
    <glyph glyph-name="comma" unicode="," horiz-adv-x="438" 
d="M164 -262q-14 0 -24.5 10t-10.5 23q0 15 10 32q43 79 43 152q0 26 -13.5 44.5t-29.5 28t-29.5 32t-13.5 55.5q0 46 32.5 76t86.5 30q59 0 93 -37t34 -104q0 -88 -39.5 -173t-101.5 -151q-18 -18 -37 -18z" />
    <glyph glyph-name="hyphen" unicode="-" horiz-adv-x="907" 
d="M147 500q-55 0 -55 53t55 53h611q57 0 57 -53t-57 -53h-611z" />
    <glyph glyph-name="period" unicode="." horiz-adv-x="438" 
d="M219 -16q-55 0 -89 32.5t-34 85.5q0 52 34 85.5t89 33.5t89 -33.5t34 -85.5q0 -53 -34 -85.5t-89 -32.5z" />
    <glyph glyph-name="slash" unicode="/" horiz-adv-x="815" 
d="M86 -121q-26 3 -42 26t-3 54l625 1546q7 20 24 30t37 7q32 -3 45.5 -26t1.5 -52l-629 -1548q-15 -41 -59 -37z" />
    <glyph glyph-name="zero" unicode="0" horiz-adv-x="1290" 
d="M645 -20q-154 0 -275.5 86.5t-192.5 254.5t-71 392q0 342 149.5 541.5t389.5 199.5q154 0 275.5 -86.5t192.5 -254.5t71 -392q0 -342 -149.5 -541.5t-389.5 -199.5zM668 111q140 0 222.5 143t82.5 414q0 181 -42 329t-122 237t-184 89q-142 0 -225 -142.5t-83 -412.5
q0 -182 42 -330.5t122.5 -237.5t186.5 -89z" />
    <glyph glyph-name="one" unicode="1" horiz-adv-x="792" 
d="M150 0q-23 0 -35.5 13.5t-12.5 33.5q0 43 48 51l69 11q46 7 68 23t33.5 59.5t11.5 130.5v765q0 45 -2.5 73t-11.5 49t-20.5 30.5t-36 14t-51 2.5t-71.5 -7q-53 0 -53 43q0 37 59 68q58 30 154 62t154 32q82 0 82 -92q0 -25 -5.5 -130.5t-5.5 -182.5v-727
q0 -87 10.5 -130.5t32.5 -60t68 -22.5l70 -11q47 -8 47 -51q0 -20 -11.5 -33.5t-33.5 -13.5h-557z" />
    <glyph glyph-name="two" unicode="2" horiz-adv-x="1120" 
d="M164 0q-46 0 -69 22t-23 60q0 40 39 76l229 245q243 261 336 404.5t94 284.5q0 120 -63.5 184.5t-171.5 64.5q-116 0 -185 -78t-71 -202q-5 -96 -86 -96q-40 0 -66.5 28.5t-26.5 83.5q5 162 127.5 269.5t321.5 107.5q200 0 316 -95t116 -280q0 -67 -16.5 -129.5
t-52 -124.5t-77.5 -118t-110 -124t-132.5 -126.5t-160.5 -139.5l-119 -120q-11 -9 -6.5 -19t19.5 -10h376q54 0 84 6.5t57 32t45.5 68.5t43.5 122q15 41 57 41q29 0 42.5 -17.5t8.5 -47.5l-47 -332q-6 -41 -41 -41h-788z" />
    <glyph glyph-name="three" unicode="3" horiz-adv-x="1089" 
d="M526 -20q-113 0 -201.5 30.5t-140.5 82t-78 112.5t-26 127q0 44 24.5 70t65.5 26q75 0 86 -90q5 -113 74 -179.5t198 -66.5q123 0 194 76t71 207q0 137 -81.5 218t-219.5 81q-28 0 -64 -3t-53 -3q-74 0 -74 67q0 30 19 48t55 18q14 0 46 -3t62 -3q112 0 186 77t74 218
q0 113 -62.5 182t-162.5 69q-103 0 -162.5 -54.5t-68.5 -151.5q-11 -84 -84 -84q-43 0 -65 29.5t-15 86.5q14 124 119.5 205.5t283.5 81.5q194 0 311 -95.5t117 -244.5q0 -128 -81.5 -220t-194.5 -126q-21 -9 -21 -14q0 -12 21 -15q157 -27 242 -117t84 -239
q0 -176 -133.5 -289.5t-344.5 -113.5z" />
    <glyph glyph-name="four" unicode="4" horiz-adv-x="1095" 
d="M449 0q-22 0 -34 13.5t-12 33.5q0 43 41 51l50 6q65 9 85.5 48.5t20.5 162.5v86q0 19 -18 19h-516q-47 0 -58 32t15 66l620 889q34 47 84 47q30 0 49 -20.5t19 -61.5v-803q0 -20 20 -20q40 0 91.5 3t74.5 3q36 0 56 -18.5t20 -51.5q0 -69 -76 -69q-23 0 -75 3t-89 3
q-20 0 -20 -21v-86q0 -85 10.5 -128t32 -60t65.5 -23l49 -6q24 -6 32.5 -18t8.5 -33q0 -20 -11.5 -33.5t-33.5 -13.5h-501zM586 549q18 0 18 16v572q0 14 -8.5 17.5t-17.5 -9.5l-390 -572q-7 -11 -3.5 -17.5t14.5 -6.5h387z" />
    <glyph glyph-name="five" unicode="5" horiz-adv-x="1069" 
d="M500 -20q-106 0 -190.5 30.5t-135 81t-76.5 111.5t-26 127q0 47 23 72.5t65 25.5q37 0 58.5 -20.5t27.5 -69.5q3 -113 68 -179.5t192 -66.5q88 0 150.5 49t90 124.5t27.5 168.5q0 156 -73 250t-218 94q-128 0 -256 -90q-28 -21 -53.5 -10t-21.5 47l75 672q3 37 37 37h316
q111 0 171 7.5t84 21.5t39 42q14 27 35 27q16 0 25 -11t6 -30l-27 -193q-6 -30 -32 -30h-543q-22 0 -25 -23l-45 -397q-1 -9 3 -11t10 1q117 63 260 63q198 0 322 -124.5t124 -323.5q0 -88 -34.5 -172.5t-95.5 -151.5t-154.5 -108t-202.5 -41z" />
    <glyph glyph-name="six" unicode="6" horiz-adv-x="1120" 
d="M580 -20q-237 0 -364 148t-126 439q1 261 99 463t274 313t401 111q70 0 70 -47q0 -49 -66 -57q-214 -24 -360 -161.5t-195 -391.5q-3 -15 4 -19t17 8q101 125 282 125q199 0 311.5 -121.5t112.5 -324.5q0 -136 -53 -244.5t-159 -174.5t-248 -66zM311 465
q-1 -167 74.5 -269t200.5 -102q115 0 178 85.5t63 254.5q0 167 -71 265t-191 98q-115 0 -184.5 -91.5t-69.5 -240.5z" />
    <glyph glyph-name="seven" unicode="7" horiz-adv-x="1073" 
d="M352 0q-17 0 -24 10.5t-2 28.5q42 316 182 633t313 569q7 11 3.5 18t-13.5 7h-401q-39 0 -63.5 -2.5t-48.5 -12t-39 -26t-30.5 -47t-27 -71.5t-25.5 -103q-9 -46 -55 -46q-27 0 -43 16t-15 44l43 381q3 35 37 35h783q35 0 53 -16.5t18 -43.5q0 -29 -18 -59
q-179 -308 -284.5 -612.5t-143.5 -663.5q-3 -22 -12 -30.5t-29 -8.5h-158z" />
    <glyph glyph-name="eight" unicode="8" horiz-adv-x="1187" 
d="M590 -20q-230 0 -365 106.5t-135 296.5q0 142 82.5 240t212.5 137q12 4 12 10q0 8 -14 14q-236 92 -236 314q0 151 122.5 253.5t324.5 102.5t324 -102.5t122 -253.5q0 -222 -235 -314q-14 -6 -14 -14q0 -6 12 -10q130 -41 212.5 -138t82.5 -239q0 -191 -137 -297
t-371 -106zM596 94q136 0 214.5 80.5t76.5 218.5q-2 141 -82.5 227.5t-210.5 86.5q-133 0 -212 -85t-81 -225q-1 -139 78.5 -221t216.5 -82zM596 821q111 0 174.5 72t63.5 184q0 117 -63 190.5t-177 73.5t-177 -72.5t-63 -185.5q0 -116 65 -189t177 -73z" />
    <glyph glyph-name="nine" unicode="9" horiz-adv-x="1142" 
d="M553 1454q238 0 364 -148.5t125 -439.5q-1 -195 -58 -360.5t-158.5 -281t-245 -180t-312.5 -64.5q-69 0 -69 47q0 49 65 57q214 24 360 161.5t195 391.5q3 15 -3.5 18.5t-16.5 -8.5q-101 -125 -283 -125q-199 0 -310.5 122t-111.5 325q0 136 52.5 244.5t158.5 174.5
t248 66zM823 969q0 167 -75.5 268.5t-198.5 101.5q-115 0 -179.5 -86t-64.5 -254q0 -166 71.5 -264t190.5 -98q115 0 184.5 91.5t71.5 240.5z" />
    <glyph glyph-name="colon" unicode=":" horiz-adv-x="499" 
d="M250 -16q-55 0 -89 32.5t-34 85.5q0 52 34 85.5t89 33.5t89 -33.5t34 -85.5q0 -53 -34 -85.5t-89 -32.5zM250 696q-55 0 -89 33t-34 86q0 52 34 85.5t89 33.5t89 -33.5t34 -85.5q0 -53 -34 -86t-89 -33z" />
    <glyph glyph-name="semicolon" unicode=";" horiz-adv-x="505" 
d="M256 696q-55 0 -89 33t-34 86q0 52 34 85.5t89 33.5t89 -33.5t34 -85.5q0 -53 -34 -86t-89 -33zM195 -262q-14 0 -24.5 10t-10.5 23q0 15 10 32q43 79 43 152q0 26 -13.5 44.5t-29.5 28t-29.5 32t-13.5 55.5q0 46 32.5 76t86.5 30q59 0 93 -37t34 -104q0 -88 -39.5 -173
t-102.5 -151q-18 -18 -36 -18z" />
    <glyph glyph-name="less" unicode="&#x3c;" 
d="M958 1012q26 9 50 -5t24 -44q0 -36 -35 -50l-620 -251q-17 -7 -17 -13q0 -7 17 -14l620 -252q35 -11 35 -47q0 -31 -23.5 -46.5t-50.5 -4.5l-790 313q-35 11 -35 51q0 38 35 49z" />
    <glyph glyph-name="equal" unicode="=" 
d="M184 707q-25 0 -39 15.5t-14 37.5q0 23 14 38t39 15h807q25 0 39 -15t14 -38q0 -22 -14 -37.5t-39 -15.5h-807zM184 424q-25 0 -39 15t-14 38q0 22 14 37.5t39 15.5h807q25 0 39 -15t14 -38t-14 -38t-39 -15h-807z" />
    <glyph glyph-name="greater" unicode="&#x3e;" 
d="M223 285q-26 -9 -49.5 5t-23.5 44q0 35 34 49l621 252q16 6 16 12q0 9 -16 15l-621 251q-34 11 -34 48q0 32 23 47t50 4l791 -314q35 -11 35 -51q0 -38 -35 -49z" />
    <glyph glyph-name="question" unicode="?" horiz-adv-x="1015" 
d="M453 377q-72 0 -72 80q0 111 34 188.5t105 145.5q104 97 136 138q69 88 69 199q0 96 -57.5 157t-159.5 61q-111 0 -174.5 -67t-63.5 -181q-6 -99 -86 -99q-90 0 -90 113q5 149 118 245.5t314 96.5q118 0 208.5 -35.5t146 -112.5t55.5 -188q0 -29 -5.5 -57.5t-11 -51
t-21.5 -49t-24 -42t-32 -41t-32 -35.5t-37.5 -35t-35 -29.5t-37.5 -30t-34 -26.5q-69 -56 -101.5 -119.5t-40.5 -152.5q-8 -38 -24 -55t-47 -17zM457 -16q-55 0 -89 32.5t-34 83.5q0 52 34 85.5t89 33.5q53 0 87 -33.5t34 -85.5q0 -51 -33.5 -83.5t-87.5 -32.5z" />
    <glyph glyph-name="at" unicode="@" horiz-adv-x="1781" 
d="M913 -272q-384 0 -611.5 228.5t-227.5 633.5q0 196 62 358.5t171.5 273t262.5 171.5t333 61q157 0 289.5 -42.5t226.5 -117t160 -177t97.5 -222t31.5 -252.5q0 -115 -18.5 -206.5t-48.5 -149.5t-71.5 -96.5t-84.5 -54t-90 -15.5q-94 0 -146 45.5t-71 134.5q-8 25 -19 25
q-10 0 -20 -23q-45 -90 -114 -136t-177 -46q-175 0 -277 124.5t-102 344.5q0 223 115.5 355t302.5 132q195 0 338 -112q38 -29 50.5 -50.5t12.5 -58.5q0 -75 -1 -223t-1 -221q0 -104 30 -147.5t91 -43.5q82 0 127 102.5t45 313.5q0 149 -43.5 277t-126 225.5t-213 153
t-295.5 55.5q-203 0 -361.5 -91.5t-248.5 -264t-90 -400.5q0 -347 191.5 -551.5t518.5 -204.5q242 0 414 111q22 12 41 11.5t30 -12.5t16 -27t-2 -32.5t-24 -29.5q-192 -129 -473 -129zM897 244q96 0 152.5 96.5t56.5 267.5q0 166 -54.5 259.5t-166.5 93.5
q-101 0 -156 -86.5t-55 -241.5q0 -166 59.5 -277.5t163.5 -111.5z" />
    <glyph glyph-name="A" unicode="A" horiz-adv-x="1515" 
d="M57 0q-22 0 -33.5 15t-11.5 36q0 38 45 49l29 4q50 8 80 39t61 107l459 1153q20 51 74 51q48 0 71 -49l457 -1129q33 -85 60 -122.5t75 -44.5l39 -9q41 -11 41 -49q0 -21 -11.5 -36t-33.5 -15h-475q-22 0 -34.5 14.5t-12.5 34.5q0 43 45 51l37 4q77 10 74 60
q-3 58 -84 254q-8 18 -25 18q-103 4 -267.5 4t-264.5 -4q-21 0 -29 -20q-50 -129 -60 -158q-22 -69 -20 -102q6 -45 86 -54l33 -4q41 -8 41 -49q0 -20 -12.5 -34.5t-34.5 -14.5h-398zM500 537q217 -3 430 0q32 3 20 30l-215 568q-6 14 -14 14q-6 0 -8.5 -2.5t-5.5 -11.5
l-224 -566q-6 -17 -2 -23.5t19 -8.5z" />
    <glyph glyph-name="B" unicode="B" horiz-adv-x="1296" 
d="M688 -18q-71 0 -188.5 9t-173.5 9h-209q-54 0 -54 47q0 43 43 53l46 9q51 6 71 21.5t29 45.5q16 69 16 164v754q0 89 -16 161q-7 31 -27.5 47.5t-72.5 22.5l-46 8q-43 10 -43 53q0 19 12.5 33.5t35.5 14.5h200q62 0 178.5 10t174.5 10q497 0 497 -334q0 -126 -71.5 -213
t-190.5 -127q-10 -3 -9.5 -14t11.5 -14q326 -65 326 -346q0 -87 -30.5 -161t-92.5 -134t-168.5 -94.5t-247.5 -34.5zM684 90q162 0 246 79.5t84 229.5q0 154 -92.5 225.5t-255.5 71.5q-74 0 -166 -10q-19 -6 -25 -16.5t-6 -36.5v-373q0 -100 44.5 -135t170.5 -35zM635 795
q149 0 232 74t83 216q0 263 -284 263q-53 0 -86 -5.5t-60 -23t-39 -52.5t-12 -91v-338q0 -23 6 -30t25 -9q47 -4 135 -4z" />
    <glyph glyph-name="C" unicode="C" horiz-adv-x="1341" 
d="M756 -20q-196 0 -352 92.5t-243 259t-87 377.5q0 209 85 379t237.5 268t342.5 98q116 0 216 -36t165 -93t102.5 -125t41.5 -135q2 -52 -21.5 -81.5t-68.5 -29.5q-85 0 -103 95q-27 132 -111 209t-219 77t-237 -74t-155.5 -202.5t-53.5 -292.5q0 -173 59.5 -313
t176.5 -225t272 -85q220 0 352 160q26 31 39.5 40t32.5 9q27 0 38.5 -23t-5.5 -67q-17 -43 -55.5 -89t-99 -91t-152.5 -73.5t-197 -28.5z" />
    <glyph glyph-name="D" unicode="D" horiz-adv-x="1521" 
d="M688 -18q-59 0 -183 9t-181 9h-215q-22 0 -34 14t-12 33q0 43 43 53l46 9q51 5 70 20.5t28 44.5q18 68 18 166v754q0 87 -16 159q-7 32 -27.5 49t-72.5 23l-46 8q-43 10 -43 53q0 19 12.5 33.5t35.5 14.5h206q61 0 191 10t188 10q187 0 332 -54.5t236 -151.5
t137.5 -225.5t46.5 -281.5q0 -164 -49.5 -302t-143.5 -240t-239.5 -159.5t-327.5 -57.5zM745 98q236 0 359 163t123 441q0 191 -59.5 335t-181 226.5t-290.5 82.5q-61 0 -98 -5.5t-69 -23.5t-46 -54.5t-14 -95.5v-870q0 -54 10 -89.5t27.5 -57.5t53.5 -33.5t77 -15t108 -3.5
z" />
    <glyph glyph-name="E" unicode="E" horiz-adv-x="1251" 
d="M109 0q-22 0 -34 14t-12 33q0 43 43 53l46 9q50 6 69.5 21t28.5 44q18 64 18 166v754q0 94 -16 163q-9 30 -29 46t-71 22l-46 8q-43 10 -43 53q0 19 12.5 33.5t35.5 14.5h936q24 0 33.5 -8.5t11.5 -28.5l45 -297q6 -35 -10.5 -54.5t-45.5 -19.5q-44 0 -61 47
q-15 48 -24 74.5t-22 58t-25 47t-29.5 32.5t-38.5 24t-49 11.5t-64 4.5h-164q-77 0 -106 -30.5t-29 -116.5v-361q0 -21 7.5 -30t27.5 -9h153q64 0 85 36t26 124q3 19 18 29.5t32 9.5t30.5 -14.5t13.5 -36.5v-402q0 -23 -13.5 -36.5t-30.5 -13.5t-32 10.5t-18 29.5
q-5 92 -25.5 127t-85.5 35h-153q-20 0 -27.5 -8t-7.5 -29v-342q0 -43 2.5 -70.5t10.5 -50t20.5 -34.5t36 -20t52 -10.5t73.5 -2.5h151q58 0 94 11.5t64 46t46.5 85t41.5 141.5q9 37 39.5 48t55.5 -10t18 -62l-50 -334q-3 -19 -12.5 -27t-32.5 -8h-970z" />
    <glyph glyph-name="F" unicode="F" horiz-adv-x="1191" 
d="M109 0q-22 0 -34 14t-12 33q0 43 43 53l46 9q51 6 71 21.5t29 45.5q16 69 16 164v754q0 94 -16 163q-9 30 -29 46t-71 22l-46 8q-43 10 -43 53q0 19 12.5 33.5t35.5 14.5h929q24 0 33.5 -8.5t11.5 -28.5l45 -297q4 -36 -11 -55t-44 -19q-47 0 -61 47q-18 57 -28 85.5
t-26.5 63.5t-31.5 49.5t-39 29.5t-54.5 19.5t-72.5 4.5h-148q-85 0 -115 -32t-30 -115v-369q0 -20 8.5 -28.5t28.5 -8.5h164q36 0 58.5 9t34.5 31.5t17 47.5t8 70q4 27 27 37.5t44.5 -3t21.5 -44.5v-404q0 -31 -22 -44t-45 -2.5t-26 36.5q-3 39 -6 61.5t-10.5 44.5t-20 32.5
t-32.5 17t-49 6.5h-164q-20 0 -28.5 -8.5t-8.5 -28.5v-287q0 -88 16 -160q9 -34 34.5 -50.5t82.5 -22.5l88 -11q30 -4 41.5 -16.5t11.5 -34.5q0 -49 -51 -49h-583z" />
    <glyph glyph-name="G" unicode="G" horiz-adv-x="1443" 
d="M801 -20q-212 0 -376 87t-257.5 253.5t-93.5 388.5q0 154 49 290.5t135.5 237t213.5 159t276 58.5q100 0 187.5 -23.5t149.5 -62.5t107.5 -90t69 -105t26.5 -108q2 -51 -22 -81t-70 -30q-77 0 -98 90q-65 291 -346 291q-141 0 -246 -75t-158 -204t-53 -294
q0 -98 19.5 -190t62 -174t103 -143t148 -96.5t191.5 -35.5q151 0 213 41.5t64 122.5q2 27 2 86q0 54 -15 131q-8 28 -29.5 42.5t-70.5 20.5l-57 8q-49 8 -49 54q0 19 12 33t35 14h471q22 0 34.5 -14t12.5 -33q0 -42 -43 -51l-37 -7q-43 -5 -60 -22.5t-22 -46.5
q-8 -47 -12 -133q-3 -89 2 -172q6 -108 -140 -164q-129 -53 -329 -53z" />
    <glyph glyph-name="H" unicode="H" horiz-adv-x="1656" 
d="M111 0q-23 0 -35.5 14t-12.5 33q0 43 43 53l46 9q52 6 72 22t30 49q14 63 14 160v754q0 103 -16 163q-9 30 -29 46t-71 22l-46 8q-43 10 -43 53q0 19 12.5 33.5t35.5 14.5h503q23 0 35.5 -14.5t12.5 -33.5q0 -42 -44 -53l-36 -4q-49 -7 -67.5 -22.5t-27.5 -44.5
q-18 -70 -18 -164v-291q0 -19 18 -19q341 -13 682 0q19 0 19 19v291q0 86 -17 162q-9 30 -27.5 46t-68.5 23l-37 4q-43 10 -43 53q0 19 12 33.5t35 14.5h504q23 0 35 -14.5t12 -33.5q0 -43 -43 -53l-45 -8q-51 -5 -70 -21t-30 -47q-16 -69 -16 -163v-754q0 -102 16 -162
q8 -31 28.5 -47t71.5 -22l45 -9q43 -10 43 -53q0 -19 -12 -33t-35 -14h-504q-23 0 -35 14t-12 33q0 43 43 53l37 4q50 7 68.5 23t27.5 47q17 67 17 162v313q0 19 -19 19q-341 13 -682 0q-18 0 -18 -19v-313q0 -95 14 -158q9 -32 28.5 -49.5t70.5 -24.5l36 -4q44 -11 44 -53
q0 -19 -12.5 -33t-35.5 -14h-503z" />
    <glyph glyph-name="I" unicode="I" horiz-adv-x="737" 
d="M111 0q-23 0 -35.5 14t-12.5 33q0 43 43 53l46 9q51 6 71 21.5t29 45.5q16 72 16 164v754q0 91 -16 163q-7 30 -27.5 46t-72.5 22l-46 8q-43 10 -43 53q0 19 12.5 33.5t35.5 14.5h516q22 0 34.5 -14.5t12.5 -33.5q0 -42 -45 -53l-45 -8q-50 -6 -70 -22t-29 -46
q-16 -72 -16 -163v-754q0 -81 14 -160q8 -32 28.5 -48.5t72.5 -22.5l45 -9q45 -11 45 -53q0 -19 -12.5 -33t-34.5 -14h-516z" />
    <glyph glyph-name="J" unicode="J" horiz-adv-x="712" 
d="M70 -285q-33 -4 -48.5 10t-15.5 37q0 35 45 50q49 19 81 37.5t57.5 49.5t39 66.5t22.5 96.5t12 131t3 178v723q0 103 -16 163q-7 29 -27.5 45.5t-70.5 22.5l-46 8q-45 11 -45 53q0 19 13.5 33.5t36.5 14.5h514q23 0 35 -14.5t12 -33.5q0 -43 -43 -53l-45 -8
q-51 -6 -71.5 -22t-29.5 -46q-16 -72 -16 -163v-785q0 -246 -80 -391q-100 -173 -317 -203z" />
    <glyph glyph-name="K" unicode="K" horiz-adv-x="1404" 
d="M111 0q-23 0 -35.5 14t-12.5 33q0 43 43 53l46 9q51 6 71 21.5t29 45.5q16 72 16 164v754q0 89 -16 161q-7 31 -27.5 47.5t-72.5 22.5l-46 8q-43 10 -43 53q0 19 12.5 33.5t35.5 14.5h495q23 0 35 -14.5t12 -33.5q0 -43 -43 -53l-37 -6q-49 -5 -67 -22t-25 -48
q-12 -67 -12 -159v-363q0 -14 8 -17t17 7l413 479q43 50 43 86q0 19 -16.5 29.5t-67.5 17.5q-49 12 -49 52q0 45 47 45h410q49 0 49 -50q0 -40 -45 -51q-72 -11 -111.5 -35t-105.5 -100l-299 -336q-20 -23 -4 -45l397 -577q53 -76 88 -104t100 -38q48 -8 48 -49
q0 -49 -52 -49h-471q-23 0 -35 13.5t-12 35.5q0 38 37 49l37 4q63 9 63 43q0 29 -38 84l-304 451q-12 19 -26 2l-105 -121q-16 -21 -16 -55v-178q0 -81 16 -156q7 -29 26.5 -46t68.5 -24l26 -4q39 -13 39 -51q0 -19 -12 -33t-35 -14h-487z" />
    <glyph glyph-name="L" unicode="L" horiz-adv-x="1208" 
d="M111 0q-23 0 -35.5 14t-12.5 33q0 43 43 53l46 9q51 6 71 21.5t29 45.5q16 69 16 164v754q0 89 -16 161q-7 31 -27.5 47.5t-72.5 22.5l-46 8q-43 10 -43 53q0 19 12.5 33.5t35.5 14.5h512q23 0 36 -14.5t13 -33.5q0 -45 -45 -53l-45 -6q-50 -6 -70 -23t-29 -49
q-14 -82 -14 -159v-764q0 -52 1.5 -79t8 -56.5t19 -42.5t36 -24.5t56.5 -15t84 -3.5h123q54 0 85 7t60.5 32.5t50.5 74t43 131.5l23 82q12 45 57 45q29 0 45 -20t10 -55l-55 -375q-3 -19 -12.5 -26t-32.5 -7h-960z" />
    <glyph glyph-name="M" unicode="M" horiz-adv-x="1970" 
d="M938 -20q-26 0 -39 30l-475 1004q-6 14 -14.5 12.5t-8.5 -16.5l-22 -674q0 -104 12 -158q7 -31 27 -48.5t74 -25.5l34 -4q43 -10 43 -53q0 -19 -12 -33t-35 -14h-422q-22 0 -34.5 14t-12.5 33q0 42 45 53l45 9q46 6 66.5 21.5t28.5 43.5q17 65 20 164l21 684
q5 158 -15 235q-8 31 -30 46.5t-68 21.5l-45 8q-43 10 -43 53q0 19 12 33.5t35 14.5h264q36 0 48 -7.5t26 -35.5l502 -1076q6 -13 13.5 -13t12.5 11l508 1078q12 25 26.5 34t41.5 9h272q23 0 35 -14.5t12 -33.5q0 -43 -43 -53l-45 -8q-51 -6 -70 -22t-28 -48
q-19 -88 -14 -225l24 -692q3 -96 19 -156q10 -34 29.5 -50.5t68.5 -22.5l45 -9q45 -11 45 -53q0 -19 -13 -33t-36 -14h-502q-23 0 -36 14t-13 33q0 42 45 53l37 4q51 7 70.5 24.5t27.5 53.5q15 71 12 154l-24 702q0 14 -8.5 14.5t-14.5 -12.5l-485 -1030q-12 -30 -39 -30z
" />
    <glyph glyph-name="N" unicode="N" horiz-adv-x="1595" 
d="M111 0q-23 0 -35.5 14t-12.5 33q0 43 43 53l46 9q51 6 71 21.5t29 45.5q16 72 16 164v754q0 89 -16 161q-7 31 -27.5 47.5t-72.5 22.5l-46 8q-43 10 -43 53q0 19 12.5 33.5t35.5 14.5h237q27 0 47 -23l785 -1018q19 -23 34 -18.5t15 33.5v686q0 86 -17 163q-9 30 -29 46
t-71 22l-45 8q-43 10 -43 53q0 19 12 33.5t35 14.5h428q22 0 34.5 -14.5t12.5 -33.5q0 -42 -45 -53l-45 -8q-50 -6 -69.5 -22t-28.5 -46q-17 -77 -17 -163v-1045q0 -69 -59 -69q-20 0 -36.5 9.5t-39.5 35.5l-778 1015q-19 21 -34 16t-15 -32l2 -684q0 -83 14 -162
q8 -31 28.5 -47t72.5 -22l45 -9q45 -11 45 -53q0 -19 -12.5 -33t-34.5 -14h-428z" />
    <glyph glyph-name="O" unicode="O" horiz-adv-x="1509" 
d="M754 -20q-195 0 -350.5 92t-242.5 258t-87 377t88.5 382t244.5 268t349 97q147 0 273.5 -53.5t216 -148.5t140 -229.5t50.5 -291.5q0 -213 -88.5 -385t-244.5 -269t-349 -97zM776 106q197 0 317.5 159.5t120.5 418.5q0 102 -21 197.5t-62.5 176t-98.5 141t-134 94.5
t-165 34q-197 0 -317.5 -159t-120.5 -418q0 -173 57 -318.5t168 -235.5t256 -90z" />
    <glyph glyph-name="P" unicode="P" horiz-adv-x="1232" 
d="M111 0q-23 0 -35.5 14t-12.5 33q0 43 43 53l46 9q51 6 71 21.5t29 45.5q16 69 16 164v754q0 89 -16 161q-7 31 -27.5 47.5t-72.5 22.5l-46 8q-43 10 -43 53q0 19 12.5 33.5t35.5 14.5h149q86 0 211 10t182 10q523 0 523 -405q0 -223 -161.5 -341t-465.5 -118
q-52 0 -66 -8.5t-14 -38.5v-199q0 -86 16 -158q9 -34 34 -50.5t83 -22.5l82 -11q33 -6 45 -18.5t12 -34.5q0 -49 -57 -49h-573zM543 698q229 0 323.5 82.5t94.5 259.5q0 306 -318 306q-91 0 -132.5 -31.5t-41.5 -128.5v-445q0 -28 12.5 -35.5t61.5 -7.5z" />
    <glyph glyph-name="Q" unicode="Q" horiz-adv-x="1509" 
d="M1315 -442q-80 0 -160.5 32t-146.5 77.5t-129.5 91.5t-134 78t-136.5 32q-151 0 -250 -86q-20 -14 -34 -14q-15 0 -24 10t-9 24q0 31 47 73t102 67q61 29 129 37q15 4 15 12q0 10 -15 16q-237 70 -366 254.5t-129 452.5q0 155 52.5 292.5t143 236t217 155.5t269.5 57
q146 0 272.5 -54t216 -150t140.5 -232.5t51 -296.5q0 -198 -82.5 -356t-223 -251t-319.5 -116q-18 -6 -18 -18q0 -11 18 -17q50 -16 109.5 -51t112 -71.5t106 -71.5t106.5 -57.5t98 -22.5q57 0 97.5 17.5t77.5 58.5q20 20 36 20q12 0 20.5 -9t8.5 -22t-12 -43
q-31 -65 -94.5 -110t-161.5 -45zM776 113q196 0 317 156.5t121 414.5q0 102 -21 197.5t-62.5 176t-98.5 141t-134 94.5t-165 34q-196 0 -317 -160t-121 -417q0 -124 33.5 -238.5t94 -203.5t152.5 -142t201 -53z" />
    <glyph glyph-name="R" unicode="R" horiz-adv-x="1341" 
d="M109 0q-22 0 -34 14t-12 33q0 43 43 53l46 9q51 5 70 20.5t28 44.5q18 68 18 166v754q0 89 -16 161q-7 31 -28 48t-74 24l-44 6q-43 10 -43 53q0 21 12 34.5t36 13.5h149q82 0 200.5 10t174.5 10q516 0 516 -399q0 -129 -65 -227t-193 -156q-26 -13 -10 -39l198 -359
q54 -98 89 -130t90 -40l26 -4q43 -8 43 -49q0 -21 -11.5 -36t-33.5 -15h-459q-23 0 -36 14.5t-13 34.5q0 36 35 47l33 4q67 11 67 47q0 31 -51 125l-155 293q-13 25 -25 32t-37 5q-36 -6 -106 -6q-44 0 -56 -9.5t-12 -45.5v-228q0 -87 10 -141q5 -29 22 -46t64 -24l29 -6
q35 -10 35 -47q0 -20 -11.5 -34.5t-33.5 -14.5h-475zM535 696q211 0 307 85.5t96 252.5q0 65 -16 118.5t-50.5 98.5t-96.5 70t-146 25q-37 0 -63 -6t-49.5 -22t-35.5 -48t-12 -80v-447q0 -31 11.5 -39t54.5 -8z" />
    <glyph glyph-name="S" unicode="S" horiz-adv-x="1112" 
d="M557 -20q-217 0 -350 105t-137 290q-1 49 24 76.5t66 27.5q40 2 65 -23t31 -77q4 -141 90 -215t229 -74q121 0 197 65.5t76 180.5q0 28 -6 53.5t-14.5 46t-26.5 41t-32 34.5t-43 31.5t-47 27.5t-55.5 27t-57.5 25.5t-64 26.5q-52 21 -85 35.5t-80.5 39t-77.5 46.5
t-64.5 55t-53.5 67.5t-32 80.5t-13 98q0 165 125.5 274t341.5 109q193 0 321.5 -97t133.5 -233q1 -50 -23.5 -75t-62.5 -25q-34 0 -60 22t-34 68q-11 105 -81.5 168.5t-191.5 63.5q-120 0 -192 -61t-72 -165q0 -48 17 -88t44 -68t70.5 -53.5t85 -44.5t98.5 -42q15 -6 23 -9
q165 -69 234 -114q161 -105 175 -275q1 -17 1 -35q0 -84 -33.5 -158.5t-95 -130.5t-155.5 -89t-208 -33z" />
    <glyph glyph-name="T" unicode="T" horiz-adv-x="1398" 
d="M426 0q-23 0 -35 14t-12 33q0 43 43 53l59 9q50 6 71.5 22t29.5 45q18 81 18 164v823q0 98 -30 130t-130 32q-60 0 -95.5 -8t-62.5 -32.5t-42.5 -62.5t-32.5 -106l-29 -110q-14 -56 -63 -56q-27 0 -43.5 19.5t-12.5 56.5l54 373q3 21 11.5 28t29.5 7h1093q20 0 28 -7.5
t11 -27.5l53 -373q4 -37 -12 -56.5t-43 -19.5q-47 0 -61 56l-31 110q-17 68 -32.5 105.5t-42.5 62.5t-63.5 33t-97.5 8q-98 0 -126.5 -31.5t-28.5 -130.5v-823q0 -90 16 -162q8 -31 28.5 -47t72.5 -22l59 -9q43 -10 43 -53q0 -19 -12 -33t-35 -14h-547z" />
    <glyph glyph-name="U" unicode="U" horiz-adv-x="1572" 
d="M793 -20q-149 0 -256 41t-170 121.5t-92 188.5t-29 251v512q0 86 -17 163q-9 30 -29 46t-71 22l-45 8q-43 10 -43 53q0 19 12 33.5t35 14.5h514q23 0 36 -14.5t13 -33.5q0 -42 -45 -53l-45 -8q-52 -6 -72 -22.5t-28 -49.5q-15 -84 -15 -159v-486q0 -261 96 -380t285 -119
q111 0 187.5 35t120 105t61.5 162.5t18 221.5v461q0 98 -18 166q-7 28 -26.5 43.5t-69.5 21.5l-47 8q-43 11 -43 53q0 19 12.5 33.5t34.5 14.5h428q22 0 34.5 -14.5t12.5 -33.5q0 -42 -45 -53l-45 -8q-50 -6 -70 -22t-29 -46q-16 -72 -16 -163v-453q0 -124 -15 -221
t-52 -181.5t-96.5 -140t-153 -87t-217.5 -31.5z" />
    <glyph glyph-name="V" unicode="V" horiz-adv-x="1513" 
d="M760 -20q-46 0 -64 45l-446 1122q-36 95 -68 134t-86 46l-35 6q-41 6 -41 49q0 21 12 36.5t34 15.5h512q21 0 33 -15t12 -35q0 -40 -41 -51l-52 -8q-84 -10 -84 -61q0 -31 12 -70.5t44 -126.5l286 -750q5 -13 14.5 -12.5t14.5 12.5l313 813q26 77 31 123q3 65 -84 74
l-51 6q-45 8 -45 51q0 20 12.5 35t34.5 15h418q23 0 35 -14.5t12 -35.5q0 -38 -47 -49l-25 -4q-50 -9 -80.5 -41t-60.5 -110l-459 -1151q-12 -28 -25.5 -38.5t-35.5 -10.5z" />
    <glyph glyph-name="W" unicode="W" horiz-adv-x="2209" 
d="M692 -20q-24 0 -36 9.5t-21 35.5l-365 1052q-40 124 -78.5 181.5t-97.5 68.5l-33 6q-41 8 -41 49q0 21 12 36.5t34 15.5h469q22 0 34.5 -15t12.5 -35q0 -40 -43 -51l-35 -4q-72 -10 -72 -53q0 -42 51 -197l244 -735q6 -17 16.5 -16.5t18.5 16.5l270 696q32 77 19 115
q-9 29 -33 88q-15 35 -39.5 55.5t-73.5 30.5l-35 4q-39 13 -39 53q0 19 12 33.5t34 14.5h495q22 0 34.5 -15t12.5 -35q0 -43 -41 -51l-57 -4q-42 -4 -60 -21t-18 -46q0 -46 39 -164l262 -760q6 -15 15.5 -15.5t13.5 13.5l254 764q33 101 37 162q2 27 -18.5 44t-63.5 21
l-49 6q-45 8 -45 51q0 21 14 35.5t41 14.5h393q53 0 53 -48q0 -41 -45 -51l-28 -6q-50 -8 -86 -49.5t-68 -138.5l-381 -1110q-18 -51 -61 -51q-23 0 -37.5 10.5t-24.5 38.5l-321 903q-6 12 -14.5 12t-12.5 -12l-362 -909q-17 -43 -56 -43z" />
    <glyph glyph-name="X" unicode="X" horiz-adv-x="1382" 
d="M78 0q-22 0 -33.5 15t-11.5 36q0 39 43 47l28 4q52 9 85.5 41.5t99.5 132.5l274 404q12 20 12.5 33t-10.5 28l-276 433q-54 85 -87.5 115.5t-86.5 39.5l-31 4q-45 11 -45 51q0 20 12.5 35t34.5 15h502q25 0 38 -13.5t13 -34.5q0 -43 -41 -51l-31 -4q-75 -10 -75 -55
q0 -35 71 -156l146 -229q24 -34 47 2l153 237q57 88 64 132q3 30 -14.5 46t-53.5 21l-37 4q-45 10 -45 51q0 21 13 35.5t38 14.5h396q22 0 33.5 -14.5t11.5 -35.5q0 -41 -45 -49l-25 -4q-51 -8 -83 -39t-89 -116l-258 -388q-11 -18 -11 -29t13 -32l287 -448
q62 -99 97.5 -132.5t94.5 -42.5l29 -4q45 -11 45 -51q0 -22 -13 -35.5t-38 -13.5h-506q-22 0 -33.5 14.5t-11.5 34.5q0 40 45 51l29 2q73 11 73 56q0 36 -63 139l-182 289q-9 14 -20.5 14.5t-22.5 -16.5l-187 -293q-52 -77 -55 -119q-9 -58 64 -68l40 -4q46 -8 46 -51
q0 -20 -13 -34.5t-35 -14.5h-409z" />
    <glyph glyph-name="Y" unicode="Y" horiz-adv-x="1400" 
d="M434 0q-22 0 -34.5 14t-12.5 33q0 42 45 53l66 9q49 6 69.5 22t28.5 45q18 77 18 164v217q0 24 -12 43l-326 553q-61 103 -91 135t-83 39l-34 4q-45 8 -45 51q0 21 12 36.5t35 15.5h503q22 0 35 -15t13 -35q0 -43 -41 -51l-41 -6q-72 -8 -72 -51q0 -39 72 -170l196 -346
q7 -17 18.5 -17t18.5 15l207 354q55 95 59 145q6 62 -65 70l-49 6q-45 8 -45 51q0 21 11.5 35.5t33.5 14.5h407q22 0 33.5 -14.5t11.5 -35.5q0 -39 -45 -49l-24 -4q-49 -9 -80.5 -43t-87.5 -129l-312 -526q-12 -21 -12 -43v-250q0 -90 16 -162q10 -31 30.5 -47t70.5 -22
l65 -9q45 -11 45 -53q0 -19 -12.5 -33t-34.5 -14h-561z" />
    <glyph glyph-name="Z" unicode="Z" horiz-adv-x="1200" 
d="M98 0q-43 0 -54.5 34.5t11.5 63.5l781 1200q6 10 2 18.5t-17 8.5h-354q-45 0 -74.5 -4t-54 -18t-38.5 -31.5t-28.5 -56.5t-23.5 -79t-23 -112q-9 -45 -59 -45q-24 0 -41 16t-14 45l30 369q4 25 27 25h889q42 0 54.5 -33t-11.5 -68l-778 -1198q-6 -11 -2 -18.5t16 -7.5
h393q58 0 93 3t67 16.5t48.5 32t33.5 59.5t28 88t25 128q4 22 19.5 34.5t35.5 12.5q25 0 42 -17t16 -48l-43 -395q0 -10 -7 -16.5t-18 -6.5h-971z" />
    <glyph glyph-name="bracketleft" unicode="[" horiz-adv-x="667" 
d="M209 -479q-22 0 -36.5 14.5t-14.5 36.5v1921q0 22 14.5 36.5t36.5 14.5h348q28 0 43.5 -14t15.5 -39q0 -23 -15.5 -37t-43.5 -14h-186q-21 0 -21 -23v-1769q0 -23 21 -23h186q28 0 43.5 -14t15.5 -37q0 -25 -15.5 -39t-43.5 -14h-348z" />
    <glyph glyph-name="backslash" unicode="\" horiz-adv-x="815" 
d="M727 -121q-44 -4 -59 37l-627 1548q-12 29 1.5 52t45.5 26q20 3 37.5 -7t24.5 -30l624 -1546q13 -32 -3.5 -54.5t-43.5 -25.5z" />
    <glyph glyph-name="bracketright" unicode="]" horiz-adv-x="667" 
d="M459 1544q22 0 36.5 -14.5t14.5 -36.5v-1921q0 -22 -14.5 -36.5t-36.5 -14.5h-348q-28 0 -44 14t-16 39q0 23 16 37t44 14h186q20 0 20 23v1769q0 23 -20 23h-186q-28 0 -44 14t-16 37q0 25 16 39t44 14h348z" />
    <glyph glyph-name="asciicircum" unicode="^" 
d="M266 780q-31 0 -45.5 23t-5.5 49l324 793q11 34 49 34q37 0 51 -34l322 -793q9 -24 -3.5 -46.5t-39.5 -25.5q-42 -4 -56 33l-260 623q-6 14 -14 14q-9 0 -15 -14l-258 -623q-14 -33 -49 -33z" />
    <glyph glyph-name="underscore" unicode="_" horiz-adv-x="1013" 
d="M96 -215q-26 0 -40.5 15.5t-14.5 37.5q0 23 14 38t41 15h822q27 0 41 -15t14 -38q0 -22 -14.5 -37.5t-40.5 -15.5h-822z" />
    <glyph glyph-name="grave" unicode="`" horiz-adv-x="544" 
d="M399 1079q-222 151 -317 248q-32 32 -11 74q20 38 62 41q37 3 70 -27q194 -194 266 -282q17 -20 9 -39.5t-30.5 -23.5t-48.5 9z" />
    <glyph glyph-name="a" unicode="a" horiz-adv-x="1013" 
d="M338 -20q-120 0 -190 62t-70 163q0 130 120.5 207t360.5 94q57 4 71.5 15t14.5 48q11 246 -190 246q-87 0 -137.5 -39t-53.5 -100q-8 -78 -78 -78q-35 0 -58.5 21.5t-23.5 64.5q3 108 112.5 180t260.5 72q354 0 354 -354v-334q0 -86 17 -117t53 -31q21 0 41 10.5t29 10.5
q30 0 30 -33q0 -43 -48.5 -75.5t-114.5 -32.5t-105.5 36t-50.5 95q-7 22 -18 22q-8 0 -23 -20q-48 -59 -126.5 -96t-176.5 -37zM416 92q99 0 164.5 70t66.5 188q0 43 -8 60.5t-37 17.5q-56 0 -110.5 -10.5t-105 -32.5t-81.5 -63t-31 -95q0 -62 37.5 -98.5t104.5 -36.5z" />
    <glyph glyph-name="b" unicode="b" horiz-adv-x="1067" 
d="M555 -20q-106 0 -200 33.5t-160 88.5q-36 29 -49 50.5t-13 56.5q4 230 4 319v752q0 71 -20.5 94.5t-87.5 32.5q-30 6 -42 16.5t-12 28.5q0 15 17 30.5t51 26.5q100 39 203 39q46 0 67 -20.5t21 -65.5q0 -19 -4 -122t-4 -185v-352q0 -15 10 -17t22 11q89 139 260 139
q180 0 287 -126.5t107 -336.5q0 -235 -127 -364t-330 -129zM580 96q107 0 167 88t60 238q0 166 -69 277.5t-183 111.5q-110 0 -174 -100t-64 -256q0 -165 65 -262t198 -97z" />
    <glyph glyph-name="c" unicode="c" horiz-adv-x="929" 
d="M514 -20q-210 0 -335.5 131t-125.5 344q0 132 58.5 242t164 174.5t234.5 64.5q75 0 140.5 -22.5t107.5 -58t68.5 -74.5t33.5 -76q10 -49 -12.5 -77t-61.5 -28q-68 0 -81 78q-32 137 -191 137q-117 0 -186.5 -92.5t-69.5 -239.5q0 -166 85 -272.5t220 -106.5
q78 0 138 26.5t92 70.5q17 22 43 22q22 0 32 -17t0 -46q-29 -68 -125 -124t-229 -56z" />
    <glyph glyph-name="d" unicode="d" horiz-adv-x="1122" 
d="M457 -20q-188 0 -296 123.5t-108 342.5q0 137 48.5 247t146 176.5t229.5 66.5q67 0 127 -22t98 -58q19 -12 27 -6.5t8 22.5v406q0 72 -20.5 96t-87.5 33q-54 11 -54 43q0 34 68 59q95 37 203 37q46 0 67 -19.5t21 -66.5q0 -18 -4 -121.5t-4 -185.5v-905q0 -81 16 -114.5
t55 -33.5q20 0 40 10.5t30 10.5q29 0 29 -33q0 -43 -50 -75.5t-116 -32.5q-121 0 -156 143q-3 18 -12 18q-11 0 -21 -16q-96 -145 -284 -145zM510 102q105 0 170 90t65 240q0 174 -69.5 280.5t-194.5 106.5q-108 0 -165.5 -89t-57.5 -241q0 -166 67.5 -276.5t184.5 -110.5z
" />
    <glyph glyph-name="e" unicode="e" horiz-adv-x="952" 
d="M518 -20q-206 0 -335.5 128t-129.5 343q0 116 38 210t101.5 153t143.5 90.5t168 31.5q178 0 285.5 -109.5t107.5 -302.5q0 -47 -20 -65.5t-68 -18.5h-510q-39 0 -39 -37q1 -136 85.5 -217.5t221.5 -81.5q152 0 230 95q30 33 60.5 16.5t12.5 -59.5q-31 -69 -122 -122.5
t-230 -53.5zM670 537q41 0 41 38q0 113 -58.5 176.5t-156.5 63.5q-97 0 -158 -66t-72 -174q-2 -20 7 -29t32 -9h365z" />
    <glyph glyph-name="f" unicode="f" horiz-adv-x="759" 
d="M125 0q-53 0 -53 43q0 32 37 43l26 6q32 6 46 19.5t20 40.5q12 71 12 155v441q0 26 -9 36.5t-32 10.5h-76q-53 0 -53 51q0 45 51 53l78 10q33 7 33 29q0 10 -29 70q-51 104 -51 211q0 152 95 239.5t241 87.5q133 0 211.5 -66t83.5 -149q3 -43 -21 -68.5t-59 -25.5
q-33 0 -51 13t-29 44q-29 109 -141 109q-86 0 -136 -56t-47 -157q0 -66 22 -125t54 -98q27 -33 53.5 -43.5t79.5 -10.5h166q58 0 58 -49q0 -31 -19 -49t-55 -18h-185q-27 0 -36 -10t-9 -42v-456q0 -77 13 -135q8 -26 24.5 -39.5t57.5 -20.5l53 -6q37 -8 37 -45
q0 -43 -51 -43h-410z" />
    <glyph glyph-name="g" unicode="g" horiz-adv-x="1026" 
d="M444 -481q-440 0 -440 235q0 155 201 234q6 2 14.5 5t12.5 5t10 4t8.5 3.5t5 3.5t3.5 4t1 5t-1.5 5.5t-5.5 5.5t-7 5.5t-10 7t-11 7.5q-63 43 -63 98q0 45 33 84q7 8 16 17.5t13.5 15t9.5 12.5t8 13q12 18 -17 35q-172 93 -172 284q0 138 110.5 233t305.5 95
q64 0 120.5 -11t91.5 -22.5t46 -11.5q4 0 8.5 1t8.5 3t7.5 4t8 6t7 6.5t8 8.5t7.5 9t8 10.5t9 10.5q57 72 119 72q37 0 57 -19t20 -49q0 -37 -33.5 -56.5t-109.5 -43.5q-18 -5 -27 -8q-16 -5 -16 -15q0 -6 10 -16q72 -84 72 -213q0 -141 -110.5 -236.5t-301.5 -95.5
q-46 0 -100 4q-26 3 -47 -25.5t-21 -62.5q0 -55 36.5 -80.5t111.5 -27.5l153 -6q196 -9 282.5 -60t86.5 -149q0 -162 -148 -253t-389 -91zM465 -369q146 0 228.5 56.5t82.5 146.5q0 44 -23 70.5t-84 41.5t-167 15q-150 0 -221.5 -49.5t-71.5 -126.5q0 -80 59 -117t197 -37z
M481 373q95 0 150 56t55 155q0 116 -58 183t-165 67q-94 0 -150.5 -58t-56.5 -155q0 -112 59.5 -180t165.5 -68z" />
    <glyph glyph-name="h" unicode="h" horiz-adv-x="1140" 
d="M88 0q-51 0 -51 43q0 32 35 43l28 6q32 6 45.5 20t18.5 40q12 56 12 155v971q0 72 -20.5 96t-87.5 33q-54 11 -54 43q0 34 68 59q95 37 203 37q46 0 67 -19.5t21 -66.5q0 -18 -4 -121.5t-4 -185.5v-330q0 -14 10 -14t28 18q109 109 263 109q155 0 234 -93.5t79 -262.5
v-273q0 -96 10 -155q6 -26 20.5 -40t45.5 -20l28 -6q35 -11 35 -43q0 -43 -51 -43h-350q-55 0 -55 43q0 30 32 41l25 6q33 6 45.5 18.5t15.5 36.5q11 62 11 134v272q0 242 -187 242q-111 -1 -175 -86.5t-64 -221.5v-206q0 -74 8 -134q5 -24 18 -36.5t45 -18.5l25 -6
q31 -11 31 -41q0 -43 -52 -43h-352z" />
    <glyph glyph-name="i" unicode="i" horiz-adv-x="565" 
d="M111 0q-52 0 -52 43q0 33 35 43l27 6q33 6 45.5 19t19.5 41q13 76 13 155v357q0 73 -19 96.5t-84 34.5q-51 13 -51 43q0 15 16.5 30.5t49.5 26.5q97 41 196 41q88 0 88 -80q0 -22 -4 -113t-4 -155v-281q0 -99 12 -155q5 -26 19 -40t45 -20l29 -6q34 -10 34 -43
q0 -43 -51 -43h-364zM264 1122q-55 0 -92 34t-37 85q0 50 37 84.5t92 34.5t93 -34.5t38 -84.5q0 -51 -37.5 -85t-93.5 -34z" />
    <glyph glyph-name="j" unicode="j" horiz-adv-x="520" 
d="M70 -479q-35 -6 -52.5 6t-17.5 35q0 31 37 49q91 36 125.5 118.5t34.5 217.5v604v17q0 149 -18 185t-113 44q-37 9 -37 34q0 23 28 43q41 25 123 44.5t135 19.5q38 0 58 -18.5t18 -47.5q0 -34 -3 -142t-3 -177v-543q-1 -117 -22.5 -203.5t-64 -143.5t-97.5 -90.5
t-131 -51.5zM274 1122q-55 0 -92 34t-37 85q0 50 37 84.5t92 34.5t93.5 -34.5t38.5 -84.5q0 -51 -38 -85t-94 -34z" />
    <glyph glyph-name="k" unicode="k" horiz-adv-x="1073" 
d="M88 0q-51 0 -51 43q0 32 35 43l28 6q32 6 45.5 20t18.5 40q12 56 12 155v971q0 72 -20.5 96t-87.5 33q-54 11 -54 43q0 34 68 59q95 37 203 37q46 0 67 -19.5t21 -66.5q0 -18 -4 -121.5t-4 -185.5v-639q0 -24 15.5 -27.5t35.5 15.5l170 180q67 69 67 106q0 26 -45 37
l-28 6q-31 11 -31 41q0 41 51 41h354q27 0 39.5 -12t12.5 -29q0 -34 -41 -43l-29 -8q-51 -10 -96 -55q-92 -83 -113 -104l-70 -70q-14 -12 -15 -23t11 -28l183 -265q68 -97 92 -124q22 -28 38.5 -40.5t45.5 -21.5l22 -6q37 -12 37 -41q0 -43 -51 -43h-356q-52 0 -52 43
q0 29 31 39l27 6q43 8 43 35q0 18 -64 119l-127 192q-23 40 -47 19l-92 -95q-18 -18 -18 -65q0 -78 4 -119q2 -37 15 -55.5t52 -28.5l25 -6q31 -11 31 -41q0 -43 -52 -43h-352z" />
    <glyph glyph-name="l" unicode="l" horiz-adv-x="538" 
d="M88 0q-51 0 -51 43q0 32 39 45l24 4q33 7 47 22t21 44q8 45 8 149v971q0 72 -20.5 96t-87.5 33q-54 11 -54 43q0 34 68 59q95 37 203 37q46 0 67 -19.5t21 -66.5q0 -18 -4 -121.5t-4 -185.5v-846q0 -93 10 -149q5 -28 19 -43.5t48 -22.5l27 -6q37 -10 37 -43
q0 -43 -53 -43h-365z" />
    <glyph glyph-name="m" unicode="m" horiz-adv-x="1722" 
d="M111 0q-52 0 -52 43q0 33 35 43l27 6q33 7 46.5 21t18.5 41q13 61 13 153v357q0 73 -19 96.5t-84 34.5q-51 13 -51 43q0 15 16.5 30.5t49.5 26.5q97 41 192 41q84 0 84 -76q0 -15 -1 -34.5t-1 -24.5q0 -17 8 -17q7 0 19 15q48 65 118 101t152 36q93 0 153 -39t95 -121
q8 -18 16 -18t15 10q116 168 307 168q142 0 216.5 -92t74.5 -264v-273q0 -83 12 -153q5 -26 19 -40.5t46 -21.5l27 -4q37 -14 37 -45q0 -43 -51 -43h-351q-27 0 -39 12.5t-12 30.5q0 30 31 41l25 6q32 7 44 21t17 41q8 57 8 127v272q0 121 -44.5 181.5t-127.5 60.5
q-100 -1 -163.5 -89t-63.5 -217v-208q0 -84 6 -127q5 -27 17.5 -41t43.5 -21l25 -6q31 -11 31 -41q0 -17 -12.5 -30t-39.5 -13h-333q-27 0 -39.5 13t-12.5 30q0 30 31 41l25 6q32 7 44 21t17 41q8 57 8 127v274q0 120 -44 180t-124 60q-98 0 -163.5 -79.5t-65.5 -230.5v-204
q0 -84 6 -127q5 -25 18.5 -40t45.5 -22l24 -6q29 -10 29 -41q0 -43 -49 -43h-350z" />
    <glyph glyph-name="n" unicode="n" horiz-adv-x="1169" 
d="M111 0q-52 0 -52 43q0 33 35 43l27 6q33 7 46.5 21t18.5 41q13 61 13 153v357q0 73 -19 96.5t-84 34.5q-51 13 -51 43q0 15 16.5 30.5t49.5 26.5q97 41 192 41q84 0 84 -76q0 -15 -1 -34.5t-1 -24.5q0 -17 8 -17q7 0 21 17q107 133 288 133q146 0 225 -95.5t79 -254.5
v-277q0 -94 10 -153q7 -27 20.5 -41t46.5 -21l25 -4q37 -13 37 -45q0 -43 -51 -43h-351q-27 0 -39 12.5t-12 30.5q0 29 31 41l25 6q32 7 44 21t17 41q8 43 8 127v272q0 117 -48.5 181.5t-141.5 64.5q-104 0 -172 -76.5t-68 -208.5v-233q0 -84 6 -127q5 -25 18.5 -40
t45.5 -22l24 -6q29 -10 29 -41q0 -43 -49 -43h-350z" />
    <glyph glyph-name="o" unicode="o" horiz-adv-x="1048" 
d="M526 -20q-206 0 -339.5 133.5t-133.5 343.5q0 206 133.5 342.5t335.5 136.5q205 0 339 -133.5t134 -337.5q0 -213 -133.5 -349t-335.5 -136zM537 100q119 0 186.5 88.5t67.5 245.5q0 167 -78 274t-201 107q-119 0 -186.5 -88.5t-67.5 -245.5q0 -168 78.5 -274.5
t200.5 -106.5z" />
    <glyph glyph-name="p" unicode="p" horiz-adv-x="1114" 
d="M100 -461q-51 0 -51 43q0 33 35 43l27 6q35 7 48.5 22t18.5 44q10 59 10 149v818q0 73 -18.5 96.5t-83.5 34.5q-51 13 -51 43q0 26 45 47q36 20 96.5 35.5t110.5 15.5q78 0 78 -62q0 -12 -1.5 -34.5t-1.5 -36.5q0 -29 11 -29q7 0 18 14q103 148 283 148q174 0 280.5 -127
t106.5 -336q0 -223 -120.5 -358t-297.5 -135q-127 0 -231 71q-15 8 -25 2.5t-10 -22.5v-183q0 -90 10 -149q7 -29 24.5 -44.5t57.5 -21.5l43 -6q43 -7 43 -45q0 -43 -51 -43h-404zM629 96q107 0 167 88t60 238q0 165 -69.5 277t-182.5 112q-108 0 -171.5 -92.5t-63.5 -259.5
q0 -160 66.5 -261.5t193.5 -101.5z" />
    <glyph glyph-name="q" unicode="q" horiz-adv-x="1071" 
d="M612 -461q-51 0 -51 43q0 37 43 45l47 6q36 6 51.5 20t22.5 40q16 65 16 155v263q0 18 -14 18q-11 0 -18 -10q-85 -139 -260 -139q-180 0 -288 126t-108 343q0 225 128 356t335 131q196 0 352 -115q38 -28 51 -49.5t13 -56.5q0 -53 -2 -172t-2 -191v-506q0 -83 8 -143
q5 -32 20 -48.5t50 -23.5l26 -6q37 -11 37 -43q0 -43 -51 -43h-406zM510 102q112 0 176 101t64 262q0 163 -63 257.5t-183 94.5q-119 0 -182.5 -86.5t-63.5 -236.5q0 -167 69.5 -279.5t182.5 -112.5z" />
    <glyph glyph-name="r" unicode="r" horiz-adv-x="829" 
d="M111 0q-52 0 -52 43q0 31 37 45l25 4q34 7 48 21.5t19 42.5q11 65 11 151v357q0 73 -19 96.5t-84 34.5q-51 13 -51 43q0 15 16.5 30.5t49.5 26.5q97 41 186 41q84 0 84 -72q0 -15 -1 -34.5t-1 -24.5q0 -21 10 -21t19 15q38 66 93.5 101.5t121.5 35.5q76 0 120.5 -47
t44.5 -133q0 -52 -21.5 -84.5t-57.5 -32.5q-61 0 -70 59q0 86 -80 86q-70 0 -121 -71.5t-51 -190.5v-213q0 -97 12 -153q6 -26 24 -41t56 -21l43 -6q43 -7 43 -45q0 -43 -51 -43h-403z" />
    <glyph glyph-name="s" unicode="s" horiz-adv-x="864" 
d="M430 -20q-181 0 -277 69.5t-96 177.5q0 44 23 67t61 23q68 0 86 -73q6 -81 60 -122.5t147 -41.5q86 0 132 36t46 101q0 18 -4.5 34t-9 28t-18 24t-21.5 19.5t-29 17t-30 14t-36.5 13t-37 11t-41.5 11.5q-40 11 -64 18t-60.5 20.5t-59 27t-48.5 35.5t-40.5 47t-24.5 59.5
t-10 75.5q0 112 91.5 188t264.5 76q149 0 243 -63t99 -142q1 -42 -21.5 -62t-54.5 -20q-58 0 -84 64q-22 59 -63.5 90t-114.5 31q-80 0 -123 -34.5t-43 -94.5q0 -25 6.5 -44.5t23.5 -35t31 -25t46.5 -20.5t51 -16.5t61.5 -16.5q36 -10 57.5 -16.5t55 -18t54.5 -23t48 -28
t43 -36t31.5 -44.5t22.5 -56.5t7 -68.5q0 -123 -97.5 -199.5t-283.5 -76.5z" />
    <glyph glyph-name="t" unicode="t" horiz-adv-x="731" 
d="M446 -20q-125 0 -187 59.5t-62 187.5v502q0 42 -11.5 54t-50.5 12h-69q-46 0 -46 49q0 44 46 53q107 16 135.5 41t80.5 145q9 19 13 29q23 51 65 51q17 0 28 -12t11 -37q0 -7 -12 -166q-3 -35 31 -35h207q30 0 42.5 -11.5t12.5 -35.5q0 -33 -20 -51t-56 -18h-182
q-20 0 -28.5 -8.5t-8.5 -30.5v-490q0 -98 31 -135t98 -37q38 0 78.5 12.5t52.5 12.5q37 0 37 -35q0 -45 -72.5 -75.5t-163.5 -30.5z" />
    <glyph glyph-name="u" unicode="u" horiz-adv-x="1138" 
d="M473 -20q-149 0 -232 86.5t-83 271.5v326q0 73 -18 96.5t-83 34.5q-30 7 -41.5 17t-11.5 26q0 15 17 30.5t51 26.5q93 41 194 41q88 0 88 -80q0 -22 -4 -113t-4 -155v-230q0 -119 49 -180t135 -61q110 0 170 90t60 237v220q0 73 -18.5 96.5t-82.5 34.5q-30 7 -41.5 17
t-11.5 26q0 15 16.5 30.5t49.5 26.5q97 41 196 41q88 0 88 -80q0 -22 -4 -113t-4 -155v-340q0 -81 16.5 -114.5t55.5 -33.5q20 0 40 10.5t30 10.5q28 0 28 -33q0 -44 -50 -76t-114 -32q-63 0 -104.5 41t-56.5 124q-3 15 -13 15q-8 0 -18 -15q-114 -165 -289 -165z" />
    <glyph glyph-name="v" unicode="v" horiz-adv-x="1114" 
d="M565 -20q-28 0 -44.5 12t-33.5 45l-264 602q-36 81 -59 117q-18 27 -34 41.5t-44 19.5l-23 6q-43 12 -43 47q0 43 54 43h387q51 0 51 -41q0 -34 -39 -45l-27 -6q-53 -8 -53 -47q0 -35 45 -145l148 -369q6 -12 16 -12t14 12l150 375q43 110 43 137q0 41 -55 49l-29 6
q-21 7 -29 17t-8 28q0 41 51 41h303q26 0 39 -12t13 -29q0 -36 -41 -47l-23 -6q-30 -7 -46 -22t-30 -41q-30 -56 -59 -127l-258 -600q-21 -49 -72 -49z" />
    <glyph glyph-name="w" unicode="w" horiz-adv-x="1609" 
d="M520 -20q-30 0 -47.5 12t-30.5 45l-223 598q-27 75 -55 121q-15 27 -32 41t-46 20l-23 6q-43 12 -43 47q0 43 54 43h379q53 0 53 -41q0 -34 -39 -45l-29 -6q-49 -8 -49 -47q0 -43 47 -176l111 -330q5 -15 16 -15t17 15l159 391q14 35 14.5 53.5t-14.5 57.5q-16 40 -67 51
l-27 8q-19 6 -27 15.5t-8 27.5q0 17 11.5 29t37.5 12h342q52 0 52 -41q0 -32 -33 -43l-39 -8q-53 -8 -53 -49q0 -47 33 -123l143 -385q5 -12 14.5 -11.5t14.5 11.5l145 408q27 75 27 100q0 41 -54 49l-28 6q-37 14 -37 45q0 41 51 41h299q27 0 40 -12t13 -29q0 -35 -41 -47
l-22 -6q-29 -7 -46 -22.5t-32 -42.5q-31 -61 -64 -146l-215 -569q-23 -59 -77 -59q-28 0 -46.5 12.5t-35.5 52.5l-191 475q-6 15 -12 15q-8 0 -14 -17l-197 -473q-17 -37 -34 -51t-42 -14z" />
    <glyph glyph-name="x" unicode="x" horiz-adv-x="1013" 
d="M70 0q-52 0 -52 39q0 36 48 49l22 4q35 9 59.5 29t55.5 63l196 267q6 9 -2 20l-164 229q-44 62 -67.5 84.5t-59.5 32.5l-24 6q-41 14 -41 47q0 43 53 43h357q53 0 53 -41q0 -28 -29 -36l-26 -7q-24 -6 -31.5 -12.5t-7.5 -19.5q0 -24 53 -103q4 -5 6 -8l68 -104
q13 -19 24 0l70 102q57 85 57 115q0 11 -9 17t-30 11l-24 7q-33 11 -33 38q0 41 51 41h277q51 0 51 -41q0 -31 -37 -41l-23 -6q-40 -12 -69.5 -40.5t-85.5 -106.5l-135 -178q-11 -13 2 -29l192 -260q44 -59 69.5 -81.5t59.5 -33.5l25 -6q39 -14 39 -47q0 -17 -13 -30
t-39 -13h-366q-51 0 -51 39q0 31 30 39l33 6q39 7 39 33q0 23 -51 98q-4 5 -6 8l-99 137q-13 20 -26 0l-101 -143q-51 -76 -51 -102q0 -22 43 -31l31 -6q33 -9 33 -39q0 -39 -54 -39h-290z" />
    <glyph glyph-name="y" unicode="y" horiz-adv-x="1116" 
d="M270 -481q-93 0 -148.5 48t-55.5 124q0 48 24 73t64 25q69 0 75 -70q0 -79 68 -79q48 0 82 41t76 155l43 113q16 45 0 78l-258 575q-39 88 -72 148q-20 31 -37 46.5t-45 20.5l-23 6q-43 15 -43 47q0 43 54 43h383q53 0 53 -41q0 -35 -35 -43l-26 -6q-56 -8 -56 -49
q0 -40 47 -147l150 -369q5 -16 16 -16q13 0 19 14l139 377q41 105 41 139q0 42 -51 49l-27 8q-22 6 -30.5 16t-8.5 27q0 41 51 41h303q54 0 54 -41q0 -31 -39 -47l-27 -6q-28 -7 -43.5 -21.5t-30.5 -41.5q-32 -54 -65 -140l-316 -800q-37 -93 -71.5 -152t-72 -90.5
t-74.5 -43t-87 -11.5z" />
    <glyph glyph-name="z" unicode="z" horiz-adv-x="894" 
d="M90 0q-28 0 -42.5 13.5t-14.5 33.5q0 23 22 55l494 680q8 10 4.5 17.5t-16.5 7.5h-203q-67 0 -98.5 -34.5t-67.5 -151.5q-6 -22 -17.5 -30.5t-33.5 -8.5q-51 0 -43 57l35 229q3 25 14.5 35t38.5 10h612q25 0 39 -12.5t14 -30.5q0 -25 -30 -63l-492 -676q-6 -9 -2.5 -15.5
t16.5 -6.5h228q46 0 71 5.5t49.5 27t42 61t40.5 110.5q7 23 17.5 31t29.5 8q45 0 39 -53l-31 -252q-5 -47 -57 -47h-658z" />
    <glyph glyph-name="braceleft" unicode="{" horiz-adv-x="688" 
d="M592 -479q-191 24 -276 103.5t-85 244.5q0 41 5.5 176.5t5.5 181.5q0 50 -1.5 78.5t-7 61.5t-17 50.5t-32 30.5t-51.5 15q-63 9 -63 69q0 61 63 70q31 2 51.5 15t32 30.5t17 50.5t7 61.5t1.5 78.5q0 46 -5.5 181.5t-5.5 176.5q0 165 85 244.5t276 103.5q49 7 55 -22
q6 -36 -39 -45q-103 -21 -142.5 -78.5t-39.5 -169.5q0 -43 9 -183.5t9 -205.5q0 -103 -40 -181.5t-119 -109.5q-21 -5 -21 -17q0 -11 21 -16q79 -31 119 -109.5t40 -181.5q0 -60 -9 -202.5t-9 -186.5q0 -112 39.5 -169.5t142.5 -78.5q21 -3 31.5 -15t7.5 -28q-6 -31 -55 -24
z" />
    <glyph glyph-name="bar" unicode="|" horiz-adv-x="614" 
d="M307 -410q-61 0 -61 64v1921q0 63 61 63q28 0 45 -16.5t17 -46.5v-1921q0 -30 -17 -47t-45 -17z" />
    <glyph glyph-name="braceright" unicode="}" horiz-adv-x="688" 
d="M96 1544q191 -24 276 -103.5t85 -244.5q0 -41 -5.5 -176.5t-5.5 -181.5q0 -50 1.5 -78.5t7 -61.5t17 -50.5t32 -30.5t51.5 -15q63 -9 63 -70q0 -60 -63 -69q-31 -2 -51.5 -15t-32 -30.5t-17 -50.5t-7 -61.5t-1.5 -78.5q0 -46 5.5 -181.5t5.5 -176.5q0 -165 -85 -244.5
t-276 -103.5q-49 -7 -55 22q-6 36 39 45q103 21 142.5 78.5t39.5 169.5q0 43 -9 183.5t-9 205.5q0 103 40 181.5t119 109.5q21 5 21 16q0 12 -21 17q-79 31 -119 109.5t-40 181.5q0 60 9 202.5t9 186.5q0 112 -39.5 169.5t-142.5 78.5q-21 3 -31.5 15t-7.5 28q6 31 55 24z
" />
    <glyph glyph-name="asciitilde" unicode="~" 
d="M772 467q-44 0 -89 18t-82 43.5t-72.5 51t-71.5 43.5t-66 18q-92 0 -160 -121q-19 -25 -33.5 -34t-37.5 -5q-27 5 -38 25t-1 51q48 124 117 190t155 66q54 0 109.5 -27.5t94.5 -60.5t88 -60.5t91 -27.5q99 0 170 121q31 45 72 37q25 -3 36.5 -23.5t2.5 -52.5
q-45 -120 -117.5 -186t-167.5 -66z" />
    <glyph glyph-name="uni00A0" unicode="&#xa0;" horiz-adv-x="393" 
 />
    <glyph glyph-name="exclamdown" unicode="&#xa1;" horiz-adv-x="581" 
d="M291 541q54 0 65 -72q2 -25 11 -138t11.5 -145.5t8.5 -124t8.5 -142.5t6 -128t4.5 -149q3 -123 -115 -123t-115 123q5 267 49 827q6 39 21 55.5t45 16.5zM291 938q55 0 88 -33t33 -86q0 -52 -33 -84.5t-88 -32.5t-88 32.5t-33 84.5q0 53 33 86t88 33z" />
    <glyph glyph-name="cent" unicode="&#xa2;" horiz-adv-x="929" 
d="M444 -199q-35 0 -32 43l12 127q3 14 -10 17q-167 32 -264 157.5t-97 309.5q0 198 128.5 336.5t326.5 144.5q16 0 16 12l11 94q3 43 38 43q36 0 33 -43l-10 -102q0 -13 12 -16q105 -23 171.5 -87.5t80.5 -131.5q10 -49 -12.5 -77t-61.5 -28q-68 0 -81 78q-22 91 -107 121
q-15 9 -18 -11l-68 -665q0 -14 12 -17q71 -8 148.5 16t120.5 79q17 22 43 22q22 0 32 -17t0 -46q-32 -76 -134.5 -128t-221.5 -52q-12 0 -16 -15l-13 -121q-3 -43 -39 -43zM426 147q6 -4 11 -1.5t7 10.5l66 643q0 8 -3 11.5t-9 2.5q-109 -9 -174.5 -100.5t-65.5 -229.5
q0 -114 45 -204.5t123 -131.5z" />
    <glyph glyph-name="sterling" unicode="&#xa3;" horiz-adv-x="1130" 
d="M133 0q-67 0 -67 51q-1 19 9 33.5t36 34.5q40 30 56.5 42.5t51 41.5t50 47.5t39 50t34 59t19 65t8.5 77.5q0 63 -27 125q-2 10 -16 10q-153 -4 -222 -8q-69 -3 -69 57t69 57q30 -2 88 -4t64 -2q9 0 12 5.5t-2 13.5q-3 5 -19.5 31.5t-21 34.5t-18.5 33t-19 38t-14.5 37.5
t-13 43.5t-7 45t-3.5 52q0 166 115 274.5t308 108.5q181 0 297 -96t121 -234q1 -50 -23.5 -75t-62.5 -25q-31 0 -57.5 22t-34.5 68q-11 107 -70.5 169.5t-167.5 62.5q-100 0 -159.5 -64.5t-59.5 -179.5q0 -66 20.5 -123.5t62 -130t55.5 -103.5q2 -10 16 -10q167 0 303 8
q72 3 72 -57t-72 -57q-125 8 -274 8q-17 0 -13 -14q10 -59 4 -111q-4 -60 -24 -114t-54 -98.5t-63.5 -74.5t-69.5 -63q-13 -10 -9.5 -18.5t18.5 -8.5h366q55 0 84.5 5t57 24.5t45.5 54.5t39 100l12 41q17 52 59 52q29 0 45.5 -20t10.5 -54l-52 -305q-2 -19 -11 -26t-32 -7
h-819z" />
    <glyph glyph-name="currency" unicode="&#xa4;" horiz-adv-x="980" 
d="M135 307q-40 37 0 80l66 66q11 11 2 20q-53 85 -53 189q0 103 53 188q9 9 -2 20l-66 66q-40 43 0 80q39 42 80 -2l68 -68q10 -7 20 -2q82 53 186 53q107 0 189 -53q13 -6 20 4l68 66q41 44 80 2q40 -37 0 -80l-68 -66q-8 -12 0 -20q53 -85 53 -188q0 -104 -53 -189
q-8 -8 0 -20l68 -66q40 -43 0 -80q-39 -42 -80 2l-68 66q-7 11 -20 4q-82 -53 -189 -53q-101 0 -186 53q-10 5 -20 -2l-68 -68q-41 -44 -80 -2zM489 424q104 0 169 66.5t65 171.5t-65 171t-169 66q-102 0 -166.5 -66t-64.5 -171t64.5 -171.5t166.5 -66.5z" />
    <glyph glyph-name="yen" unicode="&#xa5;" horiz-adv-x="1384" 
d="M432 0q-21 0 -34 14.5t-13 32.5q0 42 45 53l64 9q46 6 64.5 21.5t27.5 43.5q2 8 5.5 25.5t5 25.5t3 29t2.5 49l4 51q0 15 -16 15q-173 0 -314 -9q-69 -3 -69 54q0 54 69 51q188 -8 316 -8q14 0 14 14v123q0 24 -6.5 32.5t-28.5 8.5q-111 0 -295 -8q-69 -3 -69 53
q0 53 69 53q148 -8 230 -8q19 0 10 18l-237 410q-59 102 -87.5 134.5t-78.5 39.5l-33 4q-45 11 -45 51q0 21 11.5 36.5t33.5 15.5h493q21 0 33 -15t12 -35q0 -43 -40 -51l-39 -6q-68 -8 -68 -51q0 -50 70 -170l188 -332q18 -34 37 -2l195 340q26 45 39.5 78.5t14.5 40.5
t3 26q9 61 -64 70l-47 6q-43 12 -43 51q0 20 12 35t33 15h394q23 0 35 -14.5t12 -35.5q0 -37 -45 -49l-25 -4q-45 -10 -75.5 -44t-84.5 -128l-246 -416q-6 -18 11 -18q81 0 237 8q70 0 70 -53q0 -56 -70 -53q-188 8 -278 8q-24 0 -30.5 -7.5t-6.5 -33.5v-121q0 -16 14 -16
q191 3 301 8q70 3 70 -51q0 -57 -70 -54q-207 9 -301 9q-14 0 -14 -17l4 -53q3 -65 12 -119q9 -31 28.5 -48t68.5 -23l65 -9q41 -11 41 -53q0 -19 -11.5 -33t-33.5 -14h-549z" />
    <glyph glyph-name="brokenbar" unicode="&#xa6;" horiz-adv-x="614" 
d="M246 1575q0 63 61 63q28 0 45 -16.5t17 -46.5v-723q0 -30 -17 -47t-45 -17q-61 0 -61 64v723zM369 -346q0 -30 -17 -47t-45 -17q-61 0 -61 64v743q0 64 61 64q28 0 45 -17t17 -47v-743z" />
    <glyph glyph-name="section" unicode="&#xa7;" horiz-adv-x="1105" 
d="M96 643q0 175 158 295q16 9 2 23q-113 89 -113 251q0 144 109.5 239t306.5 95q185 0 305 -93.5t125 -229.5q1 -50 -22.5 -75.5t-61.5 -25.5q-34 0 -59.5 22t-32.5 66q-14 110 -79.5 171t-174.5 61q-102 0 -162.5 -52.5t-60.5 -144.5q0 -65 37.5 -113t97 -78t132 -56
t145 -57t132 -70.5t97 -106t37.5 -154.5q0 -170 -152 -288q-7 -4 -7.5 -11.5t5.5 -11.5q129 -98 129 -258q0 -142 -111.5 -238t-312.5 -96q-198 0 -322.5 93.5t-129.5 230.5q-1 50 22.5 75t61.5 25q34 0 59.5 -22t32.5 -66q14 -111 83.5 -171t192.5 -60q105 0 168.5 52.5
t63.5 143.5q0 65 -38.5 113t-100.5 78t-137 56t-149.5 57t-136.5 70.5t-100.5 106t-38.5 154.5zM270 682q0 -46 20 -83.5t49.5 -62t78.5 -48t91 -38.5t104 -36.5t102 -38.5q11 -6 24 4q50 38 75.5 83t25.5 109q0 46 -20 84t-49.5 63t-78 49t-90.5 39t-103 36.5t-100 38.5
q-14 6 -22 -2q-54 -39 -80.5 -85t-26.5 -112z" />
    <glyph glyph-name="dieresis" unicode="&#xa8;" horiz-adv-x="700" 
d="M514 1124q-54 0 -88.5 33t-34.5 84q0 50 34.5 83.5t88.5 33.5q52 0 87.5 -33.5t35.5 -83.5q0 -51 -35 -84t-88 -33zM186 1124q-54 0 -88.5 33t-34.5 84q0 50 34.5 83.5t88.5 33.5q52 0 86.5 -33.5t34.5 -83.5q0 -51 -34 -84t-87 -33z" />
    <glyph glyph-name="copyright" unicode="&#xa9;" horiz-adv-x="1613" 
d="M831 330q-168 0 -269 108.5t-101 282.5q0 164 104.5 278.5t261.5 114.5q118 0 195.5 -60t89.5 -128q7 -40 -10.5 -63t-48.5 -23q-55 0 -68 61q-22 115 -151 115q-94 0 -150.5 -76t-56.5 -195q0 -136 68.5 -224.5t176.5 -88.5q125 0 187 82q22 26 48 12.5t11 -49.5
q-23 -55 -101.5 -101t-185.5 -46zM807 1360q-191 0 -334.5 -85t-217 -230t-73.5 -328t73.5 -327.5t217 -229t334.5 -84.5t334.5 84.5t217 229t73.5 327.5t-73.5 328t-217 230t-334.5 85zM74 717q0 156 52.5 291.5t146.5 234t232 155t302 56.5t302 -56.5t232 -155t146.5 -234
t52.5 -291.5t-52.5 -291.5t-146.5 -234t-232 -155t-302 -56.5t-302 56.5t-232 155t-146.5 234t-52.5 291.5z" />
    <glyph glyph-name="ordfeminine" unicode="&#xaa;" horiz-adv-x="817" 
d="M307 829q-86 0 -138 38.5t-52 109.5q0 186 338 207q37 3 47 10.5t10 32.5q2 71 -29 107t-102 36q-52 0 -86 -23t-39 -59q-5 -53 -63 -53q-22 0 -37 13t-15 40q1 73 76.5 119.5t179.5 46.5q122 0 188 -56.5t66 -172.5v-215q0 -56 9.5 -74t31.5 -18q9 0 24 8t23 8
q19 0 19 -35q-2 -28 -34.5 -49t-78.5 -21q-87 0 -110 82q-4 13 -13 13q-3 0 -14 -11q-72 -84 -201 -84zM162 592q-56 0 -56 49q0 22 14.5 35.5t41.5 13.5h532q27 0 42.5 -13.5t15.5 -35.5q0 -49 -58 -49h-532zM352 911q66 0 112.5 41.5t49.5 112.5q0 27 -7 40t-26 13
q-53 0 -100 -11t-83 -41t-36 -75q0 -40 25 -60t65 -20z" />
    <glyph glyph-name="guillemotleft" unicode="&#xab;" horiz-adv-x="966" 
d="M82 475q0 28 41 66l334 319q15 14 33 15t30 -11q22 -19 -2 -59l-248 -307q-12 -18 -12 -23t12 -20l248 -308q24 -39 2 -61q-12 -12 -30 -10.5t-33 16.5l-334 320q-41 38 -41 63zM406 475q0 29 40 66l334 319q15 14 33.5 15t30.5 -11q22 -19 -2 -59l-248 -307
q-12 -18 -12 -23t12 -20l248 -308q24 -39 2 -61q-12 -12 -30.5 -10.5t-33.5 16.5l-334 320q-40 37 -40 63z" />
    <glyph glyph-name="logicalnot" unicode="&#xac;" 
d="M981 225q-23 0 -39 14.5t-16 39.5v333q0 17 -17 17h-735q-25 0 -39 15.5t-14 37.5q0 23 14 38t39 15h805q23 0 39 -14t16 -39v-403q0 -25 -15.5 -39.5t-37.5 -14.5z" />
    <glyph glyph-name="uni00AD" unicode="&#xad;" horiz-adv-x="907" 
d="M147 500q-55 0 -55 53t55 53h611q57 0 57 -53t-57 -53h-611z" />
    <glyph glyph-name="registered" unicode="&#xae;" horiz-adv-x="944" 
d="M301 846q-22 0 -22 20q0 19 20 25l14 4q22 4 27 14q6 10 6 47v222q0 31 -6 43q-1 2 -1.5 3.5t-1.5 3t-2 2l-3 1.5l-3 1.5t-3.5 1t-4 1t-5 1.5t-5.5 1l-12 4q-20 7 -20 25q0 22 22 22h51q29 0 69.5 3t61.5 3q166 0 166 -123q0 -74 -69 -118q-10 -5 -7 -13l60 -106
q13 -22 22 -30t23 -11q24 -5 24 -25q0 -22 -24 -22h-146q-22 0 -22 20q0 17 14 23l8 2q10 3 12.5 8t0.5 10.5t-8 16.5l-43 80q-9 16 -19 16q-1 0 -7.5 -1t-12.5 -1q-10 0 -13.5 -4t-3.5 -17v-57q0 -36 9 -44q6 -5 14 -7l6 -2q14 -5 14 -23q0 -20 -20 -20h-160zM457 1067
q92 0 92 94q0 38 -18 61t-54 23q-39 0 -39 -39v-123q0 -16 19 -16zM475 649q-182 0 -297 113t-115 291q0 174 115.5 287.5t296.5 113.5q179 0 292.5 -113.5t113.5 -287.5q0 -179 -113 -291.5t-293 -112.5zM475 713q146 0 241 95t95 247q0 151 -95 244.5t-241 93.5
q-153 0 -247.5 -93t-94.5 -245q0 -153 94.5 -247.5t247.5 -94.5z" />
    <glyph glyph-name="macron" unicode="&#xaf;" horiz-adv-x="675" 
d="M123 1194q-28 0 -44 17t-16 40q0 22 16.5 40t43.5 18h430q26 0 42.5 -18t16.5 -40q0 -23 -16 -40t-43 -17h-430z" />
    <glyph glyph-name="degree" unicode="&#xb0;" horiz-adv-x="745" 
d="M375 934q-120 0 -195.5 71.5t-75.5 188.5q0 113 75 186.5t192 73.5q120 0 195 -72t75 -186t-74.5 -188t-191.5 -74zM381 1006q65 0 101 46t36 130q0 89 -42.5 144.5t-110.5 55.5q-65 0 -100.5 -45.5t-35.5 -128.5q0 -91 42 -146.5t110 -55.5z" />
    <glyph glyph-name="plusminus" unicode="&#xb1;" 
d="M186 184q-25 0 -39 16t-14 38t14 37.5t39 15.5h332q19 0 19 16v246q0 18 -19 18h-332q-25 0 -39 15.5t-14 38.5q0 22 14 37.5t39 15.5h332q6 0 11.5 4.5t5.5 11.5v312q0 25 15.5 39t37.5 14t37.5 -14t15.5 -39v-312q0 -16 18 -16h332q25 0 39 -15t14 -38t-14 -38.5
t-39 -15.5h-332q-6 0 -11 -5.5t-5 -12.5v-246q0 -16 16 -16h332q25 0 39 -15t14 -38q0 -22 -14 -38t-39 -16h-805z" />
    <glyph glyph-name="uni00B2" unicode="&#xb2;" horiz-adv-x="657" 
d="M104 840q-71 0 -71 61q0 34 30 64l130 127q130 130 180.5 206.5t50.5 141.5q0 56 -30 86t-83 30q-59 0 -93.5 -36.5t-37.5 -100.5q-6 -61 -65 -61q-30 0 -48.5 18.5t-17.5 57.5q2 89 75.5 146.5t199.5 57.5q123 0 191.5 -53.5t68.5 -154.5q0 -37 -8 -69.5t-29.5 -65
t-42.5 -58t-64 -62t-75.5 -61.5t-94.5 -72l-77 -63q-8 -5 -6.5 -10.5t10.5 -5.5h213q53 0 74 20t51 96q15 31 43 31q45 0 38 -51l-28 -191q-3 -28 -27 -28h-457z" />
    <glyph glyph-name="uni00B3" unicode="&#xb3;" horiz-adv-x="647" 
d="M311 819q-133 0 -200.5 56t-67.5 133q0 32 17.5 49.5t45.5 17.5q52 0 64 -57q8 -55 42.5 -86t94.5 -31q64 0 100.5 38.5t36.5 104.5q0 70 -42 110t-113 40q-15 0 -36.5 -2t-33.5 -2q-49 0 -49 47q0 21 12.5 35t34.5 14q12 0 31.5 -3t34.5 -3q58 0 95.5 38t37.5 112
q0 59 -32 92.5t-85 33.5q-47 0 -77 -25.5t-36 -74.5q-12 -51 -61 -51q-30 0 -46 18.5t-13 51.5q8 69 71.5 116t177.5 47q122 0 191 -53t69 -135q0 -73 -44 -121t-109 -69q-19 -6 -19 -13q0 -6 21 -12q83 -13 131.5 -59.5t48.5 -128.5q0 -99 -81.5 -163.5t-211.5 -64.5z" />
    <glyph glyph-name="acute" unicode="&#xb4;" horiz-adv-x="536" 
d="M145 1077q-38 -22 -66.5 3.5t-2.5 56.5q93 117 256 280q50 44 101 18q37 -18 41 -55q3 -27 -19 -47q-125 -125 -310 -256z" />
    <glyph glyph-name="uni00B5" unicode="&#xb5;" horiz-adv-x="1138" 
d="M250 -410q-38 0 -65 21t-27 61v992q0 73 -18 96.5t-83 34.5q-30 7 -41.5 17t-11.5 26q0 15 17 30.5t51 26.5q93 41 194 41q88 0 88 -80q0 -29 -3.5 -119.5t-4.5 -148.5l-2 -236q0 -116 50 -175.5t136 -59.5q110 0 170 90t60 237v220q0 73 -18.5 96.5t-82.5 34.5
q-30 7 -41.5 17t-11.5 26q0 15 16.5 30.5t49.5 26.5q97 41 196 41q88 0 88 -80q0 -22 -4 -113t-4 -155v-340q0 -81 16.5 -114.5t55.5 -33.5q20 0 40 10.5t30 10.5q28 0 28 -33q0 -44 -50 -76t-114 -32q-63 0 -104.5 41t-56.5 124q-3 15 -13 15q-8 0 -18 -15
q-44 -64 -96 -103t-125 -46q-113 -14 -179 24q-7 2 -14.5 -3.5t-7.5 -16.5v-328q0 -40 -26.5 -61t-63.5 -21z" />
    <glyph glyph-name="paragraph" unicode="&#xb6;" horiz-adv-x="1499" 
d="M752 -80q0 -89 28 -119t111 -30t111 30t28 119v1256q0 89 -28 119t-111 30t-111 -30t-28 -119v-1256zM53 928q0 114 31.5 204t98 159t179.5 106t267 37h760q22 0 34.5 -14.5t12.5 -33.5q0 -42 -45 -53l-45 -8q-50 -6 -70 -22t-29 -46q-16 -60 -16 -165v-1090
q0 -104 16 -164q8 -30 28.5 -45.5t70.5 -21.5l45 -9q45 -11 45 -53q0 -19 -12.5 -33t-34.5 -14h-996q-23 0 -35 14t-12 33q0 43 43 53l45 9q51 6 72 21.5t29 45.5q16 60 16 164v401q0 17 -14 17q-219 5 -351.5 133t-132.5 375z" />
    <glyph glyph-name="periodcentered" unicode="&#xb7;" horiz-adv-x="393" 
d="M201 453q-52 0 -83.5 31t-31.5 81q0 48 32 80.5t83 32.5q52 0 84 -32.5t32 -80.5q0 -50 -32 -81t-84 -31z" />
    <glyph glyph-name="cedilla" unicode="&#xb8;" horiz-adv-x="524" 
d="M233 -440q-79 0 -141 30q-29 12 -29 35q0 16 12.5 27.5t30.5 7.5q79 -18 97 -18q51 0 78.5 25t27.5 69q0 40 -29.5 67t-72.5 27q-17 0 -38 -7t-32 -7q-21 0 -30 17t4 42l79 129l107 -2q-53 -78 -53 -94q0 -14 37 -14q86 0 133 -41t47 -109q0 -74 -60 -129t-168 -55z" />
    <glyph glyph-name="uni00B9" unicode="&#xb9;" horiz-adv-x="485" 
d="M92 840q-35 0 -35 32q0 31 29 39l41 7q34 6 45.5 25.5t11.5 80.5v379q0 68 -18 84.5t-80 13.5q-37 10 -37 35q0 26 45 49q104 53 182 53q62 0 62 -69q0 -17 -3 -75.5t-3 -104.5v-365q0 -60 12.5 -80.5t46.5 -25.5l37 -7q33 -8 33 -39q0 -32 -37 -32h-332z" />
    <glyph glyph-name="ordmasculine" unicode="&#xba;" horiz-adv-x="804" 
d="M403 827q-136 0 -225.5 88.5t-89.5 225.5q0 136 88.5 224.5t222.5 88.5t224 -87t90 -220q0 -139 -89.5 -229.5t-220.5 -90.5zM442 983q56 38 78.5 97.5t7.5 127.5q-14 71 -62.5 98.5t-107.5 -6.5q-57 -34 -78.5 -96t-5.5 -131q14 -72 61.5 -98.5t106.5 8.5zM143 592
q-55 0 -55 49t55 49h519q55 0 55 -49t-55 -49h-519z" />
    <glyph glyph-name="guillemotright" unicode="&#xbb;" horiz-adv-x="966" 
d="M885 475q0 -25 -41 -63l-334 -320q-15 -15 -33.5 -16.5t-30.5 10.5q-21 21 3 61l247 308q13 16 13 20q0 3 -13 23l-247 307q-24 40 -3 59q12 12 30.5 11t33.5 -15l334 -319q41 -38 41 -66zM561 475q0 -25 -41 -63l-334 -320q-15 -15 -33 -16.5t-30 10.5q-22 22 2 61
l248 308q12 15 12 20t-12 23l-248 307q-24 40 -2 59q12 12 30 11t33 -15l334 -319q41 -38 41 -66z" />
    <glyph glyph-name="onequarter" unicode="&#xbc;" horiz-adv-x="1601" 
d="M92 655q-35 0 -35 33q0 31 29 39l41 6q34 6 45.5 26t11.5 81v379q0 68 -18 84.5t-80 13.5q-37 10 -37 35q0 26 45 49q104 53 182 53q62 0 62 -70q0 -17 -3 -75.5t-3 -104.5v-364q0 -61 12.5 -81.5t46.5 -25.5l37 -6q33 -8 33 -39q0 -14 -9 -23.5t-28 -9.5h-332zM319 -20
q-29 0 -39 21.5t7 49.5l770 1303q12 21 22.5 30t28.5 9q29 0 39.5 -22t-6.5 -50l-770 -1303q-21 -38 -52 -38zM1200 0q-35 0 -35 33q0 31 29 39l31 6q34 6 45.5 24.5t11.5 71.5v37q0 10 -12 10h-281q-35 0 -44 24.5t13 47.5l355 473q23 33 63 33q23 0 38.5 -15.5t15.5 -46.5
v-407q0 -13 12 -13q21 0 47.5 1t38.5 1q51 0 51 -49t-51 -49q-16 0 -42 1t-42 1q-12 0 -12 -12v-35q0 -56 11 -73t48 -25l29 -6q28 -10 28 -39q0 -33 -32 -33h-316zM1272 317q12 0 12 11v264q0 5 -2.5 7.5t-6 1.5t-7.5 -7l-191 -264q-5 -4 -3 -8.5t9 -4.5h189z" />
    <glyph glyph-name="onehalf" unicode="&#xbd;" horiz-adv-x="1599" 
d="M92 655q-35 0 -35 33q0 31 29 39l41 6q34 6 45.5 26t11.5 81v379q0 68 -18 84.5t-80 13.5q-37 10 -37 35q0 26 45 49q104 53 182 53q62 0 62 -70q0 -17 -3 -75.5t-3 -104.5v-364q0 -61 12.5 -81.5t46.5 -25.5l37 -6q33 -8 33 -39q0 -14 -9 -23.5t-28 -9.5h-332zM319 -20
q-29 0 -39 21.5t7 49.5l770 1303q12 21 22.5 30t28.5 9q29 0 39.5 -22t-6.5 -50l-770 -1303q-21 -38 -52 -38zM1047 0q-72 0 -72 61q0 33 31 64l129 127q130 130 180.5 206.5t50.5 141.5q0 56 -30 86.5t-83 30.5q-59 0 -93.5 -36.5t-37.5 -100.5q-6 -62 -65 -62
q-30 0 -48.5 18.5t-17.5 57.5q2 89 75.5 147t199.5 58q123 0 191.5 -53.5t68.5 -155.5q0 -37 -8 -69t-29.5 -65t-42 -58t-64 -61.5t-75.5 -61.5t-95 -72l-77 -64q-8 -5 -6.5 -10.5t10.5 -5.5h213q53 0 74 20.5t51 96.5q15 30 43 30q22 0 32 -14t7 -37l-29 -190
q-3 -29 -27 -29h-456z" />
    <glyph glyph-name="threequarters" unicode="&#xbe;" horiz-adv-x="1763" 
d="M311 635q-133 0 -200.5 55.5t-67.5 132.5q0 32 17.5 50t45.5 18q52 0 64 -57q8 -55 42.5 -86t94.5 -31q64 0 100.5 38.5t36.5 104.5q0 70 -42 110t-113 40q-15 0 -36.5 -2t-33.5 -2q-49 0 -49 47q0 21 12.5 35t34.5 14q12 0 31.5 -3t34.5 -3q58 0 95.5 37.5t37.5 111.5
q0 59 -32 93t-85 34q-47 0 -77 -25.5t-36 -74.5q-12 -51 -61 -51q-30 0 -46 18t-13 51q8 69 71.5 116.5t177.5 47.5q122 0 191 -53t69 -135q0 -73 -44 -121.5t-109 -69.5q-19 -6 -19 -12t21 -12q83 -13 131.5 -60t48.5 -129q0 -99 -81.5 -163t-211.5 -64zM481 -20
q-29 0 -39 21.5t7 49.5l770 1303q12 21 22.5 30t28.5 9q29 0 39.5 -22t-6.5 -50l-771 -1303q-21 -38 -51 -38zM1362 0q-35 0 -35 33q0 31 29 39l30 6q35 6 46.5 24.5t11.5 71.5v37q0 10 -12 10h-281q-35 0 -44 24.5t13 47.5l355 473q23 33 63 33q23 0 38 -15.5t15 -46.5
v-407q0 -13 13 -13q21 0 47.5 1t38.5 1q51 0 51 -49t-51 -49q-16 0 -42 1t-42 1q-13 0 -13 -12v-35q0 -56 11 -73t49 -25l28 -6q29 -10 29 -39q0 -33 -33 -33h-315zM1434 317q12 0 12 11v264q0 5 -2.5 7.5t-6 1.5t-7.5 -7l-191 -264q-5 -4 -3 -8.5t9 -4.5h189z" />
    <glyph glyph-name="questiondown" unicode="&#xbf;" horiz-adv-x="1001" 
d="M575 543q77 0 74 -94q0 -101 -33 -168t-106 -136q-12 -11 -44 -40.5t-41.5 -39l-33.5 -33.5t-31.5 -36t-22 -34.5t-19 -40t-9 -41.5t-4.5 -50q0 -87 59 -145t160 -58q113 0 175.5 67t62.5 181q6 98 84 98q43 0 67 -28t23 -84q-3 -149 -115 -245.5t-313 -96.5
q-181 0 -296.5 82.5t-115.5 238.5q0 49 13.5 93.5t30.5 74.5t50.5 64.5t55 51.5t63.5 48.5t58 44.5q71 58 101.5 111t37.5 137q14 78 69 78zM575 936q55 0 88 -33.5t33 -85.5t-33 -84.5t-88 -32.5t-88.5 32.5t-33.5 84.5t33.5 85.5t88.5 33.5z" />
    <glyph glyph-name="Agrave" unicode="&#xc0;" horiz-adv-x="1515" 
d="M57 0q-22 0 -33.5 15t-11.5 36q0 38 45 49l29 4q50 8 80 39t61 107l459 1153q20 51 74 51q48 0 71 -49l457 -1129q33 -85 60 -122.5t75 -44.5l39 -9q41 -11 41 -49q0 -21 -11.5 -36t-33.5 -15h-475q-22 0 -34.5 14.5t-12.5 34.5q0 43 45 51l37 4q77 10 74 60
q-3 58 -84 254q-8 18 -25 18q-103 4 -267.5 4t-264.5 -4q-21 0 -29 -20q-50 -129 -60 -158q-22 -69 -20 -102q6 -45 86 -54l33 -4q41 -8 41 -49q0 -20 -12.5 -34.5t-34.5 -14.5h-398zM500 537q217 -3 430 0q32 3 20 30l-215 568q-6 14 -14 14q-6 0 -8.5 -2.5t-5.5 -11.5
l-224 -566q-6 -17 -2 -23.5t19 -8.5zM891 1597q-71 43 -167.5 114.5t-158.5 127.5q-34 26 -21 70t53 60t89 -13q134 -120 281 -287q29 -32 -3 -63t-73 -9z" />
    <glyph glyph-name="Aacute" unicode="&#xc1;" horiz-adv-x="1515" 
d="M57 0q-22 0 -33.5 15t-11.5 36q0 38 45 49l29 4q50 8 80 39t61 107l459 1153q20 51 74 51q48 0 71 -49l457 -1129q33 -85 60 -122.5t75 -44.5l39 -9q41 -11 41 -49q0 -21 -11.5 -36t-33.5 -15h-475q-22 0 -34.5 14.5t-12.5 34.5q0 43 45 51l37 4q77 10 74 60
q-3 58 -84 254q-8 18 -25 18q-103 4 -267.5 4t-264.5 -4q-21 0 -29 -20q-50 -129 -60 -158q-22 -69 -20 -102q6 -45 86 -54l33 -4q41 -8 41 -49q0 -20 -12.5 -34.5t-34.5 -14.5h-398zM500 537q217 -3 430 0q32 3 20 30l-215 568q-6 14 -14 14q-6 0 -8.5 -2.5t-5.5 -11.5
l-224 -566q-6 -17 -2 -23.5t19 -8.5zM627 1595q-25 -13 -48.5 0t-28 35.5t10.5 42.5q81 88 293 283q44 33 87 11.5t49.5 -63t-21.5 -71.5q-78 -71 -342 -238z" />
    <glyph glyph-name="Acircumflex" unicode="&#xc2;" horiz-adv-x="1515" 
d="M57 0q-22 0 -33.5 15t-11.5 36q0 38 45 49l29 4q50 8 80 39t61 107l459 1153q20 51 74 51q48 0 71 -49l457 -1129q33 -85 60 -122.5t75 -44.5l39 -9q41 -11 41 -49q0 -21 -11.5 -36t-33.5 -15h-475q-22 0 -34.5 14.5t-12.5 34.5q0 43 45 51l37 4q77 10 74 60
q-3 58 -84 254q-8 18 -25 18q-103 4 -267.5 4t-264.5 -4q-21 0 -29 -20q-50 -129 -60 -158q-22 -69 -20 -102q6 -45 86 -54l33 -4q41 -8 41 -49q0 -20 -12.5 -34.5t-34.5 -14.5h-398zM500 537q217 -3 430 0q32 3 20 30l-215 568q-6 14 -14 14q-6 0 -8.5 -2.5t-5.5 -11.5
l-224 -566q-6 -17 -2 -23.5t19 -8.5zM487 1589q-20 0 -32.5 13t-12.5 32q0 15 13 31l194 254q19 26 33.5 33.5t36.5 7.5h86q22 0 35 -7.5t32 -35.5l193 -252q12 -15 12 -33q-2 -19 -16.5 -31t-36.5 -12q-21 0 -49 21l-211 190q-12 8 -19 8q-13 0 -24 -14l-184 -180
q-25 -25 -50 -25z" />
    <glyph glyph-name="Atilde" unicode="&#xc3;" horiz-adv-x="1515" 
d="M57 0q-22 0 -33.5 15t-11.5 36q0 38 45 49l29 4q50 8 80 39t61 107l459 1153q20 51 74 51q48 0 71 -49l457 -1129q33 -85 60 -122.5t75 -44.5l39 -9q41 -11 41 -49q0 -21 -11.5 -36t-33.5 -15h-475q-22 0 -34.5 14.5t-12.5 34.5q0 43 45 51l37 4q77 10 74 60
q-3 58 -84 254q-8 18 -25 18q-103 4 -267.5 4t-264.5 -4q-21 0 -29 -20q-50 -129 -60 -158q-22 -69 -20 -102q6 -45 86 -54l33 -4q41 -8 41 -49q0 -20 -12.5 -34.5t-34.5 -14.5h-398zM500 537q217 -3 430 0q32 3 20 30l-215 568q-6 14 -14 14q-6 0 -8.5 -2.5t-5.5 -11.5
l-224 -566q-6 -17 -2 -23.5t19 -8.5zM889 1640q-47 0 -135 48.5t-133 48.5q-34 0 -59.5 -14.5t-49.5 -36.5t-43 -31q-22 -11 -40 2t-11 39q21 79 81 133.5t140 54.5q41 0 88.5 -24t93 -48t80.5 -24q37 0 61 16.5t47 44t42 39.5q23 10 39.5 -4.5t11.5 -40.5
q-15 -80 -73.5 -141.5t-139.5 -61.5z" />
    <glyph glyph-name="Adieresis" unicode="&#xc4;" horiz-adv-x="1515" 
d="M57 0q-22 0 -33.5 15t-11.5 36q0 38 45 49l29 4q50 8 80 39t61 107l459 1153q20 51 74 51q48 0 71 -49l457 -1129q33 -85 60 -122.5t75 -44.5l39 -9q41 -11 41 -49q0 -21 -11.5 -36t-33.5 -15h-475q-22 0 -34.5 14.5t-12.5 34.5q0 43 45 51l37 4q77 10 74 60
q-3 58 -84 254q-8 18 -25 18q-103 4 -267.5 4t-264.5 -4q-21 0 -29 -20q-50 -129 -60 -158q-22 -69 -20 -102q6 -45 86 -54l33 -4q41 -8 41 -49q0 -20 -12.5 -34.5t-34.5 -14.5h-398zM500 537q217 -3 430 0q32 3 20 30l-215 568q-6 14 -14 14q-6 0 -8.5 -2.5t-5.5 -11.5
l-224 -566q-6 -17 -2 -23.5t19 -8.5zM932 1640q-57 0 -93 35t-36 88q0 56 36 91.5t93 35.5q58 0 95.5 -35.5t37.5 -91.5q0 -53 -37.5 -88t-95.5 -35zM584 1640q-57 0 -94 35t-37 88q0 55 37 91t94 36t94 -36t37 -91q0 -53 -37 -88t-94 -35z" />
    <glyph glyph-name="Aring" unicode="&#xc5;" horiz-adv-x="1515" 
d="M57 0q-22 0 -33.5 15t-11.5 36q0 38 45 49l29 4q50 8 80 39t61 107l459 1153q20 51 74 51q48 0 71 -49l457 -1129q33 -85 60 -122.5t75 -44.5l39 -9q41 -11 41 -49q0 -21 -11.5 -36t-33.5 -15h-475q-22 0 -34.5 14.5t-12.5 34.5q0 43 45 51l37 4q77 10 74 60
q-3 58 -84 254q-8 18 -25 18q-103 4 -267.5 4t-264.5 -4q-21 0 -29 -20q-50 -129 -60 -158q-22 -69 -20 -102q6 -45 86 -54l33 -4q41 -8 41 -49q0 -20 -12.5 -34.5t-34.5 -14.5h-398zM500 537q217 -3 430 0q32 3 20 30l-215 568q-6 14 -14 14q-6 0 -8.5 -2.5t-5.5 -11.5
l-224 -566q-6 -17 -2 -23.5t19 -8.5zM758 1577q-87 0 -147 53t-60 142q0 95 60 150.5t147 55.5q89 0 150 -54t61 -144q0 -94 -60.5 -148.5t-150.5 -54.5zM766 1655q34 0 57.5 29.5t22.5 82.5q0 60 -27.5 95.5t-66.5 35.5q-34 0 -57 -30.5t-23 -83.5q0 -60 27.5 -94.5
t66.5 -34.5z" />
    <glyph glyph-name="AE" unicode="&#xc6;" horiz-adv-x="1853" 
d="M737 0q-22 0 -33.5 14t-11.5 33q0 43 43 53q78 11 103 27.5t34 46.5q19 68 19 158v82q0 20 -23 24q-47 2 -174 2q-104 0 -202 -4q-22 -3 -29 -18q-37 -70 -76 -158q-29 -63 -29 -96q0 -26 17.5 -41t58.5 -21q39 -6 52.5 -18.5t13.5 -34.5q0 -20 -11 -34.5t-32 -14.5h-400
q-22 0 -33.5 15t-11.5 36q0 19 15.5 32t58.5 21q49 7 82.5 39t71.5 107q182 342 546 1030q4 10 4.5 17t-6.5 12.5t-14 8.5t-19.5 5.5t-22 3.5t-21.5 3t-19 3q-45 10 -45 53q0 19 12.5 33.5t34.5 14.5h959q24 0 34 -8.5t13 -28.5q45 -289 45 -314q0 -57 -55 -57q-47 0 -64 47
q-15 48 -24 74.5t-22 58t-25 47t-29.5 32.5t-38.5 24t-49 11.5t-64 4.5h-143q-77 0 -106 -30.5t-29 -116.5v-361q0 -21 7.5 -30t28.5 -9h136q63 0 83 35.5t27 124.5q6 39 47 39q19 0 33 -13t14 -38v-402q0 -23 -14 -36t-33 -13q-41 0 -47 39q-7 93 -27 127.5t-83 34.5h-136
q-21 0 -28.5 -8t-7.5 -29v-350q0 -65 5.5 -97.5t28.5 -53t57 -25t103 -4.5h133q110 0 155.5 54.5t90.5 229.5q6 25 22 37t35 12q27 0 43 -17t13 -44l-52 -346q-3 -19 -12.5 -27t-30.5 -8h-946zM543 551q0 -11 20 -14q43 -2 139 -2q115 0 160 2q11 1 16 3t9 8.5t4 18.5v613
q0 18 -8 18q-9 0 -17 -16q-25 -48 -99.5 -194t-137 -267.5t-84.5 -157.5q-2 -4 -2 -12z" />
    <glyph glyph-name="Ccedilla" unicode="&#xc7;" horiz-adv-x="1341" 
d="M715 -440q-84 0 -142 30q-28 10 -28 35q0 16 12 27.5t31 7.5q9 -2 24.5 -6t24.5 -6t22 -4t25 -2q52 0 79.5 25t27.5 69q0 40 -30.5 67t-74.5 27q-16 0 -37 -7t-33 -7q-20 0 -28 17t4 42l55 88q9 21 -12 25q-252 43 -406.5 239.5t-154.5 481.5q0 209 85 379t237.5 268
t342.5 98q116 0 216 -36t165 -93t102.5 -125t41.5 -135q2 -52 -21.5 -81.5t-68.5 -29.5q-85 0 -103 95q-27 132 -111 209t-219 77t-237 -74t-155.5 -202.5t-53.5 -292.5q0 -173 59.5 -313t176.5 -225t272 -85q220 0 352 160q26 31 39.5 40t32.5 9q27 0 38.5 -23t-5.5 -67
q-13 -33 -37.5 -67.5t-67 -73.5t-94 -69t-125.5 -50.5t-156 -21.5q-18 0 -24 -13q-5 -10 -14.5 -25t-13 -22t-3.5 -12q0 -14 37 -14q86 0 133 -41t47 -109q0 -74 -59.5 -129t-167.5 -55z" />
    <glyph glyph-name="Egrave" unicode="&#xc8;" horiz-adv-x="1251" 
d="M109 0q-22 0 -34 14t-12 33q0 43 43 53l46 9q50 6 69.5 21t28.5 44q18 64 18 166v754q0 94 -16 163q-9 30 -29 46t-71 22l-46 8q-43 10 -43 53q0 19 12.5 33.5t35.5 14.5h936q24 0 33.5 -8.5t11.5 -28.5l45 -297q6 -35 -10.5 -54.5t-45.5 -19.5q-44 0 -61 47
q-15 48 -24 74.5t-22 58t-25 47t-29.5 32.5t-38.5 24t-49 11.5t-64 4.5h-164q-77 0 -106 -30.5t-29 -116.5v-361q0 -21 7.5 -30t27.5 -9h153q64 0 85 36t26 124q3 19 18 29.5t32 9.5t30.5 -14.5t13.5 -36.5v-402q0 -23 -13.5 -36.5t-30.5 -13.5t-32 10.5t-18 29.5
q-5 92 -25.5 127t-85.5 35h-153q-20 0 -27.5 -8t-7.5 -29v-342q0 -43 2.5 -70.5t10.5 -50t20.5 -34.5t36 -20t52 -10.5t73.5 -2.5h151q58 0 94 11.5t64 46t46.5 85t41.5 141.5q9 37 39.5 48t55.5 -10t18 -62l-50 -334q-3 -19 -12.5 -27t-32.5 -8h-970zM758 1597
q-71 43 -167.5 114.5t-158.5 127.5q-34 26 -21 70t53 60t89 -13q134 -120 281 -287q29 -32 -3 -63t-73 -9z" />
    <glyph glyph-name="Eacute" unicode="&#xc9;" horiz-adv-x="1251" 
d="M109 0q-22 0 -34 14t-12 33q0 43 43 53l46 9q50 6 69.5 21t28.5 44q18 64 18 166v754q0 94 -16 163q-9 30 -29 46t-71 22l-46 8q-43 10 -43 53q0 19 12.5 33.5t35.5 14.5h936q24 0 33.5 -8.5t11.5 -28.5l45 -297q6 -35 -10.5 -54.5t-45.5 -19.5q-44 0 -61 47
q-15 48 -24 74.5t-22 58t-25 47t-29.5 32.5t-38.5 24t-49 11.5t-64 4.5h-164q-77 0 -106 -30.5t-29 -116.5v-361q0 -21 7.5 -30t27.5 -9h153q64 0 85 36t26 124q3 19 18 29.5t32 9.5t30.5 -14.5t13.5 -36.5v-402q0 -23 -13.5 -36.5t-30.5 -13.5t-32 10.5t-18 29.5
q-5 92 -25.5 127t-85.5 35h-153q-20 0 -27.5 -8t-7.5 -29v-342q0 -43 2.5 -70.5t10.5 -50t20.5 -34.5t36 -20t52 -10.5t73.5 -2.5h151q58 0 94 11.5t64 46t46.5 85t41.5 141.5q9 37 39.5 48t55.5 -10t18 -62l-50 -334q-3 -19 -12.5 -27t-32.5 -8h-970zM494 1595
q-25 -13 -48.5 0t-28 35.5t10.5 42.5q81 88 293 283q44 33 87 11.5t49.5 -63t-21.5 -71.5q-78 -71 -342 -238z" />
    <glyph glyph-name="Ecircumflex" unicode="&#xca;" horiz-adv-x="1251" 
d="M109 0q-22 0 -34 14t-12 33q0 43 43 53l46 9q50 6 69.5 21t28.5 44q18 64 18 166v754q0 94 -16 163q-9 30 -29 46t-71 22l-46 8q-43 10 -43 53q0 19 12.5 33.5t35.5 14.5h936q24 0 33.5 -8.5t11.5 -28.5l45 -297q6 -35 -10.5 -54.5t-45.5 -19.5q-44 0 -61 47
q-15 48 -24 74.5t-22 58t-25 47t-29.5 32.5t-38.5 24t-49 11.5t-64 4.5h-164q-77 0 -106 -30.5t-29 -116.5v-361q0 -21 7.5 -30t27.5 -9h153q64 0 85 36t26 124q3 19 18 29.5t32 9.5t30.5 -14.5t13.5 -36.5v-402q0 -23 -13.5 -36.5t-30.5 -13.5t-32 10.5t-18 29.5
q-5 92 -25.5 127t-85.5 35h-153q-20 0 -27.5 -8t-7.5 -29v-342q0 -43 2.5 -70.5t10.5 -50t20.5 -34.5t36 -20t52 -10.5t73.5 -2.5h151q58 0 94 11.5t64 46t46.5 85t41.5 141.5q9 37 39.5 48t55.5 -10t18 -62l-50 -334q-3 -19 -12.5 -27t-32.5 -8h-970zM352 1589
q-20 0 -32.5 13t-12.5 32q0 16 12 31l195 254q19 26 33.5 33.5t36.5 7.5h86q22 0 35 -7.5t32 -35.5l193 -252q12 -15 12 -33q-2 -19 -16.5 -31t-36.5 -12q-21 0 -49 21l-211 190q-12 8 -19 8q-14 0 -24 -14l-185 -180q-25 -25 -49 -25z" />
    <glyph glyph-name="Edieresis" unicode="&#xcb;" horiz-adv-x="1251" 
d="M109 0q-22 0 -34 14t-12 33q0 43 43 53l46 9q50 6 69.5 21t28.5 44q18 64 18 166v754q0 94 -16 163q-9 30 -29 46t-71 22l-46 8q-43 10 -43 53q0 19 12.5 33.5t35.5 14.5h936q24 0 33.5 -8.5t11.5 -28.5l45 -297q6 -35 -10.5 -54.5t-45.5 -19.5q-44 0 -61 47
q-15 48 -24 74.5t-22 58t-25 47t-29.5 32.5t-38.5 24t-49 11.5t-64 4.5h-164q-77 0 -106 -30.5t-29 -116.5v-361q0 -21 7.5 -30t27.5 -9h153q64 0 85 36t26 124q3 19 18 29.5t32 9.5t30.5 -14.5t13.5 -36.5v-402q0 -23 -13.5 -36.5t-30.5 -13.5t-32 10.5t-18 29.5
q-5 92 -25.5 127t-85.5 35h-153q-20 0 -27.5 -8t-7.5 -29v-342q0 -43 2.5 -70.5t10.5 -50t20.5 -34.5t36 -20t52 -10.5t73.5 -2.5h151q58 0 94 11.5t64 46t46.5 85t41.5 141.5q9 37 39.5 48t55.5 -10t18 -62l-50 -334q-3 -19 -12.5 -27t-32.5 -8h-970zM799 1640
q-57 0 -93 35t-36 88q0 56 36 91.5t93 35.5q58 0 95.5 -35.5t37.5 -91.5q0 -53 -37.5 -88t-95.5 -35zM451 1640q-57 0 -94.5 35t-37.5 88q0 55 37.5 91t94.5 36t94 -36t37 -91q0 -53 -37 -88t-94 -35z" />
    <glyph glyph-name="Igrave" unicode="&#xcc;" horiz-adv-x="737" 
d="M111 0q-23 0 -35.5 14t-12.5 33q0 43 43 53l46 9q51 6 71 21.5t29 45.5q16 72 16 164v754q0 91 -16 163q-7 30 -27.5 46t-72.5 22l-46 8q-43 10 -43 53q0 19 12.5 33.5t35.5 14.5h516q22 0 34.5 -14.5t12.5 -33.5q0 -42 -45 -53l-45 -8q-50 -6 -70 -22t-29 -46
q-16 -72 -16 -163v-754q0 -81 14 -160q8 -32 28.5 -48.5t72.5 -22.5l45 -9q45 -11 45 -53q0 -19 -12.5 -33t-34.5 -14h-516zM502 1597q-71 43 -167.5 114.5t-158.5 127.5q-34 26 -21 70t53 60t89 -13q134 -120 281 -287q29 -32 -3 -63t-73 -9z" />
    <glyph glyph-name="Iacute" unicode="&#xcd;" horiz-adv-x="737" 
d="M111 0q-23 0 -35.5 14t-12.5 33q0 43 43 53l46 9q51 6 71 21.5t29 45.5q16 72 16 164v754q0 91 -16 163q-7 30 -27.5 46t-72.5 22l-46 8q-43 10 -43 53q0 19 12.5 33.5t35.5 14.5h516q22 0 34.5 -14.5t12.5 -33.5q0 -42 -45 -53l-45 -8q-50 -6 -70 -22t-29 -46
q-16 -72 -16 -163v-754q0 -81 14 -160q8 -32 28.5 -48.5t72.5 -22.5l45 -9q45 -11 45 -53q0 -19 -12.5 -33t-34.5 -14h-516zM238 1595q-25 -13 -48.5 0t-28 35.5t10.5 42.5q81 88 293 283q44 33 87 11.5t49.5 -63t-21.5 -71.5q-78 -71 -342 -238z" />
    <glyph glyph-name="Icircumflex" unicode="&#xce;" horiz-adv-x="737" 
d="M111 0q-23 0 -35.5 14t-12.5 33q0 43 43 53l46 9q51 6 71 21.5t29 45.5q16 72 16 164v754q0 91 -16 163q-7 30 -27.5 46t-72.5 22l-46 8q-43 10 -43 53q0 19 12.5 33.5t35.5 14.5h516q22 0 34.5 -14.5t12.5 -33.5q0 -42 -45 -53l-45 -8q-50 -6 -70 -22t-29 -46
q-16 -72 -16 -163v-754q0 -81 14 -160q8 -32 28.5 -48.5t72.5 -22.5l45 -9q45 -11 45 -53q0 -19 -12.5 -33t-34.5 -14h-516zM96 1589q-20 0 -32.5 13t-12.5 32q0 16 12 31l195 254q19 26 33.5 33.5t36.5 7.5h86q22 0 35 -7.5t32 -35.5l193 -252q12 -15 12 -33
q-2 -19 -16.5 -31t-36.5 -12q-21 0 -49 21l-211 190q-12 8 -19 8q-14 0 -24 -14l-185 -180q-25 -25 -49 -25z" />
    <glyph glyph-name="Idieresis" unicode="&#xcf;" horiz-adv-x="737" 
d="M111 0q-23 0 -35.5 14t-12.5 33q0 43 43 53l46 9q51 6 71 21.5t29 45.5q16 72 16 164v754q0 91 -16 163q-7 30 -27.5 46t-72.5 22l-46 8q-43 10 -43 53q0 19 12.5 33.5t35.5 14.5h516q22 0 34.5 -14.5t12.5 -33.5q0 -42 -45 -53l-45 -8q-50 -6 -70 -22t-29 -46
q-16 -72 -16 -163v-754q0 -81 14 -160q8 -32 28.5 -48.5t72.5 -22.5l45 -9q45 -11 45 -53q0 -19 -12.5 -33t-34.5 -14h-516zM543 1640q-57 0 -93 35t-36 88q0 56 36 91.5t93 35.5q58 0 95.5 -35.5t37.5 -91.5q0 -53 -37.5 -88t-95.5 -35zM195 1640q-57 0 -94.5 35t-37.5 88
q0 55 37.5 91t94.5 36t94 -36t37 -91q0 -53 -37 -88t-94 -35z" />
    <glyph glyph-name="Eth" unicode="&#xd0;" horiz-adv-x="1521" 
d="M688 -18q-59 0 -183 9t-181 9h-215q-22 0 -34 14t-12 33q0 43 43 53l46 9q51 5 70 20.5t28 44.5q18 68 18 166v319q0 9 -6 15t-14 6h-125q-47 0 -47 51q-1 25 12 37t35 12h125q8 0 14 6t6 15v293q0 87 -16 159q-7 32 -27.5 49t-72.5 23l-46 8q-43 10 -43 53
q0 19 12.5 33.5t35.5 14.5h206q61 0 191 10t188 10q187 0 332 -54.5t236 -151.5t137.5 -225.5t46.5 -281.5q0 -164 -49.5 -302t-143.5 -240t-239.5 -159.5t-327.5 -57.5zM469 297q0 -54 10 -89.5t27.5 -57.5t53.5 -33.5t77 -15t108 -3.5q236 0 359 163t123 441
q0 191 -59.5 335t-181 226.5t-290.5 82.5q-61 0 -98 -5.5t-69 -23.5t-46 -54.5t-14 -95.5v-366q0 -21 20 -21h250q47 0 47 -49q0 -51 -47 -51h-250q-20 0 -20 -21v-362z" />
    <glyph glyph-name="Ntilde" unicode="&#xd1;" horiz-adv-x="1595" 
d="M111 0q-23 0 -35.5 14t-12.5 33q0 43 43 53l46 9q51 6 71 21.5t29 45.5q16 72 16 164v754q0 89 -16 161q-7 31 -27.5 47.5t-72.5 22.5l-46 8q-43 10 -43 53q0 19 12.5 33.5t35.5 14.5h237q27 0 47 -23l785 -1018q19 -23 34 -18.5t15 33.5v686q0 86 -17 163q-9 30 -29 46
t-71 22l-45 8q-43 10 -43 53q0 19 12 33.5t35 14.5h428q22 0 34.5 -14.5t12.5 -33.5q0 -42 -45 -53l-45 -8q-50 -6 -69.5 -22t-28.5 -46q-17 -77 -17 -163v-1045q0 -69 -59 -69q-20 0 -36.5 9.5t-39.5 35.5l-778 1015q-19 21 -34 16t-15 -32l2 -684q0 -83 14 -162
q8 -31 28.5 -47t72.5 -22l45 -9q45 -11 45 -53q0 -19 -12.5 -33t-34.5 -14h-428zM903 1640q-47 0 -135 48.5t-133 48.5q-34 0 -59.5 -14.5t-49.5 -36.5t-43 -31q-22 -11 -40 2t-11 39q21 79 81 133.5t140 54.5q41 0 88.5 -24t93 -48t80.5 -24q37 0 61 16.5t47 44t42 39.5
q23 10 39.5 -4.5t11.5 -40.5q-15 -80 -73.5 -141.5t-139.5 -61.5z" />
    <glyph glyph-name="Ograve" unicode="&#xd2;" horiz-adv-x="1509" 
d="M754 -20q-195 0 -350.5 92t-242.5 258t-87 377t88.5 382t244.5 268t349 97q147 0 273.5 -53.5t216 -148.5t140 -229.5t50.5 -291.5q0 -213 -88.5 -385t-244.5 -269t-349 -97zM776 106q197 0 317.5 159.5t120.5 418.5q0 102 -21 197.5t-62.5 176t-98.5 141t-134 94.5
t-165 34q-197 0 -317.5 -159t-120.5 -418q0 -173 57 -318.5t168 -235.5t256 -90zM885 1597q-71 43 -167.5 114.5t-158.5 127.5q-34 26 -21 70t53 60t89 -13q134 -120 281 -287q29 -32 -3 -63t-73 -9z" />
    <glyph glyph-name="Oacute" unicode="&#xd3;" horiz-adv-x="1509" 
d="M754 -20q-195 0 -350.5 92t-242.5 258t-87 377t88.5 382t244.5 268t349 97q147 0 273.5 -53.5t216 -148.5t140 -229.5t50.5 -291.5q0 -213 -88.5 -385t-244.5 -269t-349 -97zM776 106q197 0 317.5 159.5t120.5 418.5q0 102 -21 197.5t-62.5 176t-98.5 141t-134 94.5
t-165 34q-197 0 -317.5 -159t-120.5 -418q0 -173 57 -318.5t168 -235.5t256 -90zM623 1595q-25 -13 -48.5 0t-28 35.5t10.5 42.5q81 88 293 283q44 33 87 11.5t49.5 -63t-21.5 -71.5q-78 -71 -342 -238z" />
    <glyph glyph-name="Ocircumflex" unicode="&#xd4;" horiz-adv-x="1509" 
d="M754 -20q-195 0 -350.5 92t-242.5 258t-87 377t88.5 382t244.5 268t349 97q147 0 273.5 -53.5t216 -148.5t140 -229.5t50.5 -291.5q0 -213 -88.5 -385t-244.5 -269t-349 -97zM776 106q197 0 317.5 159.5t120.5 418.5q0 102 -21 197.5t-62.5 176t-98.5 141t-134 94.5
t-165 34q-197 0 -317.5 -159t-120.5 -418q0 -173 57 -318.5t168 -235.5t256 -90zM481 1589q-20 0 -32.5 13t-12.5 32q0 15 13 31l194 254q19 26 33.5 33.5t36.5 7.5h86q22 0 35 -7.5t32 -35.5l193 -252q12 -15 12 -33q-2 -19 -16.5 -31t-36.5 -12q-21 0 -49 21l-211 190
q-12 8 -19 8q-13 0 -24 -14l-185 -180q-25 -25 -49 -25z" />
    <glyph glyph-name="Otilde" unicode="&#xd5;" horiz-adv-x="1509" 
d="M754 -20q-195 0 -350.5 92t-242.5 258t-87 377t88.5 382t244.5 268t349 97q147 0 273.5 -53.5t216 -148.5t140 -229.5t50.5 -291.5q0 -213 -88.5 -385t-244.5 -269t-349 -97zM776 106q197 0 317.5 159.5t120.5 418.5q0 102 -21 197.5t-62.5 176t-98.5 141t-134 94.5
t-165 34q-197 0 -317.5 -159t-120.5 -418q0 -173 57 -318.5t168 -235.5t256 -90zM885 1640q-47 0 -136 48.5t-133 48.5q-34 0 -59 -14.5t-49 -36.5t-43 -31q-22 -11 -40 2t-11 39q21 79 81 133.5t140 54.5q41 0 88.5 -24t93 -48t80.5 -24q37 0 61 16.5t47 44t42 39.5
q23 10 39.5 -4.5t11.5 -40.5q-15 -80 -73.5 -141.5t-139.5 -61.5z" />
    <glyph glyph-name="Odieresis" unicode="&#xd6;" horiz-adv-x="1509" 
d="M754 -20q-195 0 -350.5 92t-242.5 258t-87 377t88.5 382t244.5 268t349 97q147 0 273.5 -53.5t216 -148.5t140 -229.5t50.5 -291.5q0 -213 -88.5 -385t-244.5 -269t-349 -97zM776 106q197 0 317.5 159.5t120.5 418.5q0 102 -21 197.5t-62.5 176t-98.5 141t-134 94.5
t-165 34q-197 0 -317.5 -159t-120.5 -418q0 -173 57 -318.5t168 -235.5t256 -90zM928 1640q-57 0 -93 35t-36 88q0 56 36 91.5t93 35.5q58 0 95.5 -35.5t37.5 -91.5q0 -53 -37.5 -88t-95.5 -35zM580 1640q-57 0 -94 35t-37 88q0 55 37 91t94 36t94 -36t37 -91q0 -53 -37 -88
t-94 -35z" />
    <glyph glyph-name="multiply" unicode="&#xd7;" 
d="M911 305q-14 -16 -34.5 -17t-40.5 17l-236 234q-4 6 -11.5 6t-10.5 -6l-236 -234q-20 -17 -40.5 -16t-35.5 16q-16 16 -17 36t17 40l236 235q4 4 4 11t-4 12l-236 235q-18 18 -17 38t17 36q15 15 35.5 16t40.5 -16l236 -233q3 -5 10.5 -5t11.5 5l236 235q34 32 75 0
q15 -16 16 -36t-16 -40l-235 -235q-4 -5 -4 -12t4 -11l235 -235q18 -20 17 -40t-17 -36z" />
    <glyph glyph-name="Oslash" unicode="&#xd8;" horiz-adv-x="1509" 
d="M754 -20q-233 0 -400 126q-17 13 -28 -4q-18 -21 -78 -94q-23 -26 -47 -31t-49 17q-53 46 -5 94q55 63 86 100q14 18 3 29q-162 202 -162 490q0 211 88.5 382t244.5 268t349 97q231 0 407 -131q17 -13 29 2l76 94q47 57 98 19q24 -19 26.5 -44.5t-20.5 -50.5
q-22 -25 -90 -106q-11 -14 -2 -29q156 -196 156 -477q0 -213 -88.5 -385t-244.5 -269t-349 -97zM776 106q197 0 317.5 159.5t120.5 418.5q0 190 -86 346q-5 11 -12.5 12t-15.5 -8q-104 -125 -316 -383t-315 -383q-13 -16 2 -28q124 -134 305 -134zM414 385q26 31 633 770
q12 15 0 31q-128 141 -314 141q-197 0 -317.5 -159t-120.5 -418q0 -206 90 -361q10 -23 29 -4z" />
    <glyph glyph-name="Ugrave" unicode="&#xd9;" horiz-adv-x="1572" 
d="M793 -20q-149 0 -256 41t-170 121.5t-92 188.5t-29 251v512q0 86 -17 163q-9 30 -29 46t-71 22l-45 8q-43 10 -43 53q0 19 12 33.5t35 14.5h514q23 0 36 -14.5t13 -33.5q0 -42 -45 -53l-45 -8q-52 -6 -72 -22.5t-28 -49.5q-15 -84 -15 -159v-486q0 -261 96 -380t285 -119
q111 0 187.5 35t120 105t61.5 162.5t18 221.5v461q0 98 -18 166q-7 28 -26.5 43.5t-69.5 21.5l-47 8q-43 11 -43 53q0 19 12.5 33.5t34.5 14.5h428q22 0 34.5 -14.5t12.5 -33.5q0 -42 -45 -53l-45 -8q-50 -6 -70 -22t-29 -46q-16 -72 -16 -163v-453q0 -124 -15 -221
t-52 -181.5t-96.5 -140t-153 -87t-217.5 -31.5zM963 1597q-71 43 -167.5 114.5t-158.5 127.5q-34 26 -21 70t53 60t89 -13q129 -115 280 -287q29 -32 -2.5 -63t-72.5 -9z" />
    <glyph glyph-name="Uacute" unicode="&#xda;" horiz-adv-x="1572" 
d="M793 -20q-149 0 -256 41t-170 121.5t-92 188.5t-29 251v512q0 86 -17 163q-9 30 -29 46t-71 22l-45 8q-43 10 -43 53q0 19 12 33.5t35 14.5h514q23 0 36 -14.5t13 -33.5q0 -42 -45 -53l-45 -8q-52 -6 -72 -22.5t-28 -49.5q-15 -84 -15 -159v-486q0 -261 96 -380t285 -119
q111 0 187.5 35t120 105t61.5 162.5t18 221.5v461q0 98 -18 166q-7 28 -26.5 43.5t-69.5 21.5l-47 8q-43 11 -43 53q0 19 12.5 33.5t34.5 14.5h428q22 0 34.5 -14.5t12.5 -33.5q0 -42 -45 -53l-45 -8q-50 -6 -70 -22t-29 -46q-16 -72 -16 -163v-453q0 -124 -15 -221
t-52 -181.5t-96.5 -140t-153 -87t-217.5 -31.5zM698 1595q-25 -13 -48 0t-27.5 35.5t10.5 42.5q81 88 293 283q44 33 86.5 11.5t49 -63t-21.5 -71.5q-78 -71 -342 -238z" />
    <glyph glyph-name="Ucircumflex" unicode="&#xdb;" horiz-adv-x="1572" 
d="M793 -20q-149 0 -256 41t-170 121.5t-92 188.5t-29 251v512q0 86 -17 163q-9 30 -29 46t-71 22l-45 8q-43 10 -43 53q0 19 12 33.5t35 14.5h514q23 0 36 -14.5t13 -33.5q0 -42 -45 -53l-45 -8q-52 -6 -72 -22.5t-28 -49.5q-15 -84 -15 -159v-486q0 -261 96 -380t285 -119
q111 0 187.5 35t120 105t61.5 162.5t18 221.5v461q0 98 -18 166q-7 28 -26.5 43.5t-69.5 21.5l-47 8q-43 11 -43 53q0 19 12.5 33.5t34.5 14.5h428q22 0 34.5 -14.5t12.5 -33.5q0 -42 -45 -53l-45 -8q-50 -6 -70 -22t-29 -46q-16 -72 -16 -163v-453q0 -124 -15 -221
t-52 -181.5t-96.5 -140t-153 -87t-217.5 -31.5zM559 1589q-20 0 -32.5 13t-12.5 32q0 16 12 31l195 254q19 26 33.5 33.5t36.5 7.5h86q22 0 35 -7.5t32 -35.5l193 -252q12 -15 12 -33q-2 -19 -16.5 -31t-36.5 -12q-21 0 -49 21l-211 190q-12 8 -19 8q-13 0 -24 -14
l-185 -180q-25 -25 -49 -25z" />
    <glyph glyph-name="Udieresis" unicode="&#xdc;" horiz-adv-x="1572" 
d="M793 -20q-149 0 -256 41t-170 121.5t-92 188.5t-29 251v512q0 86 -17 163q-9 30 -29 46t-71 22l-45 8q-43 10 -43 53q0 19 12 33.5t35 14.5h514q23 0 36 -14.5t13 -33.5q0 -42 -45 -53l-45 -8q-52 -6 -72 -22.5t-28 -49.5q-15 -84 -15 -159v-486q0 -261 96 -380t285 -119
q111 0 187.5 35t120 105t61.5 162.5t18 221.5v461q0 98 -18 166q-7 28 -26.5 43.5t-69.5 21.5l-47 8q-43 11 -43 53q0 19 12.5 33.5t34.5 14.5h428q22 0 34.5 -14.5t12.5 -33.5q0 -42 -45 -53l-45 -8q-50 -6 -70 -22t-29 -46q-16 -72 -16 -163v-453q0 -124 -15 -221
t-52 -181.5t-96.5 -140t-153 -87t-217.5 -31.5zM1006 1640q-57 0 -93 35t-36 88q0 56 36 91.5t93 35.5q58 0 95.5 -35.5t37.5 -91.5q0 -53 -37.5 -88t-95.5 -35zM657 1640q-57 0 -94 35t-37 88q0 55 37 91t94 36t94 -36t37 -91q0 -53 -37 -88t-94 -35z" />
    <glyph glyph-name="Yacute" unicode="&#xdd;" horiz-adv-x="1400" 
d="M434 0q-22 0 -34.5 14t-12.5 33q0 42 45 53l66 9q49 6 69.5 22t28.5 45q18 77 18 164v217q0 24 -12 43l-326 553q-61 103 -91 135t-83 39l-34 4q-45 8 -45 51q0 21 12 36.5t35 15.5h503q22 0 35 -15t13 -35q0 -43 -41 -51l-41 -6q-72 -8 -72 -51q0 -39 72 -170l196 -346
q7 -17 18.5 -17t18.5 15l207 354q55 95 59 145q6 62 -65 70l-49 6q-45 8 -45 51q0 21 11.5 35.5t33.5 14.5h407q22 0 33.5 -14.5t11.5 -35.5q0 -39 -45 -49l-24 -4q-49 -9 -80.5 -43t-87.5 -129l-312 -526q-12 -21 -12 -43v-250q0 -90 16 -162q10 -31 30.5 -47t70.5 -22
l65 -9q45 -11 45 -53q0 -19 -12.5 -33t-34.5 -14h-561zM600 1595q-25 -13 -48 0t-27.5 35.5t10.5 42.5q86 94 292 283q44 33 87 11.5t49.5 -63t-21.5 -71.5q-78 -71 -342 -238z" />
    <glyph glyph-name="Thorn" unicode="&#xde;" horiz-adv-x="1198" 
d="M111 0q-23 0 -35.5 14t-12.5 33q0 43 43 53l46 9q51 6 71 21.5t29 45.5q16 66 16 154v807q0 69 -16 118q-9 30 -29 47t-67 23l-47 8q-43 11 -43 53q0 19 12.5 33.5t34.5 14.5h516q23 0 35 -14.5t12 -33.5q0 -43 -43 -53l-45 -8q-51 -6 -73 -22t-32 -46q-10 -48 -10 -86
q0 -47 31 -47q20 0 85 2t85 2q132 0 230 -27.5t155 -78t84.5 -115t27.5 -143.5q0 -204 -147.5 -307t-435.5 -103q-119 0 -119 -35q0 -85 16 -135q9 -32 35.5 -49.5t81.5 -21.5l82 -11q33 -6 45 -18.5t12 -34.5q0 -49 -57 -49h-573zM580 459q203 0 289.5 71t86.5 224
q0 118 -75.5 194t-237.5 76q-85 0 -129.5 -23.5t-44.5 -82.5v-406q0 -32 24.5 -42.5t86.5 -10.5z" />
    <glyph glyph-name="germandbls" unicode="&#xdf;" horiz-adv-x="1286" 
d="M920 -20q-146 0 -236 74t-90 188q0 90 76 94q37 2 60.5 -16.5t23.5 -61.5q-4 -88 45.5 -132t113.5 -44q70 0 110 44.5t40 115.5q0 72 -47.5 121t-149.5 110q-52 31 -88 57t-72 62.5t-54.5 81.5t-18.5 98q0 50 20 99.5t49 89.5t57 79t47.5 84t18.5 90q-2 103 -71.5 163.5
t-200.5 60.5q-114 0 -184 -65t-70 -171q0 -59 16 -113.5t35 -89.5t35 -80t16 -85v-590q0 -71 11 -103q14 -36 80 -53q30 -17 30 -47q0 -19 -14 -30t-39 -11h-324q-36 0 -53.5 8.5t-17.5 34.5q0 36 53 51q32 3 49.5 13t26.5 30q10 25 10 105v506q0 29 -8 38t-35 9h-78
q-22 0 -35.5 13.5t-13.5 37.5q0 20 12 34t31 17l92 14q35 7 29 31q-2 8 -22.5 55.5t-34 100t-13.5 110.5q0 160 116 250t310 90q197 0 310.5 -91t113.5 -222q0 -51 -18.5 -99.5t-45 -86t-53 -73t-45 -75t-18.5 -76.5q0 -20 4.5 -37.5t17.5 -35t21.5 -28.5t33 -29t35 -25.5
t43 -28.5t42.5 -27q111 -75 151 -114q100 -97 100 -219q0 -131 -86 -216t-249 -85z" />
    <glyph glyph-name="agrave" unicode="&#xe0;" horiz-adv-x="1013" 
d="M338 -20q-120 0 -190 62t-70 163q0 130 120.5 207t360.5 94q57 4 71.5 15t14.5 48q11 246 -190 246q-87 0 -137.5 -39t-53.5 -100q-8 -78 -78 -78q-35 0 -58.5 21.5t-23.5 64.5q3 108 112.5 180t260.5 72q354 0 354 -354v-334q0 -86 17 -117t53 -31q21 0 41 10.5t29 10.5
q30 0 30 -33q0 -43 -48.5 -75.5t-114.5 -32.5t-105.5 36t-50.5 95q-7 22 -18 22q-8 0 -23 -20q-48 -59 -126.5 -96t-176.5 -37zM416 92q99 0 164.5 70t66.5 188q0 43 -8 60.5t-37 17.5q-56 0 -110.5 -10.5t-105 -32.5t-81.5 -63t-31 -95q0 -62 37.5 -98.5t104.5 -36.5z
M606 1079q-222 151 -317 248q-32 32 -11 74q20 38 62 41q37 3 70 -27q194 -194 266 -282q17 -20 9 -39.5t-30.5 -23.5t-48.5 9z" />
    <glyph glyph-name="aacute" unicode="&#xe1;" horiz-adv-x="1013" 
d="M338 -20q-120 0 -190 62t-70 163q0 130 120.5 207t360.5 94q57 4 71.5 15t14.5 48q11 246 -190 246q-87 0 -137.5 -39t-53.5 -100q-8 -78 -78 -78q-35 0 -58.5 21.5t-23.5 64.5q3 108 112.5 180t260.5 72q354 0 354 -354v-334q0 -86 17 -117t53 -31q21 0 41 10.5t29 10.5
q30 0 30 -33q0 -43 -48.5 -75.5t-114.5 -32.5t-105.5 36t-50.5 95q-7 22 -18 22q-8 0 -23 -20q-48 -59 -126.5 -96t-176.5 -37zM416 92q99 0 164.5 70t66.5 188q0 43 -8 60.5t-37 17.5q-56 0 -110.5 -10.5t-105 -32.5t-81.5 -63t-31 -95q0 -62 37.5 -98.5t104.5 -36.5z
M367 1077q-38 -22 -67 3.5t-3 56.5q93 117 256 280q50 44 101 18q37 -18 41 -55q3 -27 -19 -47q-127 -127 -309 -256z" />
    <glyph glyph-name="acircumflex" unicode="&#xe2;" horiz-adv-x="1013" 
d="M338 -20q-120 0 -190 62t-70 163q0 130 120.5 207t360.5 94q57 4 71.5 15t14.5 48q11 246 -190 246q-87 0 -137.5 -39t-53.5 -100q-8 -78 -78 -78q-35 0 -58.5 21.5t-23.5 64.5q3 108 112.5 180t260.5 72q354 0 354 -354v-334q0 -86 17 -117t53 -31q21 0 41 10.5t29 10.5
q30 0 30 -33q0 -43 -48.5 -75.5t-114.5 -32.5t-105.5 36t-50.5 95q-7 22 -18 22q-8 0 -23 -20q-48 -59 -126.5 -96t-176.5 -37zM416 92q99 0 164.5 70t66.5 188q0 43 -8 60.5t-37 17.5q-56 0 -110.5 -10.5t-105 -32.5t-81.5 -63t-31 -95q0 -62 37.5 -98.5t104.5 -36.5z
M236 1069q-18 0 -29.5 11.5t-11.5 27.5q0 11 12 31l182 262q17 26 32 33.5t36 7.5h53q20 0 33 -7.5t32 -33.5l179 -258q12 -18 12 -33q0 -18 -13 -29.5t-34 -11.5q-27 0 -49 25l-181 194q-10 10 -16 10q-9 0 -20 -14l-160 -188q-24 -27 -57 -27z" />
    <glyph glyph-name="atilde" unicode="&#xe3;" horiz-adv-x="1013" 
d="M338 -20q-120 0 -190 62t-70 163q0 130 120.5 207t360.5 94q57 4 71.5 15t14.5 48q11 246 -190 246q-87 0 -137.5 -39t-53.5 -100q-8 -78 -78 -78q-35 0 -58.5 21.5t-23.5 64.5q3 108 112.5 180t260.5 72q354 0 354 -354v-334q0 -86 17 -117t53 -31q21 0 41 10.5t29 10.5
q30 0 30 -33q0 -43 -48.5 -75.5t-114.5 -32.5t-105.5 36t-50.5 95q-7 22 -18 22q-8 0 -23 -20q-48 -59 -126.5 -96t-176.5 -37zM416 92q99 0 164.5 70t66.5 188q0 43 -8 60.5t-37 17.5q-56 0 -110.5 -10.5t-105 -32.5t-81.5 -63t-31 -95q0 -62 37.5 -98.5t104.5 -36.5z
M594 1122q-46 0 -120.5 47.5t-113.5 47.5q-32 0 -55.5 -15t-46 -37.5t-41.5 -31.5q-26 -6 -33 22q-12 20 4 57q81 144 191 144q42 0 113.5 -47t113.5 -47q33 0 56 15.5t46 41t46 37.5q25 3 28 -27q6 -5 8 -17.5t-2 -23.5q-29 -70 -78 -118t-116 -48z" />
    <glyph glyph-name="adieresis" unicode="&#xe4;" horiz-adv-x="1013" 
d="M338 -20q-120 0 -190 62t-70 163q0 130 120.5 207t360.5 94q57 4 71.5 15t14.5 48q11 246 -190 246q-87 0 -137.5 -39t-53.5 -100q-8 -78 -78 -78q-35 0 -58.5 21.5t-23.5 64.5q3 108 112.5 180t260.5 72q354 0 354 -354v-334q0 -86 17 -117t53 -31q21 0 41 10.5t29 10.5
q30 0 30 -33q0 -43 -48.5 -75.5t-114.5 -32.5t-105.5 36t-50.5 95q-7 22 -18 22q-8 0 -23 -20q-48 -59 -126.5 -96t-176.5 -37zM416 92q99 0 164.5 70t66.5 188q0 43 -8 60.5t-37 17.5q-56 0 -110.5 -10.5t-105 -32.5t-81.5 -63t-31 -95q0 -62 37.5 -98.5t104.5 -36.5z
M649 1124q-54 0 -88.5 33t-34.5 84q0 50 34.5 83.5t88.5 33.5q52 0 87.5 -33.5t35.5 -83.5q0 -51 -35 -84t-88 -33zM322 1124q-54 0 -88.5 33t-34.5 84q0 50 34.5 83.5t88.5 33.5q52 0 86 -33.5t34 -83.5q0 -51 -34 -84t-86 -33z" />
    <glyph glyph-name="aring" unicode="&#xe5;" horiz-adv-x="1013" 
d="M338 -20q-120 0 -190 62t-70 163q0 130 120.5 207t360.5 94q57 4 71.5 15t14.5 48q11 246 -190 246q-87 0 -137.5 -39t-53.5 -100q-8 -78 -78 -78q-35 0 -58.5 21.5t-23.5 64.5q3 108 112.5 180t260.5 72q354 0 354 -354v-334q0 -86 17 -117t53 -31q21 0 41 10.5t29 10.5
q30 0 30 -33q0 -43 -48.5 -75.5t-114.5 -32.5t-105.5 36t-50.5 95q-7 22 -18 22q-8 0 -23 -20q-48 -59 -126.5 -96t-176.5 -37zM416 92q99 0 164.5 70t66.5 188q0 43 -8 60.5t-37 17.5q-56 0 -110.5 -10.5t-105 -32.5t-81.5 -63t-31 -95q0 -62 37.5 -98.5t104.5 -36.5z
M483 1069q-87 0 -147 54t-60 143q0 93 60 148.5t147 55.5q90 0 150.5 -53.5t60.5 -144.5q0 -92 -61 -147.5t-150 -55.5zM492 1145q37 0 60 29.5t23 85.5q-1 65 -29 100t-69 35q-37 0 -60 -30t-22 -87q0 -64 28 -98.5t69 -34.5z" />
    <glyph glyph-name="ae" unicode="&#xe6;" horiz-adv-x="1499" 
d="M408 92q98 0 160 70t63 188q0 43 -8 60.5t-37 17.5q-54 0 -105.5 -10.5t-99.5 -32.5t-77.5 -63t-29.5 -95q0 -61 37 -98t97 -37zM78 205q0 130 118 207t347 94q57 4 71.5 15t14.5 48q11 246 -185 246q-80 0 -128.5 -39.5t-51.5 -99.5q-8 -78 -78 -78q-35 0 -58.5 21.5
t-23.5 64.5q3 108 106 180t245 72q181 0 264 -143q19 -22 39 -2q55 71 133.5 108t167.5 37q171 0 278 -110t107 -302q0 -47 -20 -65.5t-68 -18.5h-496q-39 0 -39 -37q2 -138 80 -218.5t215 -80.5q147 0 225 95q30 33 61 16.5t13 -59.5q-31 -69 -119.5 -122.5t-218.5 -53.5
q-126 0 -210 43.5t-140 134.5q-12 12 -16 12q-9 3 -21 -12q-42 -55 -83 -90.5t-108.5 -61.5t-150.5 -26q-118 0 -194 63t-76 162zM827 575q-1 -20 8 -29t31 -9h351q22 0 31 9t9 29q0 112 -57.5 176t-148.5 64q-95 0 -154 -66t-70 -174z" />
    <glyph glyph-name="ccedilla" unicode="&#xe7;" horiz-adv-x="929" 
d="M496 -440q-80 0 -142 30q-28 11 -28 35q0 16 12.5 27.5t30.5 7.5q9 -2 24.5 -6t24.5 -6t22 -4t25 -2q51 0 78.5 25t27.5 69q0 40 -29.5 67t-72.5 27q-17 0 -38 -7t-32 -7q-21 0 -30 17t4 42l59 92q6 16 -10 19q-171 28 -270 155t-99 314q0 132 58.5 242t164 174.5
t234.5 64.5q75 0 140.5 -22.5t107.5 -58t68.5 -74.5t33.5 -76q10 -49 -12.5 -77t-61.5 -28q-71 0 -84 78q-32 137 -188 137q-117 0 -186.5 -92.5t-69.5 -239.5q0 -166 85 -272.5t220 -106.5q78 0 138 26.5t92 70.5q17 22 43 22q22 0 32 -17t0 -46q-26 -61 -110 -115.5
t-199 -62.5q-11 -2 -20 -11q-33 -50 -33 -63q0 -14 37 -14q86 0 134 -41t48 -109q0 -74 -60 -129t-169 -55z" />
    <glyph glyph-name="egrave" unicode="&#xe8;" horiz-adv-x="952" 
d="M518 -20q-206 0 -335.5 128t-129.5 343q0 116 38 210t101.5 153t143.5 90.5t168 31.5q178 0 285.5 -109.5t107.5 -302.5q0 -47 -20 -65.5t-68 -18.5h-510q-39 0 -39 -37q1 -136 85.5 -217.5t221.5 -81.5q152 0 230 95q30 33 60.5 16.5t12.5 -59.5q-31 -69 -122 -122.5
t-230 -53.5zM670 537q41 0 41 38q0 113 -58.5 176.5t-156.5 63.5q-97 0 -158 -66t-72 -174q-2 -20 7 -29t32 -9h365zM614 1079q-222 151 -317 248q-32 32 -11 74q20 38 62 41q37 3 70 -27q194 -194 266 -282q17 -20 9 -39.5t-30.5 -23.5t-48.5 9z" />
    <glyph glyph-name="eacute" unicode="&#xe9;" horiz-adv-x="952" 
d="M518 -20q-206 0 -335.5 128t-129.5 343q0 116 38 210t101.5 153t143.5 90.5t168 31.5q178 0 285.5 -109.5t107.5 -302.5q0 -47 -20 -65.5t-68 -18.5h-510q-39 0 -39 -37q1 -136 85.5 -217.5t221.5 -81.5q152 0 230 95q30 33 60.5 16.5t12.5 -59.5q-31 -69 -122 -122.5
t-230 -53.5zM670 537q41 0 41 38q0 113 -58.5 176.5t-156.5 63.5q-97 0 -158 -66t-72 -174q-2 -20 7 -29t32 -9h365zM375 1077q-38 -22 -67 3.5t-3 56.5q93 117 256 280q50 44 101 18q37 -18 41 -55q3 -27 -19 -47q-127 -127 -309 -256z" />
    <glyph glyph-name="ecircumflex" unicode="&#xea;" horiz-adv-x="952" 
d="M518 -20q-206 0 -335.5 128t-129.5 343q0 116 38 210t101.5 153t143.5 90.5t168 31.5q178 0 285.5 -109.5t107.5 -302.5q0 -47 -20 -65.5t-68 -18.5h-510q-39 0 -39 -37q1 -136 85.5 -217.5t221.5 -81.5q152 0 230 95q30 33 60.5 16.5t12.5 -59.5q-31 -69 -122 -122.5
t-230 -53.5zM670 537q41 0 41 38q0 113 -58.5 176.5t-156.5 63.5q-97 0 -158 -66t-72 -174q-2 -20 7 -29t32 -9h365zM244 1069q-18 0 -29.5 11.5t-11.5 27.5q0 11 12 31l182 262q17 26 32 33.5t36 7.5h53q20 0 33.5 -7.5t32.5 -33.5l178 -258q12 -18 12 -33q0 -18 -13 -29.5
t-34 -11.5q-27 0 -49 25l-180 194q-10 10 -17 10q-9 0 -20 -14l-160 -188q-24 -27 -57 -27z" />
    <glyph glyph-name="edieresis" unicode="&#xeb;" horiz-adv-x="952" 
d="M518 -20q-206 0 -335.5 128t-129.5 343q0 116 38 210t101.5 153t143.5 90.5t168 31.5q178 0 285.5 -109.5t107.5 -302.5q0 -47 -20 -65.5t-68 -18.5h-510q-39 0 -39 -37q1 -136 85.5 -217.5t221.5 -81.5q152 0 230 95q30 33 60.5 16.5t12.5 -59.5q-31 -69 -122 -122.5
t-230 -53.5zM670 537q41 0 41 38q0 113 -58.5 176.5t-156.5 63.5q-97 0 -158 -66t-72 -174q-2 -20 7 -29t32 -9h365zM657 1124q-54 0 -88 33t-34 84q0 50 34.5 83.5t87.5 33.5q52 0 87.5 -33.5t35.5 -83.5q0 -51 -35 -84t-88 -33zM330 1124q-54 0 -88.5 33t-34.5 84
q0 50 34.5 83.5t88.5 33.5q52 0 86.5 -33.5t34.5 -83.5q0 -51 -34 -84t-87 -33z" />
    <glyph glyph-name="igrave" unicode="&#xec;" horiz-adv-x="565" 
d="M111 0q-52 0 -52 43q0 33 35 43l27 6q33 6 45.5 19t19.5 41q13 76 13 155v357q0 73 -19 96.5t-84 34.5q-51 13 -51 43q0 15 16.5 30.5t49.5 26.5q97 41 196 41q88 0 88 -80q0 -22 -4 -113t-4 -155v-281q0 -99 12 -155q5 -26 19 -40t45 -20l29 -6q34 -10 34 -43
q0 -43 -51 -43h-364zM385 1079q-222 151 -317 248q-33 33 -11 74q20 38 62 41q36 3 69 -27q200 -200 267 -282q17 -20 9 -39.5t-30.5 -23.5t-48.5 9z" />
    <glyph glyph-name="iacute" unicode="&#xed;" horiz-adv-x="565" 
d="M111 0q-52 0 -52 43q0 33 35 43l27 6q33 6 45.5 19t19.5 41q13 76 13 155v357q0 73 -19 96.5t-84 34.5q-51 13 -51 43q0 15 16.5 30.5t49.5 26.5q97 41 196 41q88 0 88 -80q0 -22 -4 -113t-4 -155v-281q0 -99 12 -155q5 -26 19 -40t45 -20l29 -6q34 -10 34 -43
q0 -43 -51 -43h-364zM147 1077q-38 -22 -66.5 3.5t-2.5 56.5q93 117 256 280q50 44 101 18q37 -18 41 -55q3 -27 -19 -47q-125 -125 -310 -256z" />
    <glyph glyph-name="icircumflex" unicode="&#xee;" horiz-adv-x="565" 
d="M111 0q-52 0 -52 43q0 33 35 43l27 6q33 6 45.5 19t19.5 41q13 76 13 155v357q0 73 -19 96.5t-84 34.5q-51 13 -51 43q0 15 16.5 30.5t49.5 26.5q97 41 196 41q88 0 88 -80q0 -22 -4 -113t-4 -155v-281q0 -99 12 -155q5 -26 19 -40t45 -20l29 -6q34 -10 34 -43
q0 -43 -51 -43h-364zM16 1069q-18 0 -29.5 11.5t-11.5 27.5q0 9 13 31l182 262q17 26 32 33.5t36 7.5h53q20 0 33 -7.5t32 -33.5l179 -258q12 -18 12 -33q0 -18 -13 -29.5t-34 -11.5q-27 0 -49 25l-181 194q-10 10 -16 10q-11 0 -21 -14l-159 -188q-24 -27 -58 -27z" />
    <glyph glyph-name="idieresis" unicode="&#xef;" horiz-adv-x="565" 
d="M111 0q-52 0 -52 43q0 33 35 43l27 6q33 6 45.5 19t19.5 41q13 76 13 155v357q0 73 -19 96.5t-84 34.5q-51 13 -51 43q0 15 16.5 30.5t49.5 26.5q97 41 196 41q88 0 88 -80q0 -22 -4 -113t-4 -155v-281q0 -99 12 -155q5 -26 19 -40t45 -20l29 -6q34 -10 34 -43
q0 -43 -51 -43h-364zM430 1124q-54 0 -88.5 33t-34.5 84q0 50 34.5 83.5t88.5 33.5q52 0 87.5 -33.5t35.5 -83.5q0 -51 -35 -84t-88 -33zM102 1124q-54 0 -88 33t-34 84q0 50 34.5 83.5t87.5 33.5q52 0 86.5 -33.5t34.5 -83.5q0 -51 -34 -84t-87 -33z" />
    <glyph glyph-name="eth" unicode="&#xf0;" horiz-adv-x="1083" 
d="M518 -18q-209 0 -337 134t-128 335q0 202 119 332t313 130q186 0 289 -114q9 -6 14 -6q17 0 11 20q-62 262 -213 408q-10 13 -21 2q-141 -88 -186 -115q-14 -12 -37 -12q-21 0 -34 15t-13 36q0 32 27 47q20 11 53 30t58.5 33.5t47.5 28.5q17 10 2 21q-125 96 -256 129
q-49 12 -49 49q0 47 49 47q19 0 39 -4q191 -36 346 -144q10 -5 21 0l170 103q21 12 39 12q21 0 35 -16t14 -37q0 -27 -27 -45q-136 -72 -143 -76q-16 -10 -2 -20q137 -132 208.5 -324.5t71.5 -427.5q0 -272 -125.5 -421.5t-355.5 -149.5zM541 98q114 0 183 92t69 242
q0 176 -80.5 276.5t-208.5 100.5q-111 0 -178.5 -89.5t-67.5 -242.5q0 -169 79.5 -274t203.5 -105z" />
    <glyph glyph-name="ntilde" unicode="&#xf1;" horiz-adv-x="1169" 
d="M111 0q-52 0 -52 43q0 33 35 43l27 6q33 7 46.5 21t18.5 41q13 61 13 153v357q0 73 -19 96.5t-84 34.5q-51 13 -51 43q0 15 16.5 30.5t49.5 26.5q97 41 192 41q84 0 84 -76q0 -15 -1 -34.5t-1 -24.5q0 -17 8 -17q7 0 21 17q107 133 288 133q146 0 225 -95.5t79 -254.5
v-277q0 -94 10 -153q7 -27 20.5 -41t46.5 -21l25 -4q37 -13 37 -45q0 -43 -51 -43h-351q-27 0 -39 12.5t-12 30.5q0 29 31 41l25 6q32 7 44 21t17 41q8 43 8 127v272q0 117 -48.5 181.5t-141.5 64.5q-104 0 -172 -76.5t-68 -208.5v-233q0 -84 6 -127q5 -25 18.5 -40
t45.5 -22l24 -6q29 -10 29 -41q0 -43 -49 -43h-350zM705 1122q-46 0 -120.5 47.5t-113.5 47.5q-32 0 -55.5 -15t-46 -37.5t-41.5 -31.5q-26 -6 -33 22q-12 20 4 57q81 144 190 144q42 0 114 -47t114 -47q33 0 55.5 15.5t45.5 41t46 37.5q26 3 29 -27q6 -5 8 -17.5t-2 -23.5
q-29 -70 -78 -118t-116 -48z" />
    <glyph glyph-name="ograve" unicode="&#xf2;" horiz-adv-x="1048" 
d="M526 -20q-206 0 -339.5 133.5t-133.5 343.5q0 206 133.5 342.5t335.5 136.5q205 0 339 -133.5t134 -337.5q0 -213 -133.5 -349t-335.5 -136zM537 100q119 0 186.5 88.5t67.5 245.5q0 167 -78 274t-201 107q-119 0 -186.5 -88.5t-67.5 -245.5q0 -168 78.5 -274.5
t200.5 -106.5zM647 1079q-222 151 -317 248q-32 32 -11 74q20 38 62 41q37 3 70 -27q194 -194 266 -282q17 -20 9 -39.5t-30.5 -23.5t-48.5 9z" />
    <glyph glyph-name="oacute" unicode="&#xf3;" horiz-adv-x="1048" 
d="M526 -20q-206 0 -339.5 133.5t-133.5 343.5q0 206 133.5 342.5t335.5 136.5q205 0 339 -133.5t134 -337.5q0 -213 -133.5 -349t-335.5 -136zM537 100q119 0 186.5 88.5t67.5 245.5q0 167 -78 274t-201 107q-119 0 -186.5 -88.5t-67.5 -245.5q0 -168 78.5 -274.5
t200.5 -106.5zM410 1077q-38 -22 -67 3.5t-3 56.5q93 117 256 280q50 44 101 18q37 -18 41 -55q3 -27 -19 -47q-127 -127 -309 -256z" />
    <glyph glyph-name="ocircumflex" unicode="&#xf4;" horiz-adv-x="1048" 
d="M526 -20q-206 0 -339.5 133.5t-133.5 343.5q0 206 133.5 342.5t335.5 136.5q205 0 339 -133.5t134 -337.5q0 -213 -133.5 -349t-335.5 -136zM537 100q119 0 186.5 88.5t67.5 245.5q0 167 -78 274t-201 107q-119 0 -186.5 -88.5t-67.5 -245.5q0 -168 78.5 -274.5
t200.5 -106.5zM279 1069q-18 0 -29.5 11.5t-11.5 27.5q0 11 12 31l182 262q17 26 32 33.5t36 7.5h53q20 0 33 -7.5t32 -33.5l179 -258q12 -18 12 -33q0 -18 -13 -29.5t-34 -11.5q-26 0 -49 25l-181 194q-10 10 -16 10q-10 0 -20 -14l-160 -188q-24 -27 -57 -27z" />
    <glyph glyph-name="otilde" unicode="&#xf5;" horiz-adv-x="1048" 
d="M526 -20q-206 0 -339.5 133.5t-133.5 343.5q0 206 133.5 342.5t335.5 136.5q205 0 339 -133.5t134 -337.5q0 -213 -133.5 -349t-335.5 -136zM537 100q119 0 186.5 88.5t67.5 245.5q0 167 -78 274t-201 107q-119 0 -186.5 -88.5t-67.5 -245.5q0 -168 78.5 -274.5
t200.5 -106.5zM637 1122q-46 0 -120.5 47.5t-113.5 47.5q-32 0 -55.5 -15t-46 -37.5t-41.5 -31.5q-26 -6 -33 22q-12 20 4 57q81 144 191 144q42 0 113.5 -47t113.5 -47q33 0 56 15.5t46 41t46 37.5q25 3 28 -27q6 -5 8 -17.5t-2 -23.5q-29 -70 -78 -118t-116 -48z" />
    <glyph glyph-name="odieresis" unicode="&#xf6;" horiz-adv-x="1048" 
d="M526 -20q-206 0 -339.5 133.5t-133.5 343.5q0 206 133.5 342.5t335.5 136.5q205 0 339 -133.5t134 -337.5q0 -213 -133.5 -349t-335.5 -136zM537 100q119 0 186.5 88.5t67.5 245.5q0 167 -78 274t-201 107q-119 0 -186.5 -88.5t-67.5 -245.5q0 -168 78.5 -274.5
t200.5 -106.5zM692 1124q-54 0 -88.5 33t-34.5 84q0 50 34.5 83.5t88.5 33.5q52 0 87.5 -33.5t35.5 -83.5q0 -51 -35 -84t-88 -33zM365 1124q-54 0 -88.5 33t-34.5 84q0 50 34.5 83.5t88.5 33.5q52 0 86 -33.5t34 -83.5q0 -51 -34 -84t-86 -33z" />
    <glyph glyph-name="divide" unicode="&#xf7;" 
d="M188 553q-25 0 -39 15.5t-14 37.5t14 37.5t39 15.5h801q25 0 40 -15t15 -38q0 -21 -15 -37t-40 -16h-801zM588 213q-49 0 -79 30t-30 76q0 45 30.5 76t78.5 31q49 0 79.5 -31t30.5 -76q0 -46 -30.5 -76t-79.5 -30zM588 784q-49 0 -79 31t-30 78q0 45 30 74.5t79 29.5
t79.5 -29.5t30.5 -74.5q0 -47 -30.5 -78t-79.5 -31z" />
    <glyph glyph-name="oslash" unicode="&#xf8;" horiz-adv-x="1048" 
d="M158 -23q-25 0 -36.5 14t-6.5 34q14 37 47 79q10 12 10 25q-119 128 -119 328q0 206 133.5 342.5t335.5 136.5q142 0 262 -76q11 -8 21 2q21 27 51 53q12 12 29.5 17t29.5 0q34 -6 44 -26.5t-13 -45.5l-55 -67q-10 -10 -2 -21q106 -125 106 -307q0 -213 -133.5 -349
t-335.5 -136q-141 0 -250 67q-11 6 -22 -2q-36 -40 -57 -55q-20 -13 -39 -13zM373 162q72 -62 164 -62q119 0 186.5 88.5t67.5 245.5q0 103 -46 176q-1 8 -8.5 7.5t-13.5 -9.5q-274 -325 -350 -426q-7 -10 0 -20zM307 293q1 -7 8 -8.5t11 4.5q133 152 356 434q9 12 2 22
q-76 70 -172 70q-119 0 -186.5 -88.5t-67.5 -245.5q0 -115 49 -188z" />
    <glyph glyph-name="ugrave" unicode="&#xf9;" horiz-adv-x="1138" 
d="M473 -20q-149 0 -232 86.5t-83 271.5v326q0 73 -18 96.5t-83 34.5q-30 7 -41.5 17t-11.5 26q0 15 17 30.5t51 26.5q93 41 194 41q88 0 88 -80q0 -22 -4 -113t-4 -155v-230q0 -119 49 -180t135 -61q110 0 170 90t60 237v220q0 73 -18.5 96.5t-82.5 34.5q-30 7 -41.5 17
t-11.5 26q0 15 16.5 30.5t49.5 26.5q97 41 196 41q88 0 88 -80q0 -22 -4 -113t-4 -155v-340q0 -81 16.5 -114.5t55.5 -33.5q20 0 40 10.5t30 10.5q28 0 28 -33q0 -44 -50 -76t-114 -32q-63 0 -104.5 41t-56.5 124q-3 15 -13 15q-8 0 -18 -15q-114 -165 -289 -165zM657 1079
q-222 151 -317 248q-32 32 -11 74q20 38 62 41q37 3 70 -27q194 -194 266 -282q17 -20 9 -39.5t-30.5 -23.5t-48.5 9z" />
    <glyph glyph-name="uacute" unicode="&#xfa;" horiz-adv-x="1138" 
d="M473 -20q-149 0 -232 86.5t-83 271.5v326q0 73 -18 96.5t-83 34.5q-30 7 -41.5 17t-11.5 26q0 15 17 30.5t51 26.5q93 41 194 41q88 0 88 -80q0 -22 -4 -113t-4 -155v-230q0 -119 49 -180t135 -61q110 0 170 90t60 237v220q0 73 -18.5 96.5t-82.5 34.5q-30 7 -41.5 17
t-11.5 26q0 15 16.5 30.5t49.5 26.5q97 41 196 41q88 0 88 -80q0 -22 -4 -113t-4 -155v-340q0 -81 16.5 -114.5t55.5 -33.5q20 0 40 10.5t30 10.5q28 0 28 -33q0 -44 -50 -76t-114 -32q-63 0 -104.5 41t-56.5 124q-3 15 -13 15q-8 0 -18 -15q-114 -165 -289 -165zM418 1077
q-38 -22 -67 3.5t-3 56.5q93 117 256 280q50 44 101 18q37 -18 41 -55q3 -27 -19 -47q-127 -127 -309 -256z" />
    <glyph glyph-name="ucircumflex" unicode="&#xfb;" horiz-adv-x="1138" 
d="M473 -20q-149 0 -232 86.5t-83 271.5v326q0 73 -18 96.5t-83 34.5q-30 7 -41.5 17t-11.5 26q0 15 17 30.5t51 26.5q93 41 194 41q88 0 88 -80q0 -22 -4 -113t-4 -155v-230q0 -119 49 -180t135 -61q110 0 170 90t60 237v220q0 73 -18.5 96.5t-82.5 34.5q-30 7 -41.5 17
t-11.5 26q0 15 16.5 30.5t49.5 26.5q97 41 196 41q88 0 88 -80q0 -22 -4 -113t-4 -155v-340q0 -81 16.5 -114.5t55.5 -33.5q20 0 40 10.5t30 10.5q28 0 28 -33q0 -44 -50 -76t-114 -32q-63 0 -104.5 41t-56.5 124q-3 15 -13 15q-8 0 -18 -15q-114 -165 -289 -165zM287 1069
q-18 0 -29.5 11.5t-11.5 27.5q0 11 12 31l182 262q17 26 32 33.5t36 7.5h53q20 0 33.5 -7.5t32.5 -33.5l178 -258q12 -18 12 -33q0 -18 -13 -29.5t-34 -11.5q-26 0 -49 25l-180 194q-10 10 -17 10q-10 0 -20 -14l-160 -188q-24 -27 -57 -27z" />
    <glyph glyph-name="udieresis" unicode="&#xfc;" horiz-adv-x="1138" 
d="M473 -20q-149 0 -232 86.5t-83 271.5v326q0 73 -18 96.5t-83 34.5q-30 7 -41.5 17t-11.5 26q0 15 17 30.5t51 26.5q93 41 194 41q88 0 88 -80q0 -22 -4 -113t-4 -155v-230q0 -119 49 -180t135 -61q110 0 170 90t60 237v220q0 73 -18.5 96.5t-82.5 34.5q-30 7 -41.5 17
t-11.5 26q0 15 16.5 30.5t49.5 26.5q97 41 196 41q88 0 88 -80q0 -22 -4 -113t-4 -155v-340q0 -81 16.5 -114.5t55.5 -33.5q20 0 40 10.5t30 10.5q28 0 28 -33q0 -44 -50 -76t-114 -32q-63 0 -104.5 41t-56.5 124q-3 15 -13 15q-8 0 -18 -15q-114 -165 -289 -165zM700 1124
q-54 0 -88 33t-34 84q0 50 34.5 83.5t87.5 33.5q52 0 87.5 -33.5t35.5 -83.5q0 -51 -35 -84t-88 -33zM373 1124q-54 0 -88.5 33t-34.5 84q0 50 34.5 83.5t88.5 33.5q52 0 86.5 -33.5t34.5 -83.5q0 -51 -34 -84t-87 -33z" />
    <glyph glyph-name="yacute" unicode="&#xfd;" horiz-adv-x="1116" 
d="M270 -481q-93 0 -148.5 48t-55.5 124q0 48 24 73t64 25q69 0 75 -70q0 -79 68 -79q48 0 82 41t76 155l43 113q16 45 0 78l-258 575q-39 88 -72 148q-20 31 -37 46.5t-45 20.5l-23 6q-43 15 -43 47q0 43 54 43h383q53 0 53 -41q0 -35 -35 -43l-26 -6q-56 -8 -56 -49
q0 -40 47 -147l150 -369q5 -16 16 -16q13 0 19 14l139 377q41 105 41 139q0 42 -51 49l-27 8q-22 6 -30.5 16t-8.5 27q0 41 51 41h303q54 0 54 -41q0 -31 -39 -47l-27 -6q-28 -7 -43.5 -21.5t-30.5 -41.5q-32 -54 -65 -140l-316 -800q-37 -93 -71.5 -152t-72 -90.5
t-74.5 -43t-87 -11.5zM459 1077q-38 -22 -67 3.5t-3 56.5q93 117 256 280q50 44 101 18q37 -18 41 -55q3 -27 -19 -47q-127 -127 -309 -256z" />
    <glyph glyph-name="thorn" unicode="&#xfe;" horiz-adv-x="1089" 
d="M76 -461q-51 0 -51 43q0 33 34 43l29 6q33 7 47 22.5t19 43.5q10 59 10 149v1432q0 72 -21 96t-88 33q-53 10 -53 43q0 34 68 59q95 37 202 37q46 0 67 -19.5t21 -66.5q0 -18 -4 -121.5t-4 -185.5v-324q0 -31 10 -34q4 0 17 10q105 131 270 131q175 0 281 -127t106 -336
q0 -223 -120.5 -358t-297.5 -135q-127 0 -231 71q-4 4 -14 4q-21 0 -21 -24v-183q0 -90 10 -149q6 -28 24.5 -44t57.5 -22l43 -6q43 -7 43 -45q0 -43 -51 -43h-403zM604 96q107 0 167 88t60 238q0 166 -68 277.5t-181 111.5q-108 0 -173 -92.5t-65 -259.5
q0 -160 66.5 -261.5t193.5 -101.5z" />
    <glyph glyph-name="ydieresis" unicode="&#xff;" horiz-adv-x="1116" 
d="M270 -481q-93 0 -148.5 48t-55.5 124q0 48 24 73t64 25q69 0 75 -70q0 -79 68 -79q48 0 82 41t76 155l43 113q16 45 0 78l-258 575q-39 88 -72 148q-20 31 -37 46.5t-45 20.5l-23 6q-43 15 -43 47q0 43 54 43h383q53 0 53 -41q0 -35 -35 -43l-26 -6q-56 -8 -56 -49
q0 -40 47 -147l150 -369q5 -16 16 -16q13 0 19 14l139 377q41 105 41 139q0 42 -51 49l-27 8q-22 6 -30.5 16t-8.5 27q0 41 51 41h303q54 0 54 -41q0 -31 -39 -47l-27 -6q-28 -7 -43.5 -21.5t-30.5 -41.5q-32 -54 -65 -140l-316 -800q-37 -93 -71.5 -152t-72 -90.5
t-74.5 -43t-87 -11.5zM741 1124q-54 0 -88.5 33t-34.5 84q0 50 34.5 83.5t88.5 33.5q52 0 87.5 -33.5t35.5 -83.5q0 -51 -35 -84t-88 -33zM414 1124q-54 0 -88.5 33t-34.5 84q0 50 34.5 83.5t88.5 33.5q52 0 86.5 -33.5t34.5 -83.5q0 -51 -34 -84t-87 -33z" />
    <glyph glyph-name="Amacron" unicode="&#x100;" horiz-adv-x="1515" 
d="M57 0q-22 0 -33.5 15t-11.5 36q0 38 45 49l29 4q50 8 80 39t61 107l459 1153q20 51 74 51q48 0 71 -49l457 -1129q33 -85 60 -122.5t75 -44.5l39 -9q41 -11 41 -49q0 -21 -11.5 -36t-33.5 -15h-475q-22 0 -34.5 14.5t-12.5 34.5q0 43 45 51l37 4q77 10 74 60
q-3 58 -84 254q-8 18 -25 18q-103 4 -267.5 4t-264.5 -4q-21 0 -29 -20q-50 -129 -60 -158q-22 -69 -20 -102q6 -45 86 -54l33 -4q41 -8 41 -49q0 -20 -12.5 -34.5t-34.5 -14.5h-398zM500 537q217 -3 430 0q32 3 20 30l-215 568q-6 14 -14 14q-6 0 -8.5 -2.5t-5.5 -11.5
l-224 -566q-6 -17 -2 -23.5t19 -8.5zM489 1706q-28 0 -43.5 17t-15.5 40t16 41.5t43 18.5h541q26 0 43 -19t17 -41q0 -23 -16.5 -40t-43.5 -17h-541z" />
    <glyph glyph-name="amacron" unicode="&#x101;" horiz-adv-x="1013" 
d="M338 -20q-120 0 -190 62t-70 163q0 130 120.5 207t360.5 94q57 4 71.5 15t14.5 48q11 246 -190 246q-87 0 -137.5 -39t-53.5 -100q-8 -78 -78 -78q-35 0 -58.5 21.5t-23.5 64.5q3 108 112.5 180t260.5 72q354 0 354 -354v-334q0 -86 17 -117t53 -31q21 0 41 10.5t29 10.5
q30 0 30 -33q0 -43 -48.5 -75.5t-114.5 -32.5t-105.5 36t-50.5 95q-7 22 -18 22q-8 0 -23 -20q-48 -59 -126.5 -96t-176.5 -37zM416 92q99 0 164.5 70t66.5 188q0 43 -8 60.5t-37 17.5q-56 0 -110.5 -10.5t-105 -32.5t-81.5 -63t-31 -95q0 -62 37.5 -98.5t104.5 -36.5z
M270 1194q-28 0 -43.5 17t-15.5 40q0 22 16 40t43 18h430q26 0 43 -18t17 -40q0 -23 -16.5 -40t-43.5 -17h-430z" />
    <glyph glyph-name="Abreve" unicode="&#x102;" horiz-adv-x="1515" 
d="M57 0q-22 0 -33.5 15t-11.5 36q0 38 45 49l29 4q50 8 80 39t61 107l459 1153q20 51 74 51q48 0 71 -49l457 -1129q33 -85 60 -122.5t75 -44.5l39 -9q41 -11 41 -49q0 -21 -11.5 -36t-33.5 -15h-475q-22 0 -34.5 14.5t-12.5 34.5q0 43 45 51l37 4q77 10 74 60
q-3 58 -84 254q-8 18 -25 18q-103 4 -267.5 4t-264.5 -4q-21 0 -29 -20q-50 -129 -60 -158q-22 -69 -20 -102q6 -45 86 -54l33 -4q41 -8 41 -49q0 -20 -12.5 -34.5t-34.5 -14.5h-398zM500 537q217 -3 430 0q32 3 20 30l-215 568q-6 14 -14 14q-6 0 -8.5 -2.5t-5.5 -11.5
l-224 -566q-6 -17 -2 -23.5t19 -8.5zM758 1597q-138 0 -218.5 76t-80.5 207q0 25 18.5 36.5t39.5 5.5t28 -24q17 -74 73 -116.5t140 -42.5q85 0 142.5 42t74.5 115q7 19 28 25t39.5 -5.5t18.5 -37.5q0 -129 -82 -205t-221 -76z" />
    <glyph glyph-name="abreve" unicode="&#x103;" horiz-adv-x="1013" 
d="M338 -20q-120 0 -190 62t-70 163q0 130 120.5 207t360.5 94q57 4 71.5 15t14.5 48q11 246 -190 246q-87 0 -137.5 -39t-53.5 -100q-8 -78 -78 -78q-35 0 -58.5 21.5t-23.5 64.5q3 108 112.5 180t260.5 72q354 0 354 -354v-334q0 -86 17 -117t53 -31q21 0 41 10.5t29 10.5
q30 0 30 -33q0 -43 -48.5 -75.5t-114.5 -32.5t-105.5 36t-50.5 95q-7 22 -18 22q-8 0 -23 -20q-48 -59 -126.5 -96t-176.5 -37zM416 92q99 0 164.5 70t66.5 188q0 43 -8 60.5t-37 17.5q-56 0 -110.5 -10.5t-105 -32.5t-81.5 -63t-31 -95q0 -62 37.5 -98.5t104.5 -36.5z
M485 1092q-126 0 -202 76.5t-76 191.5q0 38 35.5 43.5t46.5 -23.5q33 -159 196 -159q85 0 135 41t66 114q7 20 27 26t37.5 -6t17.5 -38q0 -115 -77.5 -190.5t-205.5 -75.5z" />
    <glyph glyph-name="Aogonek" unicode="&#x104;" horiz-adv-x="1515" 
d="M971 -403q-82 0 -129 43t-47 112q0 46 17 85.5t50.5 71.5t57 49t63.5 42q57 35 85 64.5t28 66.5q0 13 -3 31.5t-6.5 34.5t-11.5 40l-13 39t-15 41.5t-14 36.5t-14 35.5t-11 28.5q-8 18 -25 18q-136 4 -268 4q-128 0 -264 -4q-21 0 -29 -20q-50 -129 -60 -158
q-20 -59 -20 -94q0 -27 27 -42t92 -24q41 -8 41 -49q0 -20 -12.5 -34.5t-34.5 -14.5h-398q-22 0 -33.5 15t-11.5 36q0 38 45 49q73 10 105.5 40.5t64.5 109.5l459 1153q20 51 74 51q48 0 71 -49l457 -1129q33 -85 60 -122.5t75 -44.5q47 -11 63.5 -25t16.5 -33
q0 -21 -11.5 -36t-33.5 -15h-254q-86 0 -178 -63.5t-92 -131.5q0 -38 22.5 -61t59.5 -23q48 0 110 41q18 11 33 11t25 -10t10 -25q0 -33 -27 -60q-75 -81 -196 -81zM717 535q38 0 110.5 1t102.5 1q32 3 20 30l-215 568q-6 14 -14 14q-6 0 -8.5 -2.5t-5.5 -11.5l-224 -566
q-13 -29 17 -32q32 0 104.5 -1t112.5 -1z" />
    <glyph glyph-name="aogonek" unicode="&#x105;" horiz-adv-x="1017" 
d="M338 -20q-120 0 -190 62t-70 163q0 130 120.5 207t360.5 94q57 4 71.5 15t14.5 48q11 246 -190 246q-87 0 -137.5 -39t-53.5 -100q-8 -78 -78 -78q-35 0 -58.5 21.5t-23.5 64.5q3 108 112.5 180t260.5 72q354 0 354 -354v-334q0 -86 17 -117t53 -31q21 0 41 10.5t29 10.5
q30 0 30 -33q0 -45 -69 -86q-67 -43 -118.5 -98t-51.5 -109q0 -38 22 -60t60 -22q52 0 112 43q19 11 35 8q14 0 22.5 -8.5t8.5 -21.5q0 -15 -8 -31q-28 -49 -88.5 -77.5t-122.5 -28.5q-84 0 -131 40t-47 107q0 69 42.5 124.5t108.5 106.5q12 12 -4 19q-75 21 -90 117
q-7 22 -18 22q-8 0 -23 -20q-48 -59 -126.5 -96t-176.5 -37zM274 227q0 -62 37.5 -98.5t104.5 -36.5q99 0 164.5 70t66.5 188q0 43 -8 60.5t-37 17.5q-56 0 -110.5 -10.5t-105 -32.5t-81.5 -63t-31 -95z" />
    <glyph glyph-name="Cacute" unicode="&#x106;" horiz-adv-x="1341" 
d="M756 -20q-196 0 -352 92.5t-243 259t-87 377.5q0 209 85 379t237.5 268t342.5 98q116 0 216 -36t165 -93t102.5 -125t41.5 -135q2 -52 -21.5 -81.5t-68.5 -29.5q-85 0 -103 95q-27 132 -111 209t-219 77t-237 -74t-155.5 -202.5t-53.5 -292.5q0 -173 59.5 -313
t176.5 -225t272 -85q220 0 352 160q26 31 39.5 40t32.5 9q27 0 38.5 -23t-5.5 -67q-17 -43 -55.5 -89t-99 -91t-152.5 -73.5t-197 -28.5zM590 1595q-25 -13 -48.5 0t-28 35.5t10.5 42.5q81 88 293 283q44 33 87 11.5t49.5 -63t-21.5 -71.5q-78 -71 -342 -238z" />
    <glyph glyph-name="cacute" unicode="&#x107;" horiz-adv-x="929" 
d="M514 -20q-210 0 -335.5 131t-125.5 344q0 132 58.5 242t164 174.5t234.5 64.5q75 0 140.5 -22.5t107.5 -58t68.5 -74.5t33.5 -76q10 -49 -12.5 -77t-61.5 -28q-68 0 -81 78q-32 137 -191 137q-117 0 -186.5 -92.5t-69.5 -239.5q0 -166 85 -272.5t220 -106.5
q78 0 138 26.5t92 70.5q17 22 43 22q22 0 32 -17t0 -46q-29 -68 -125 -124t-229 -56zM379 1077q-38 -22 -67 3.5t-3 56.5q93 117 256 280q50 44 101 18q37 -18 41 -55q3 -27 -19 -47q-127 -127 -309 -256z" />
    <glyph glyph-name="Ccircumflex" unicode="&#x108;" horiz-adv-x="1341" 
d="M756 -20q-196 0 -352 92.5t-243 259t-87 377.5q0 209 85 379t237.5 268t342.5 98q116 0 216 -36t165 -93t102.5 -125t41.5 -135q2 -52 -21.5 -81.5t-68.5 -29.5q-85 0 -103 95q-27 132 -111 209t-219 77t-237 -74t-155.5 -202.5t-53.5 -292.5q0 -173 59.5 -313
t176.5 -225t272 -85q220 0 352 160q26 31 39.5 40t32.5 9q27 0 38.5 -23t-5.5 -67q-17 -43 -55.5 -89t-99 -91t-152.5 -73.5t-197 -28.5zM449 1589q-20 0 -33 13t-13 32q0 15 13 31l194 254q19 26 33.5 33.5t36.5 7.5h86q22 0 35.5 -7.5t32.5 -35.5l192 -252q12 -15 12 -33
q-2 -19 -16.5 -31t-36.5 -12q-21 0 -49 21l-211 190q-12 8 -18 8q-15 0 -25 -14l-184 -180q-25 -25 -49 -25z" />
    <glyph glyph-name="ccircumflex" unicode="&#x109;" horiz-adv-x="929" 
d="M514 -20q-210 0 -335.5 131t-125.5 344q0 132 58.5 242t164 174.5t234.5 64.5q75 0 140.5 -22.5t107.5 -58t68.5 -74.5t33.5 -76q10 -49 -12.5 -77t-61.5 -28q-68 0 -81 78q-32 137 -191 137q-117 0 -186.5 -92.5t-69.5 -239.5q0 -166 85 -272.5t220 -106.5
q78 0 138 26.5t92 70.5q17 22 43 22q22 0 32 -17t0 -46q-29 -68 -125 -124t-229 -56zM248 1069q-18 0 -29.5 11.5t-11.5 27.5q0 11 12 31l182 262q17 26 32 33.5t36 7.5h53q20 0 33.5 -7.5t32.5 -33.5l178 -258q12 -18 12 -33q0 -18 -13 -29.5t-34 -11.5q-27 0 -49 25
l-180 194q-10 10 -17 10q-9 0 -20 -14l-160 -188q-24 -27 -57 -27z" />
    <glyph glyph-name="Cdotaccent" unicode="&#x10a;" horiz-adv-x="1341" 
d="M756 -20q-196 0 -352 92.5t-243 259t-87 377.5q0 209 85 379t237.5 268t342.5 98q116 0 216 -36t165 -93t102.5 -125t41.5 -135q2 -52 -21.5 -81.5t-68.5 -29.5q-85 0 -103 95q-27 132 -111 209t-219 77t-237 -74t-155.5 -202.5t-53.5 -292.5q0 -173 59.5 -313
t176.5 -225t272 -85q220 0 352 160q26 31 39.5 40t32.5 9q27 0 38.5 -23t-5.5 -67q-17 -43 -55.5 -89t-99 -91t-152.5 -73.5t-197 -28.5zM723 1638q-57 0 -94 35.5t-37 89.5t37 89.5t94 35.5t94 -35.5t37 -89.5t-37 -89.5t-94 -35.5z" />
    <glyph glyph-name="cdotaccent" unicode="&#x10b;" horiz-adv-x="929" 
d="M514 -20q-210 0 -335.5 131t-125.5 344q0 132 58.5 242t164 174.5t234.5 64.5q75 0 140.5 -22.5t107.5 -58t68.5 -74.5t33.5 -76q10 -49 -12.5 -77t-61.5 -28q-68 0 -81 78q-32 137 -191 137q-117 0 -186.5 -92.5t-69.5 -239.5q0 -166 85 -272.5t220 -106.5
q78 0 138 26.5t92 70.5q17 22 43 22q22 0 32 -17t0 -46q-29 -68 -125 -124t-229 -56zM496 1122q-55 0 -92 34t-37 85q0 50 37 84.5t92 34.5t93 -34.5t38 -84.5q0 -51 -37.5 -85t-93.5 -34z" />
    <glyph glyph-name="Ccaron" unicode="&#x10c;" horiz-adv-x="1341" 
d="M756 -20q-196 0 -352 92.5t-243 259t-87 377.5q0 209 85 379t237.5 268t342.5 98q116 0 216 -36t165 -93t102.5 -125t41.5 -135q2 -52 -21.5 -81.5t-68.5 -29.5q-85 0 -103 95q-27 132 -111 209t-219 77t-237 -74t-155.5 -202.5t-53.5 -292.5q0 -173 59.5 -313
t176.5 -225t272 -85q220 0 352 160q26 31 39.5 40t32.5 9q27 0 38.5 -23t-5.5 -67q-17 -43 -55.5 -89t-99 -91t-152.5 -73.5t-197 -28.5zM680 1591q-21 0 -35 8t-35 35l-192 254q-12 15 -12 31q0 17 14.5 30t34.5 13q27 0 47 -20l194 -187q12 -12 25 -12q8 0 18 10l201 184
q30 23 53 23q20 0 32.5 -11t14.5 -30q0 -17 -12 -35l-194 -252q-19 -26 -32.5 -33.5t-35.5 -7.5h-86z" />
    <glyph glyph-name="ccaron" unicode="&#x10d;" horiz-adv-x="929" 
d="M514 -20q-210 0 -335.5 131t-125.5 344q0 132 58.5 242t164 174.5t234.5 64.5q75 0 140.5 -22.5t107.5 -58t68.5 -74.5t33.5 -76q10 -49 -12.5 -77t-61.5 -28q-68 0 -81 78q-32 137 -191 137q-117 0 -186.5 -92.5t-69.5 -239.5q0 -166 85 -272.5t220 -106.5
q78 0 138 26.5t92 70.5q17 22 43 22q22 0 32 -17t0 -46q-29 -68 -125 -124t-229 -56zM471 1067q-20 0 -33.5 8.5t-31.5 34.5l-183 258q-12 20 -12 31q0 18 12 30.5t33 12.5q26 0 51 -25l172 -192q15 -15 23 -15q5 0 16 11l164 190q25 29 55 29q19 0 32 -10.5t13 -28.5
q0 -15 -12 -33l-180 -262q-17 -24 -31 -31.5t-35 -7.5h-53z" />
    <glyph glyph-name="Dcaron" unicode="&#x10e;" horiz-adv-x="1521" 
d="M688 -18q-59 0 -183 9t-181 9h-215q-22 0 -34 14t-12 33q0 43 43 53l46 9q51 5 70 20.5t28 44.5q18 68 18 166v754q0 87 -16 159q-7 32 -27.5 49t-72.5 23l-46 8q-43 10 -43 53q0 19 12.5 33.5t35.5 14.5h206q61 0 191 10t188 10q187 0 332 -54.5t236 -151.5
t137.5 -225.5t46.5 -281.5q0 -164 -49.5 -302t-143.5 -240t-239.5 -159.5t-327.5 -57.5zM745 98q236 0 359 163t123 441q0 191 -59.5 335t-181 226.5t-290.5 82.5q-61 0 -98 -5.5t-69 -23.5t-46 -54.5t-14 -95.5v-870q0 -54 10 -89.5t27.5 -57.5t53.5 -33.5t77 -15t108 -3.5
zM684 1591q-21 0 -35 8t-35 35l-192 254q-12 15 -12 31q0 17 14.5 30t34.5 13q27 0 47 -20l194 -187q12 -12 25 -12q8 0 18 10l201 184q30 23 53 23q20 0 32.5 -11t14.5 -30q0 -17 -12 -35l-194 -252q-19 -26 -32.5 -33.5t-35.5 -7.5h-86z" />
    <glyph glyph-name="dcaron" unicode="&#x10f;" horiz-adv-x="1148" 
d="M457 -20q-188 0 -296 123.5t-108 342.5q0 137 48.5 247t146 176.5t229.5 66.5q67 0 127 -22t98 -58q19 -12 27 -6.5t8 22.5v406q0 72 -20.5 96t-87.5 33q-54 11 -54 43q0 34 68 59q95 37 203 37q46 0 67 -19.5t21 -66.5q0 -18 -4 -121.5t-4 -185.5v-905q0 -81 16 -114.5
t55 -33.5q20 0 40 10.5t30 10.5q29 0 29 -33q0 -43 -50 -75.5t-116 -32.5q-121 0 -156 143q-3 18 -12 18q-11 0 -21 -16q-96 -145 -284 -145zM510 102q105 0 170 90t65 240q0 174 -69.5 280.5t-194.5 106.5q-108 0 -165.5 -89t-57.5 -241q0 -166 67.5 -276.5t184.5 -110.5z
M1137 1186q-21 -21 -40.5 -7.5t-6.5 44.5q27 59 24 110q-1 18 -15 36.5t-28 40.5t-14 50q0 46 30 68t70 22q43 0 71.5 -29t28.5 -83q0 -60 -35 -132t-85 -120z" />
    <glyph glyph-name="Dcroat" unicode="&#x110;" horiz-adv-x="1521" 
d="M688 -18q-59 0 -183 9t-181 9h-215q-22 0 -34 14t-12 33q0 43 43 53l46 9q51 5 70 20.5t28 44.5q18 68 18 166v319q0 9 -6 15t-14 6h-125q-47 0 -47 51q-1 25 12 37t35 12h125q8 0 14 6t6 15v293q0 87 -16 159q-7 32 -27.5 49t-72.5 23l-46 8q-43 10 -43 53
q0 19 12.5 33.5t35.5 14.5h206q61 0 191 10t188 10q187 0 332 -54.5t236 -151.5t137.5 -225.5t46.5 -281.5q0 -164 -49.5 -302t-143.5 -240t-239.5 -159.5t-327.5 -57.5zM469 297q0 -54 10 -89.5t27.5 -57.5t53.5 -33.5t77 -15t108 -3.5q236 0 359 163t123 441
q0 191 -59.5 335t-181 226.5t-290.5 82.5q-61 0 -98 -5.5t-69 -23.5t-46 -54.5t-14 -95.5v-366q0 -21 20 -21h250q47 0 47 -49q0 -51 -47 -51h-250q-20 0 -20 -21v-362z" />
    <glyph glyph-name="dcroat" unicode="&#x111;" horiz-adv-x="1136" 
d="M457 -20q-188 0 -296 123.5t-108 342.5q0 137 48.5 247t146 176.5t229.5 66.5q67 0 127 -22t98 -58q19 -12 27 -6.5t8 22.5v205q0 15 -14 15q-13 0 -248 -5q-29 0 -45 15t-16 39q0 25 16 39t45 14q155 -6 244 -4q17 0 14 14q-2 45 -10 121q-4 50 -20.5 63t-73.5 19
q-54 11 -54 43q0 34 68 59q95 37 203 37q46 0 67 -19.5t21 -66.5q0 -15 -3 -101t-3 -153q0 -16 14 -16q28 0 98 4q29 0 45.5 -14t16.5 -39q0 -24 -16.5 -39t-45.5 -15q-17 1 -50 2.5t-50 2.5q-14 0 -14 -15v-829q0 -81 16 -114.5t55 -33.5q20 0 40 10.5t30 10.5q29 0 29 -33
q0 -43 -50 -75.5t-116 -32.5q-121 0 -156 143q-3 18 -12 18q-11 0 -21 -16q-96 -145 -284 -145zM258 489q0 -166 67.5 -276.5t184.5 -110.5q105 0 170 90t65 240q0 174 -69.5 280.5t-194.5 106.5q-108 0 -165.5 -89t-57.5 -241z" />
    <glyph glyph-name="Emacron" unicode="&#x112;" horiz-adv-x="1251" 
d="M109 0q-22 0 -34 14t-12 33q0 43 43 53l46 9q50 6 69.5 21t28.5 44q18 64 18 166v754q0 94 -16 163q-9 30 -29 46t-71 22l-46 8q-43 10 -43 53q0 19 12.5 33.5t35.5 14.5h936q24 0 33.5 -8.5t11.5 -28.5l45 -297q6 -35 -10.5 -54.5t-45.5 -19.5q-44 0 -61 47
q-15 48 -24 74.5t-22 58t-25 47t-29.5 32.5t-38.5 24t-49 11.5t-64 4.5h-164q-77 0 -106 -30.5t-29 -116.5v-361q0 -21 7.5 -30t27.5 -9h153q64 0 85 36t26 124q3 19 18 29.5t32 9.5t30.5 -14.5t13.5 -36.5v-402q0 -23 -13.5 -36.5t-30.5 -13.5t-32 10.5t-18 29.5
q-5 92 -25.5 127t-85.5 35h-153q-20 0 -27.5 -8t-7.5 -29v-342q0 -43 2.5 -70.5t10.5 -50t20.5 -34.5t36 -20t52 -10.5t73.5 -2.5h151q58 0 94 11.5t64 46t46.5 85t41.5 141.5q9 37 39.5 48t55.5 -10t18 -62l-50 -334q-3 -19 -12.5 -27t-32.5 -8h-970zM356 1706
q-28 0 -43.5 17t-15.5 40t16 41.5t43 18.5h541q26 0 42.5 -19t16.5 -41q0 -23 -16 -40t-43 -17h-541z" />
    <glyph glyph-name="emacron" unicode="&#x113;" horiz-adv-x="952" 
d="M518 -20q-206 0 -335.5 128t-129.5 343q0 116 38 210t101.5 153t143.5 90.5t168 31.5q178 0 285.5 -109.5t107.5 -302.5q0 -47 -20 -65.5t-68 -18.5h-510q-39 0 -39 -37q1 -136 85.5 -217.5t221.5 -81.5q152 0 230 95q30 33 60.5 16.5t12.5 -59.5q-31 -69 -122 -122.5
t-230 -53.5zM670 537q41 0 41 38q0 113 -58.5 176.5t-156.5 63.5q-97 0 -158 -66t-72 -174q-2 -20 7 -29t32 -9h365zM279 1194q-28 0 -44 17t-16 40q0 22 16.5 40t43.5 18h430q26 0 42.5 -18t16.5 -40q0 -23 -16 -40t-43 -17h-430z" />
    <glyph glyph-name="Ebreve" unicode="&#x114;" horiz-adv-x="1251" 
d="M109 0q-22 0 -34 14t-12 33q0 43 43 53l46 9q50 6 69.5 21t28.5 44q18 64 18 166v754q0 94 -16 163q-9 30 -29 46t-71 22l-46 8q-43 10 -43 53q0 19 12.5 33.5t35.5 14.5h936q24 0 33.5 -8.5t11.5 -28.5l45 -297q6 -35 -10.5 -54.5t-45.5 -19.5q-44 0 -61 47
q-15 48 -24 74.5t-22 58t-25 47t-29.5 32.5t-38.5 24t-49 11.5t-64 4.5h-164q-77 0 -106 -30.5t-29 -116.5v-361q0 -21 7.5 -30t27.5 -9h153q64 0 85 36t26 124q3 19 18 29.5t32 9.5t30.5 -14.5t13.5 -36.5v-402q0 -23 -13.5 -36.5t-30.5 -13.5t-32 10.5t-18 29.5
q-5 92 -25.5 127t-85.5 35h-153q-20 0 -27.5 -8t-7.5 -29v-342q0 -43 2.5 -70.5t10.5 -50t20.5 -34.5t36 -20t52 -10.5t73.5 -2.5h151q58 0 94 11.5t64 46t46.5 85t41.5 141.5q9 37 39.5 48t55.5 -10t18 -62l-50 -334q-3 -19 -12.5 -27t-32.5 -8h-970zM625 1597
q-138 0 -218.5 76t-80.5 207q0 25 18.5 36.5t39.5 5.5t28 -24q17 -74 73 -116.5t140 -42.5q85 0 142.5 42t74.5 115q7 19 28 25t39.5 -5.5t18.5 -37.5q0 -129 -82 -205t-221 -76z" />
    <glyph glyph-name="ebreve" unicode="&#x115;" horiz-adv-x="952" 
d="M518 -20q-206 0 -335.5 128t-129.5 343q0 116 38 210t101.5 153t143.5 90.5t168 31.5q178 0 285.5 -109.5t107.5 -302.5q0 -47 -20 -65.5t-68 -18.5h-510q-39 0 -39 -37q1 -136 85.5 -217.5t221.5 -81.5q152 0 230 95q30 33 60.5 16.5t12.5 -59.5q-31 -69 -122 -122.5
t-230 -53.5zM670 537q41 0 41 38q0 113 -58.5 176.5t-156.5 63.5q-97 0 -158 -66t-72 -174q-2 -20 7 -29t32 -9h365zM494 1092q-126 0 -202.5 76.5t-76.5 191.5q0 38 35.5 43.5t46.5 -23.5q33 -159 197 -159q167 0 200 155q7 20 27 26t37.5 -6t17.5 -38q0 -115 -77 -190.5
t-205 -75.5z" />
    <glyph glyph-name="Edotaccent" unicode="&#x116;" horiz-adv-x="1251" 
d="M109 0q-22 0 -34 14t-12 33q0 43 43 53l46 9q50 6 69.5 21t28.5 44q18 64 18 166v754q0 94 -16 163q-9 30 -29 46t-71 22l-46 8q-43 10 -43 53q0 19 12.5 33.5t35.5 14.5h936q24 0 33.5 -8.5t11.5 -28.5l45 -297q6 -35 -10.5 -54.5t-45.5 -19.5q-44 0 -61 47
q-15 48 -24 74.5t-22 58t-25 47t-29.5 32.5t-38.5 24t-49 11.5t-64 4.5h-164q-77 0 -106 -30.5t-29 -116.5v-361q0 -21 7.5 -30t27.5 -9h153q64 0 85 36t26 124q3 19 18 29.5t32 9.5t30.5 -14.5t13.5 -36.5v-402q0 -23 -13.5 -36.5t-30.5 -13.5t-32 10.5t-18 29.5
q-5 92 -25.5 127t-85.5 35h-153q-20 0 -27.5 -8t-7.5 -29v-342q0 -43 2.5 -70.5t10.5 -50t20.5 -34.5t36 -20t52 -10.5t73.5 -2.5h151q58 0 94 11.5t64 46t46.5 85t41.5 141.5q9 37 39.5 48t55.5 -10t18 -62l-50 -334q-3 -19 -12.5 -27t-32.5 -8h-970zM627 1638
q-57 0 -94 35.5t-37 89.5t37 89.5t94 35.5t94 -35.5t37 -89.5t-37 -89.5t-94 -35.5z" />
    <glyph glyph-name="edotaccent" unicode="&#x117;" horiz-adv-x="952" 
d="M518 -20q-206 0 -335.5 128t-129.5 343q0 116 38 210t101.5 153t143.5 90.5t168 31.5q178 0 285.5 -109.5t107.5 -302.5q0 -47 -20 -65.5t-68 -18.5h-510q-39 0 -39 -37q1 -136 85.5 -217.5t221.5 -81.5q152 0 230 95q30 33 60.5 16.5t12.5 -59.5q-31 -69 -122 -122.5
t-230 -53.5zM670 537q41 0 41 38q0 113 -58.5 176.5t-156.5 63.5q-97 0 -158 -66t-72 -174q-2 -20 7 -29t32 -9h365zM494 1122q-55 0 -92 34t-37 85q0 50 37 84.5t92 34.5t93 -34.5t38 -84.5q0 -51 -37.5 -85t-93.5 -34z" />
    <glyph glyph-name="Eogonek" unicode="&#x118;" horiz-adv-x="1234" 
d="M109 0q-22 0 -34 14t-12 33q0 43 43 53l46 9q50 6 69.5 21t28.5 44q18 64 18 166v754q0 94 -16 163q-9 30 -29 46t-71 22l-46 8q-43 10 -43 53q0 19 12.5 33.5t35.5 14.5h936q24 0 33.5 -8.5t11.5 -28.5l45 -297q6 -35 -10.5 -54.5t-45.5 -19.5q-44 0 -61 47
q-15 48 -24 74.5t-22 58t-25 47t-29.5 32.5t-38.5 24t-49 11.5t-64 4.5h-164q-77 0 -106 -30.5t-29 -116.5v-361q0 -21 7.5 -30t27.5 -9h153q64 0 85 36t26 124q3 19 18 29.5t32 9.5t30.5 -14.5t13.5 -36.5v-402q0 -23 -13.5 -36.5t-30.5 -13.5t-32 10.5t-18 29.5
q-5 92 -25.5 127t-85.5 35h-153q-20 0 -27.5 -8t-7.5 -29v-342q0 -43 2.5 -70.5t10.5 -50t20.5 -34.5t36 -20t52 -10.5t73.5 -2.5h151q58 0 94 11.5t64 46t46.5 85t41.5 141.5q9 37 39.5 48t55.5 -10t18 -62l-50 -334q-3 -19 -12.5 -27t-32.5 -8h-108q-47 0 -122 -73.5
t-75 -135.5q0 -34 23 -56t59 -22q53 0 113 43q18 11 37 8q28 0 28 -30q0 -15 -8 -31q-28 -49 -88 -77.5t-123 -28.5q-82 0 -130 40t-48 107q0 39 12.5 74t40 67t47.5 50.5t56 48.5q6 6 2.5 11t-11.5 5h-675z" />
    <glyph glyph-name="eogonek" unicode="&#x119;" horiz-adv-x="952" 
d="M559 -403q-82 0 -130 41t-48 108q0 120 137 219q9 7 7 12t-11 5q-204 3 -332.5 128t-128.5 341q0 116 38 210t101.5 153t143.5 90.5t168 31.5q178 0 285.5 -109.5t107.5 -302.5q0 -47 -20 -65.5t-68 -18.5h-510q-39 0 -39 -37q1 -136 85.5 -217.5t221.5 -81.5
q152 0 230 95q30 33 61.5 16.5t11.5 -59.5q-16 -37 -59.5 -73t-91.5 -65.5t-94 -61t-76.5 -72.5t-30.5 -87q0 -38 22.5 -61t59.5 -23q53 0 113 43q30 21 53 2q21 -21 4 -55q-28 -49 -88.5 -77.5t-122.5 -28.5zM670 537q41 0 41 38q0 113 -58.5 176.5t-156.5 63.5
q-97 0 -158 -66t-72 -174q-2 -20 7 -29t32 -9h365z" />
    <glyph glyph-name="Ecaron" unicode="&#x11a;" horiz-adv-x="1251" 
d="M109 0q-22 0 -34 14t-12 33q0 43 43 53l46 9q50 6 69.5 21t28.5 44q18 64 18 166v754q0 94 -16 163q-9 30 -29 46t-71 22l-46 8q-43 10 -43 53q0 19 12.5 33.5t35.5 14.5h936q24 0 33.5 -8.5t11.5 -28.5l45 -297q6 -35 -10.5 -54.5t-45.5 -19.5q-44 0 -61 47
q-15 48 -24 74.5t-22 58t-25 47t-29.5 32.5t-38.5 24t-49 11.5t-64 4.5h-164q-77 0 -106 -30.5t-29 -116.5v-361q0 -21 7.5 -30t27.5 -9h153q64 0 85 36t26 124q3 19 18 29.5t32 9.5t30.5 -14.5t13.5 -36.5v-402q0 -23 -13.5 -36.5t-30.5 -13.5t-32 10.5t-18 29.5
q-5 92 -25.5 127t-85.5 35h-153q-20 0 -27.5 -8t-7.5 -29v-342q0 -43 2.5 -70.5t10.5 -50t20.5 -34.5t36 -20t52 -10.5t73.5 -2.5h151q58 0 94 11.5t64 46t46.5 85t41.5 141.5q9 37 39.5 48t55.5 -10t18 -62l-50 -334q-3 -19 -12.5 -27t-32.5 -8h-970zM584 1591q-21 0 -35 8
t-35 35l-192 254q-13 16 -13 31q0 17 14.5 30t34.5 13q28 0 48 -20l194 -187q12 -12 25 -12q8 0 18 10l201 184q30 23 53 23q20 0 32.5 -11t14.5 -30q0 -17 -12 -35l-195 -252q-19 -26 -32 -33.5t-35 -7.5h-86z" />
    <glyph glyph-name="ecaron" unicode="&#x11b;" horiz-adv-x="952" 
d="M518 -20q-206 0 -335.5 128t-129.5 343q0 116 38 210t101.5 153t143.5 90.5t168 31.5q178 0 285.5 -109.5t107.5 -302.5q0 -47 -20 -65.5t-68 -18.5h-510q-39 0 -39 -37q1 -136 85.5 -217.5t221.5 -81.5q152 0 230 95q30 33 60.5 16.5t12.5 -59.5q-31 -69 -122 -122.5
t-230 -53.5zM670 537q41 0 41 38q0 113 -58.5 176.5t-156.5 63.5q-97 0 -158 -66t-72 -174q-2 -20 7 -29t32 -9h365zM469 1067q-20 0 -34 8.5t-32 34.5l-182 258q-12 20 -12 31q0 18 12 30.5t33 12.5q26 0 51 -25l172 -192q15 -15 23 -15q5 0 16 11l164 190q25 29 55 29
q19 0 32 -10.5t13 -28.5q0 -15 -12 -33l-180 -262q-17 -24 -31 -31.5t-35 -7.5h-53z" />
    <glyph glyph-name="Gcircumflex" unicode="&#x11c;" horiz-adv-x="1443" 
d="M801 -20q-212 0 -376 87t-257.5 253.5t-93.5 388.5q0 154 49 290.5t135.5 237t213.5 159t276 58.5q100 0 187.5 -23.5t149.5 -62.5t107.5 -90t69 -105t26.5 -108q2 -51 -22 -81t-70 -30q-77 0 -98 90q-65 291 -346 291q-141 0 -246 -75t-158 -204t-53 -294
q0 -98 19.5 -190t62 -174t103 -143t148 -96.5t191.5 -35.5q151 0 213 41.5t64 122.5q2 27 2 86q0 54 -15 131q-8 28 -29.5 42.5t-70.5 20.5l-57 8q-49 8 -49 54q0 19 12 33t35 14h471q22 0 34.5 -14t12.5 -33q0 -42 -43 -51l-37 -7q-43 -5 -60 -22.5t-22 -46.5
q-8 -47 -12 -133q-3 -89 2 -172q6 -108 -140 -164q-129 -53 -329 -53zM473 1589q-20 0 -32.5 13t-12.5 32q0 16 12 31l195 254q19 26 33.5 33.5t36.5 7.5h86q22 0 35 -7.5t32 -35.5l193 -252q12 -15 12 -33q-2 -19 -16.5 -31t-36.5 -12q-21 0 -49 21l-211 190q-12 8 -19 8
q-13 0 -24 -14l-185 -180q-25 -25 -49 -25z" />
    <glyph glyph-name="gcircumflex" unicode="&#x11d;" horiz-adv-x="1026" 
d="M444 -481q-440 0 -440 235q0 155 201 234q6 2 14.5 5t12.5 5t10 4t8.5 3.5t5 3.5t3.5 4t1 5t-1.5 5.5t-5.5 5.5t-7 5.5t-10 7t-11 7.5q-63 43 -63 98q0 45 33 84q7 8 16 17.5t13.5 15t9.5 12.5t8 13q12 18 -17 35q-172 93 -172 284q0 138 110.5 233t305.5 95
q64 0 120.5 -11t91.5 -22.5t46 -11.5q4 0 8.5 1t8.5 3t7.5 4t8 6t7 6.5t8 8.5t7.5 9t8 10.5t9 10.5q57 72 119 72q37 0 57 -19t20 -49q0 -37 -33.5 -56.5t-109.5 -43.5q-18 -5 -27 -8q-16 -5 -16 -15q0 -6 10 -16q72 -84 72 -213q0 -141 -110.5 -236.5t-301.5 -95.5
q-46 0 -100 4q-26 3 -47 -25.5t-21 -62.5q0 -55 36.5 -80.5t111.5 -27.5l153 -6q196 -9 282.5 -60t86.5 -149q0 -162 -148 -253t-389 -91zM465 -369q146 0 228.5 56.5t82.5 146.5q0 44 -23 70.5t-84 41.5t-167 15q-150 0 -221.5 -49.5t-71.5 -126.5q0 -80 59 -117t197 -37z
M481 373q95 0 150 56t55 155q0 116 -58 183t-165 67q-94 0 -150.5 -58t-56.5 -155q0 -112 59.5 -180t165.5 -68zM219 1069q-18 0 -29.5 11.5t-11.5 27.5q0 11 12 31l183 262q17 26 31.5 33.5t35.5 7.5h54q20 0 33 -7.5t32 -33.5l178 -258q13 -19 13 -33q0 -18 -13.5 -29.5
t-34.5 -11.5q-26 0 -49 25l-180 194q-10 10 -16 10q-11 0 -21 -14l-160 -188q-24 -27 -57 -27z" />
    <glyph glyph-name="Gbreve" unicode="&#x11e;" horiz-adv-x="1443" 
d="M801 -20q-212 0 -376 87t-257.5 253.5t-93.5 388.5q0 154 49 290.5t135.5 237t213.5 159t276 58.5q100 0 187.5 -23.5t149.5 -62.5t107.5 -90t69 -105t26.5 -108q2 -51 -22 -81t-70 -30q-77 0 -98 90q-65 291 -346 291q-141 0 -246 -75t-158 -204t-53 -294
q0 -98 19.5 -190t62 -174t103 -143t148 -96.5t191.5 -35.5q151 0 213 41.5t64 122.5q2 27 2 86q0 54 -15 131q-8 28 -29.5 42.5t-70.5 20.5l-57 8q-49 8 -49 54q0 19 12 33t35 14h471q22 0 34.5 -14t12.5 -33q0 -42 -43 -51l-37 -7q-43 -5 -60 -22.5t-22 -46.5
q-8 -47 -12 -133q-3 -89 2 -172q6 -108 -140 -164q-129 -53 -329 -53zM743 1597q-138 0 -218.5 76t-80.5 207q0 25 18.5 36.5t39.5 5.5t28 -24q17 -74 73 -116.5t140 -42.5q85 0 143 42t75 115q7 19 28 25t39.5 -5.5t18.5 -37.5q0 -129 -82 -205t-222 -76z" />
    <glyph glyph-name="gbreve" unicode="&#x11f;" horiz-adv-x="1026" 
d="M444 -481q-440 0 -440 235q0 155 201 234q6 2 14.5 5t12.5 5t10 4t8.5 3.5t5 3.5t3.5 4t1 5t-1.5 5.5t-5.5 5.5t-7 5.5t-10 7t-11 7.5q-63 43 -63 98q0 45 33 84q7 8 16 17.5t13.5 15t9.5 12.5t8 13q12 18 -17 35q-172 93 -172 284q0 138 110.5 233t305.5 95
q64 0 120.5 -11t91.5 -22.5t46 -11.5q4 0 8.5 1t8.5 3t7.5 4t8 6t7 6.5t8 8.5t7.5 9t8 10.5t9 10.5q57 72 119 72q37 0 57 -19t20 -49q0 -37 -33.5 -56.5t-109.5 -43.5q-18 -5 -27 -8q-16 -5 -16 -15q0 -6 10 -16q72 -84 72 -213q0 -141 -110.5 -236.5t-301.5 -95.5
q-46 0 -100 4q-26 3 -47 -25.5t-21 -62.5q0 -55 36.5 -80.5t111.5 -27.5l153 -6q196 -9 282.5 -60t86.5 -149q0 -162 -148 -253t-389 -91zM465 -369q146 0 228.5 56.5t82.5 146.5q0 44 -23 70.5t-84 41.5t-167 15q-150 0 -221.5 -49.5t-71.5 -126.5q0 -80 59 -117t197 -37z
M481 373q95 0 150 56t55 155q0 116 -58 183t-165 67q-94 0 -150.5 -58t-56.5 -155q0 -112 59.5 -180t165.5 -68zM469 1092q-126 0 -202.5 76.5t-76.5 191.5q0 25 17.5 37t37.5 6.5t27 -23.5q33 -159 197 -159q85 0 135 41t66 114q7 20 27 26t37.5 -6t17.5 -38
q0 -115 -77.5 -190.5t-205.5 -75.5z" />
    <glyph glyph-name="Gdotaccent" unicode="&#x120;" horiz-adv-x="1443" 
d="M801 -20q-212 0 -376 87t-257.5 253.5t-93.5 388.5q0 154 49 290.5t135.5 237t213.5 159t276 58.5q100 0 187.5 -23.5t149.5 -62.5t107.5 -90t69 -105t26.5 -108q2 -51 -22 -81t-70 -30q-77 0 -98 90q-65 291 -346 291q-141 0 -246 -75t-158 -204t-53 -294
q0 -98 19.5 -190t62 -174t103 -143t148 -96.5t191.5 -35.5q151 0 213 41.5t64 122.5q2 27 2 86q0 54 -15 131q-8 28 -29.5 42.5t-70.5 20.5l-57 8q-49 8 -49 54q0 19 12 33t35 14h471q22 0 34.5 -14t12.5 -33q0 -42 -43 -51l-37 -7q-43 -5 -60 -22.5t-22 -46.5
q-8 -47 -12 -133q-3 -89 2 -172q6 -108 -140 -164q-129 -53 -329 -53zM745 1638q-57 0 -94 35.5t-37 89.5t37 89.5t94 35.5t94.5 -35.5t37.5 -89.5t-37.5 -89.5t-94.5 -35.5z" />
    <glyph glyph-name="gdotaccent" unicode="&#x121;" horiz-adv-x="1026" 
d="M444 -481q-440 0 -440 235q0 155 201 234q6 2 14.5 5t12.5 5t10 4t8.5 3.5t5 3.5t3.5 4t1 5t-1.5 5.5t-5.5 5.5t-7 5.5t-10 7t-11 7.5q-63 43 -63 98q0 45 33 84q7 8 16 17.5t13.5 15t9.5 12.5t8 13q12 18 -17 35q-172 93 -172 284q0 138 110.5 233t305.5 95
q64 0 120.5 -11t91.5 -22.5t46 -11.5q4 0 8.5 1t8.5 3t7.5 4t8 6t7 6.5t8 8.5t7.5 9t8 10.5t9 10.5q57 72 119 72q37 0 57 -19t20 -49q0 -37 -33.5 -56.5t-109.5 -43.5q-18 -5 -27 -8q-16 -5 -16 -15q0 -6 10 -16q72 -84 72 -213q0 -141 -110.5 -236.5t-301.5 -95.5
q-46 0 -100 4q-26 3 -47 -25.5t-21 -62.5q0 -55 36.5 -80.5t111.5 -27.5l153 -6q196 -9 282.5 -60t86.5 -149q0 -162 -148 -253t-389 -91zM465 -369q146 0 228.5 56.5t82.5 146.5q0 44 -23 70.5t-84 41.5t-167 15q-150 0 -221.5 -49.5t-71.5 -126.5q0 -80 59 -117t197 -37z
M481 373q95 0 150 56t55 155q0 116 -58 183t-165 67q-94 0 -150.5 -58t-56.5 -155q0 -112 59.5 -180t165.5 -68zM469 1122q-55 0 -92 34t-37 85q0 50 37 84.5t92 34.5t93 -34.5t38 -84.5q0 -51 -37.5 -85t-93.5 -34z" />
    <glyph glyph-name="uni0122" unicode="&#x122;" horiz-adv-x="1443" 
d="M801 -20q-212 0 -376 87t-257.5 253.5t-93.5 388.5q0 154 49 290.5t135.5 237t213.5 159t276 58.5q100 0 187.5 -23.5t149.5 -62.5t107.5 -90t69 -105t26.5 -108q2 -51 -22 -81t-70 -30q-77 0 -98 90q-65 291 -346 291q-141 0 -246 -75t-158 -204t-53 -294
q0 -98 19.5 -190t62 -174t103 -143t148 -96.5t191.5 -35.5q151 0 213 41.5t64 122.5q2 27 2 86q0 54 -15 131q-8 28 -29.5 42.5t-70.5 20.5l-57 8q-49 8 -49 54q0 19 12 33t35 14h471q22 0 34.5 -14t12.5 -33q0 -42 -43 -51l-37 -7q-43 -5 -60 -22.5t-22 -46.5
q-8 -47 -12 -133q-3 -89 2 -172q6 -108 -140 -164q-129 -53 -329 -53zM731 -502q-21 -21 -40.5 -7.5t-6.5 44.5q28 61 25 111q-1 18 -15.5 36.5t-28.5 40.5t-14 50q0 46 30 68t71 22q42 0 71 -29.5t29 -83.5q0 -60 -35 -132t-86 -120z" />
    <glyph glyph-name="uni0123" unicode="&#x123;" horiz-adv-x="1026" 
d="M444 -481q-440 0 -440 235q0 155 201 234q6 2 14.5 5t12.5 5t10 4t8.5 3.5t5 3.5t3.5 4t1 5t-1.5 5.5t-5.5 5.5t-7 5.5t-10 7t-11 7.5q-63 43 -63 98q0 45 33 84q7 8 16 17.5t13.5 15t9.5 12.5t8 13q12 18 -17 35q-172 93 -172 284q0 138 110.5 233t305.5 95
q64 0 120.5 -11t91.5 -22.5t46 -11.5q4 0 8.5 1t8.5 3t7.5 4t8 6t7 6.5t8 8.5t7.5 9t8 10.5t9 10.5q57 72 119 72q37 0 57 -19t20 -49q0 -37 -33.5 -56.5t-109.5 -43.5q-18 -5 -27 -8q-16 -5 -16 -15q0 -6 10 -16q72 -84 72 -213q0 -141 -110.5 -236.5t-301.5 -95.5
q-46 0 -100 4q-26 3 -47 -25.5t-21 -62.5q0 -55 36.5 -80.5t111.5 -27.5l153 -6q196 -9 282.5 -60t86.5 -149q0 -162 -148 -253t-389 -91zM465 -369q146 0 228.5 56.5t82.5 146.5q0 44 -23 70.5t-84 41.5t-167 15q-150 0 -221.5 -49.5t-71.5 -126.5q0 -80 59 -117t197 -37z
M481 373q95 0 150 56t55 155q0 116 -58 183t-165 67q-94 0 -150.5 -58t-56.5 -155q0 -112 59.5 -180t165.5 -68zM471 1114q-42 0 -71 30.5t-29 86.5q0 63 43.5 141t91.5 101q20 7 26 -13q13 -9 5 -30q-4 -10 -10.5 -26t-10.5 -25.5t-7 -22t-3 -23.5q0 -26 30.5 -59t30.5 -70
q0 -46 -28 -68t-68 -22z" />
    <glyph glyph-name="Hcircumflex" unicode="&#x124;" horiz-adv-x="1656" 
d="M111 0q-23 0 -35.5 14t-12.5 33q0 43 43 53l46 9q52 6 72 22t30 49q14 63 14 160v754q0 103 -16 163q-9 30 -29 46t-71 22l-46 8q-43 10 -43 53q0 19 12.5 33.5t35.5 14.5h503q23 0 35.5 -14.5t12.5 -33.5q0 -42 -44 -53l-36 -4q-49 -7 -67.5 -22.5t-27.5 -44.5
q-18 -70 -18 -164v-291q0 -19 18 -19q341 -13 682 0q19 0 19 19v291q0 86 -17 162q-9 30 -27.5 46t-68.5 23l-37 4q-43 10 -43 53q0 19 12 33.5t35 14.5h504q23 0 35 -14.5t12 -33.5q0 -43 -43 -53l-45 -8q-51 -5 -70 -21t-30 -47q-16 -69 -16 -163v-754q0 -102 16 -162
q8 -31 28.5 -47t71.5 -22l45 -9q43 -10 43 -53q0 -19 -12 -33t-35 -14h-504q-23 0 -35 14t-12 33q0 43 43 53l37 4q50 7 68.5 23t27.5 47q17 67 17 162v313q0 19 -19 19q-341 13 -682 0q-18 0 -18 -19v-313q0 -95 14 -158q9 -32 28.5 -49.5t70.5 -24.5l36 -4q44 -11 44 -53
q0 -19 -12.5 -33t-35.5 -14h-503zM555 1589q-20 0 -32.5 13t-12.5 32q0 16 12 31l195 254q19 26 33 33.5t36 7.5h86q22 0 35.5 -7.5t32.5 -35.5l193 -252q12 -15 12 -33q-2 -19 -16.5 -31t-36.5 -12t-50 21l-211 190q-12 8 -18 8q-15 0 -25 -14l-184 -180q-25 -25 -49 -25z
" />
    <glyph glyph-name="hcircumflex" unicode="&#x125;" horiz-adv-x="1140" 
d="M88 0q-51 0 -51 43q0 32 35 43l28 6q32 6 45.5 20t18.5 40q12 56 12 155v971q0 72 -20.5 96t-87.5 33q-54 11 -54 43q0 34 68 59q95 37 203 37q46 0 67 -19.5t21 -66.5q0 -18 -4 -121.5t-4 -185.5v-330q0 -14 10 -14t28 18q109 109 263 109q155 0 234 -93.5t79 -262.5
v-273q0 -96 10 -155q6 -26 20.5 -40t45.5 -20l28 -6q35 -11 35 -43q0 -43 -51 -43h-350q-55 0 -55 43q0 30 32 41l25 6q33 6 45.5 18.5t15.5 36.5q11 62 11 134v272q0 242 -187 242q-111 -1 -175 -86.5t-64 -221.5v-206q0 -74 8 -134q5 -24 18 -36.5t45 -18.5l25 -6
q31 -11 31 -41q0 -43 -52 -43h-352zM4 1681q-18 0 -29.5 11.5t-11.5 27.5q0 11 12 31l183 262q17 26 31.5 33.5t35.5 7.5h54q20 0 33 -7.5t32 -33.5l178 -258q13 -19 13 -33q0 -18 -13.5 -29.5t-34.5 -11.5q-27 0 -49 25l-180 195q-10 10 -16 10q-10 0 -21 -15l-160 -188
q-24 -27 -57 -27z" />
    <glyph glyph-name="Hbar" unicode="&#x126;" horiz-adv-x="1656" 
d="M111 0q-23 0 -35.5 14t-12.5 33q0 43 43 53l46 9q52 6 72 22t30 49q14 63 14 160v629q0 12 -14 12h-107q-55 0 -55 49q0 47 55 47h107q14 0 14 13q0 107 -16 167q-9 30 -29 46t-71 22l-46 8q-43 10 -43 53q0 19 12.5 33.5t35.5 14.5h503q23 0 35.5 -14.5t12.5 -33.5
q0 -42 -44 -53l-36 -4q-49 -7 -67.5 -22.5t-27.5 -44.5q-18 -70 -18 -172q0 -13 14 -13h691q14 0 14 13q0 94 -17 170q-9 30 -27.5 46t-68.5 23l-37 4q-43 10 -43 53q0 19 12 33.5t35 14.5h504q23 0 35 -14.5t12 -33.5q0 -43 -43 -53l-45 -8q-51 -5 -70 -21t-30 -47
q-16 -69 -16 -167q0 -13 14 -13h96q55 0 55 -47q0 -49 -55 -49h-96q-14 0 -14 -12v-629q0 -102 16 -162q8 -31 28.5 -47t71.5 -22l45 -9q43 -10 43 -53q0 -19 -12 -33t-35 -14h-504q-23 0 -35 14t-12 33q0 43 43 53l37 4q50 7 68.5 23t27.5 47q17 67 17 162v307q0 19 -19 19
q-341 13 -682 0q-18 0 -18 -19v-307q0 -95 14 -158q9 -32 28.5 -49.5t70.5 -24.5l36 -4q44 -11 44 -53q0 -19 -12.5 -33t-35.5 -14h-503zM469 797q0 -19 18 -19q341 -13 682 0q19 0 19 19v172q0 12 -14 12h-691q-14 0 -14 -12v-172z" />
    <glyph glyph-name="hbar" unicode="&#x127;" horiz-adv-x="1146" 
d="M94 0q-51 0 -51 43q0 32 35 43l28 6q32 6 46 19.5t20 40.5q12 71 12 155v774q0 15 -16 15q-59 0 -94 -2q-27 -1 -43.5 13t-16.5 38q0 23 16 36.5t44 12.5q17 0 48.5 -1t45.5 -1q8 0 12 4t2 10q-3 59 -12 115q-4 52 -20.5 66t-75.5 20q-54 11 -54 43q0 34 68 59
q95 37 205 37q45 0 65.5 -20t20.5 -66q0 -16 -3 -104t-3 -152q0 -14 14 -14q38 0 260 4q26 2 43 -12t17 -37t-17 -37.5t-43 -13.5q-212 4 -260 4q-16 0 -16 -15v-260q0 -14 10 -14t31 18q106 109 262 109q154 0 232.5 -93.5t78.5 -262.5v-273q0 -99 12 -155q5 -26 19 -40
t45 -20l29 -6q34 -10 34 -43q0 -43 -51 -43h-350q-28 0 -40.5 12.5t-12.5 30.5q0 31 30 41l25 6q33 6 45.5 18.5t17.5 36.5q9 51 9 134v272q0 120 -47.5 181t-137.5 61q-112 -1 -176.5 -86.5t-64.5 -221.5v-206q0 -78 10 -134q5 -24 17.5 -36.5t43.5 -18.5l25 -6
q33 -11 33 -41q0 -18 -13 -30.5t-41 -12.5h-352z" />
    <glyph glyph-name="Itilde" unicode="&#x128;" horiz-adv-x="737" 
d="M111 0q-23 0 -35.5 14t-12.5 33q0 43 43 53l46 9q51 6 71 21.5t29 45.5q16 72 16 164v754q0 91 -16 163q-7 30 -27.5 46t-72.5 22l-46 8q-43 10 -43 53q0 19 12.5 33.5t35.5 14.5h516q22 0 34.5 -14.5t12.5 -33.5q0 -42 -45 -53l-45 -8q-50 -6 -70 -22t-29 -46
q-16 -72 -16 -163v-754q0 -81 14 -160q8 -32 28.5 -48.5t72.5 -22.5l45 -9q45 -11 45 -53q0 -19 -12.5 -33t-34.5 -14h-516zM500 1640q-48 0 -136 48.5t-133 48.5q-34 0 -59 -14.5t-49 -36.5t-43 -31q-22 -11 -40 2t-11 39q21 79 81 133.5t140 54.5q50 0 135 -48t127 -48
q37 0 61 16.5t47 44t42 39.5q23 10 39.5 -4.5t11.5 -40.5q-15 -80 -73.5 -141.5t-139.5 -61.5z" />
    <glyph glyph-name="itilde" unicode="&#x129;" horiz-adv-x="565" 
d="M111 0q-52 0 -52 43q0 33 35 43l27 6q33 6 45.5 19t19.5 41q13 76 13 155v357q0 73 -19 96.5t-84 34.5q-51 13 -51 43q0 15 16.5 30.5t49.5 26.5q97 41 196 41q88 0 88 -80q0 -22 -4 -113t-4 -155v-281q0 -99 12 -155q5 -26 19 -40t45 -20l29 -6q34 -10 34 -43
q0 -43 -51 -43h-364zM375 1122q-46 0 -120.5 47.5t-113.5 47.5q-32 0 -55.5 -15t-46 -37.5t-41.5 -31.5q-26 -6 -33 22q-12 20 4 57q81 144 191 144q42 0 113.5 -47t113.5 -47q33 0 56 15.5t46 41t46 37.5q25 3 28 -27q6 -5 8 -17.5t-2 -23.5q-29 -70 -78 -118t-116 -48z
" />
    <glyph glyph-name="Imacron" unicode="&#x12a;" horiz-adv-x="737" 
d="M111 0q-23 0 -35.5 14t-12.5 33q0 43 43 53l46 9q51 6 71 21.5t29 45.5q16 72 16 164v754q0 91 -16 163q-7 30 -27.5 46t-72.5 22l-46 8q-43 10 -43 53q0 19 12.5 33.5t35.5 14.5h516q22 0 34.5 -14.5t12.5 -33.5q0 -42 -45 -53l-45 -8q-50 -6 -70 -22t-29 -46
q-16 -72 -16 -163v-754q0 -81 14 -160q8 -32 28.5 -48.5t72.5 -22.5l45 -9q45 -11 45 -53q0 -19 -12.5 -33t-34.5 -14h-516zM100 1706q-28 0 -43.5 17t-15.5 40t16 41.5t43 18.5h541q26 0 42.5 -19t16.5 -41q0 -23 -16 -40t-43 -17h-541z" />
    <glyph glyph-name="imacron" unicode="&#x12b;" horiz-adv-x="565" 
d="M111 0q-52 0 -52 43q0 33 35 43l27 6q33 6 45.5 19t19.5 41q13 76 13 155v357q0 73 -19 96.5t-84 34.5q-51 13 -51 43q0 15 16.5 30.5t49.5 26.5q97 41 196 41q88 0 88 -80q0 -22 -4 -113t-4 -155v-281q0 -99 12 -155q5 -26 19 -40t45 -20l29 -6q34 -10 34 -43
q0 -43 -51 -43h-364zM51 1194q-28 0 -43.5 17t-15.5 40q0 22 16 40t43 18h430q26 0 43 -18t17 -40q0 -23 -16.5 -40t-43.5 -17h-430z" />
    <glyph glyph-name="Ibreve" unicode="&#x12c;" horiz-adv-x="737" 
d="M111 0q-23 0 -35.5 14t-12.5 33q0 43 43 53l46 9q51 6 71 21.5t29 45.5q16 72 16 164v754q0 91 -16 163q-7 30 -27.5 46t-72.5 22l-46 8q-43 10 -43 53q0 19 12.5 33.5t35.5 14.5h516q22 0 34.5 -14.5t12.5 -33.5q0 -42 -45 -53l-45 -8q-50 -6 -70 -22t-29 -46
q-16 -72 -16 -163v-754q0 -81 14 -160q8 -32 28.5 -48.5t72.5 -22.5l45 -9q45 -11 45 -53q0 -19 -12.5 -33t-34.5 -14h-516zM369 1597q-138 0 -218.5 76t-80.5 207q0 25 18.5 36.5t39.5 5.5t28 -24q17 -74 73 -116.5t140 -42.5q85 0 142.5 42t74.5 115q7 19 28 25t39.5 -5.5
t18.5 -37.5q0 -129 -82 -205t-221 -76z" />
    <glyph glyph-name="ibreve" unicode="&#x12d;" horiz-adv-x="565" 
d="M111 0q-52 0 -52 43q0 33 35 43l27 6q33 6 45.5 19t19.5 41q13 76 13 155v357q0 73 -19 96.5t-84 34.5q-51 13 -51 43q0 15 16.5 30.5t49.5 26.5q97 41 196 41q88 0 88 -80q0 -22 -4 -113t-4 -155v-281q0 -99 12 -155q5 -26 19 -40t45 -20l29 -6q34 -10 34 -43
q0 -43 -51 -43h-364zM266 1092q-126 0 -202 76.5t-76 191.5q0 25 17.5 37t37.5 6.5t27 -23.5q33 -159 196 -159q85 0 135 41t66 114q7 20 27 26t37.5 -6t17.5 -38q0 -115 -77.5 -190.5t-205.5 -75.5z" />
    <glyph glyph-name="Iogonek" unicode="&#x12e;" horiz-adv-x="737" 
d="M111 0q-23 0 -35.5 14t-12.5 33q0 43 43 53l46 9q51 6 71 21.5t29 45.5q16 72 16 164v754q0 91 -16 163q-7 30 -27.5 46t-72.5 22l-46 8q-43 10 -43 53q0 19 12.5 33.5t35.5 14.5h516q22 0 34.5 -14.5t12.5 -33.5q0 -42 -45 -53l-45 -8q-50 -6 -70 -22t-29 -46
q-16 -72 -16 -163v-754q0 -81 14 -160q8 -32 28.5 -48.5t72.5 -22.5l45 -9q45 -11 45 -53q0 -19 -12.5 -33t-34.5 -14h-95q-49 0 -120.5 -70.5t-71.5 -142.5q0 -35 19.5 -54.5t56.5 -19.5q54 0 116 41q13 13 37 13q13 -1 22 -11t9 -24q0 -16 -8 -29q-28 -49 -89 -79
t-124 -30q-81 0 -129.5 41t-48.5 103q0 39 11.5 73t35.5 64.5t40.5 47.5t47.5 45q7 6 10 9q10 7 7 15t-15 8h-227z" />
    <glyph glyph-name="iogonek" unicode="&#x12f;" horiz-adv-x="565" 
d="M111 0q-52 0 -52 43q0 33 35 43l27 6q33 6 45.5 19t19.5 41q13 76 13 155v357q0 73 -19 96.5t-84 34.5q-51 13 -51 43q0 15 16.5 30.5t49.5 26.5q97 41 196 41q88 0 88 -80q0 -22 -4 -113t-4 -155v-281q0 -99 12 -155q5 -26 19 -40t45 -20l29 -6q34 -10 34 -43
q0 -38 -51 -41q-65 -28 -123.5 -86t-58.5 -119q0 -38 22.5 -61t59.5 -23q50 0 110 43q19 11 35 8q31 -3 31 -30q0 -18 -8 -31q-28 -49 -87.5 -77.5t-121.5 -28.5q-82 0 -130 40t-48 107q0 74 42.5 130.5t108.5 107.5q9 6 7 12t-13 6h-190z" />
    <glyph glyph-name="Idotaccent" unicode="&#x130;" horiz-adv-x="737" 
d="M111 0q-23 0 -35.5 14t-12.5 33q0 43 43 53l46 9q51 6 71 21.5t29 45.5q16 72 16 164v754q0 91 -16 163q-7 30 -27.5 46t-72.5 22l-46 8q-43 10 -43 53q0 19 12.5 33.5t35.5 14.5h516q22 0 34.5 -14.5t12.5 -33.5q0 -42 -45 -53l-45 -8q-50 -6 -70 -22t-29 -46
q-16 -72 -16 -163v-754q0 -81 14 -160q8 -32 28.5 -48.5t72.5 -22.5l45 -9q45 -11 45 -53q0 -19 -12.5 -33t-34.5 -14h-516zM371 1638q-57 0 -94 35.5t-37 89.5t37 89.5t94 35.5t94 -35.5t37 -89.5t-37 -89.5t-94 -35.5z" />
    <glyph glyph-name="dotlessi" unicode="&#x131;" horiz-adv-x="565" 
d="M111 0q-52 0 -52 43q0 33 35 43l27 6q33 6 45.5 19t19.5 41q13 76 13 155v357q0 73 -19 96.5t-84 34.5q-51 13 -51 43q0 15 16.5 30.5t49.5 26.5q97 41 196 41q88 0 88 -80q0 -22 -4 -113t-4 -155v-281q0 -99 12 -155q5 -26 19 -40t45 -20l29 -6q34 -10 34 -43
q0 -43 -51 -43h-364z" />
    <glyph glyph-name="IJ" unicode="&#x132;" horiz-adv-x="1449" 
d="M111 0q-23 0 -35.5 14t-12.5 33q0 43 43 53l46 9q51 6 71 21.5t29 45.5q16 72 16 164v754q0 91 -16 163q-7 30 -27.5 46t-72.5 22l-46 8q-43 10 -43 53q0 19 12.5 33.5t35.5 14.5h516q22 0 34.5 -14.5t12.5 -33.5q0 -42 -45 -53l-45 -8q-50 -6 -70 -22t-29 -46
q-16 -72 -16 -163v-754q0 -81 14 -160q8 -32 28.5 -48.5t72.5 -22.5l45 -9q45 -11 45 -53q0 -19 -12.5 -33t-34.5 -14h-516zM807 -285q-33 -4 -48.5 10t-15.5 37q0 35 45 50q59 23 94.5 48t61.5 61.5t38 99t17 142t5 208.5v723q0 99 -17 163q-7 29 -27.5 45.5t-70.5 22.5
l-45 8q-45 11 -45 53q0 19 13 33.5t36 14.5h514q23 0 35 -14.5t12 -33.5q0 -43 -43 -53l-45 -8q-51 -6 -71 -22t-29 -46q-17 -77 -17 -163v-785q0 -246 -80 -391q-100 -173 -317 -203z" />
    <glyph glyph-name="ij" unicode="&#x133;" horiz-adv-x="1071" 
d="M111 0q-52 0 -52 43q0 33 35 43l27 6q33 6 45.5 19t19.5 41q13 76 13 155v357q0 73 -19 96.5t-84 34.5q-51 13 -51 43q0 15 16.5 30.5t49.5 26.5q97 41 196 41q88 0 88 -80q0 -22 -4 -113t-4 -155v-281q0 -99 12 -155q5 -26 19 -40t45 -20l29 -6q34 -10 34 -43
q0 -43 -51 -43h-364zM264 1122q-55 0 -92 34t-37 85q0 50 37 84.5t92 34.5t93 -34.5t38 -84.5q0 -51 -37.5 -85t-93.5 -34zM621 -479q-35 -6 -52.5 6t-17.5 35q0 31 37 49q91 36 125.5 118.5t34.5 217.5v604v13q0 152 -18.5 188.5t-113.5 44.5q-36 9 -36 34q0 23 28 43
q41 25 123 44.5t135 19.5q38 0 58 -18.5t18 -47.5q0 -34 -3 -142t-3 -177v-543q-1 -117 -22.5 -203.5t-64 -143.5t-97.5 -90.5t-131 -51.5zM825 1122q-55 0 -92 34t-37 85q0 50 37 84.5t92 34.5t93 -34.5t38 -84.5q0 -51 -37.5 -85t-93.5 -34z" />
    <glyph glyph-name="Jcircumflex" unicode="&#x134;" horiz-adv-x="712" 
d="M70 -285q-33 -4 -48.5 10t-15.5 37q0 35 45 50q49 19 81 37.5t57.5 49.5t39 66.5t22.5 96.5t12 131t3 178v723q0 103 -16 163q-7 29 -27.5 45.5t-70.5 22.5l-46 8q-45 11 -45 53q0 19 13.5 33.5t36.5 14.5h514q23 0 35 -14.5t12 -33.5q0 -43 -43 -53l-45 -8
q-51 -6 -71.5 -22t-29.5 -46q-16 -72 -16 -163v-785q0 -246 -80 -391q-100 -173 -317 -203zM92 1589q-20 0 -32.5 13t-12.5 32q0 16 12 31l195 254q19 26 33.5 33.5t36.5 7.5h86q22 0 35 -7.5t32 -35.5l193 -252q12 -15 12 -33q-2 -19 -16.5 -31t-36.5 -12q-21 0 -49 21
l-211 190q-12 8 -19 8q-14 0 -24 -14l-185 -180q-25 -25 -49 -25z" />
    <glyph glyph-name="jcircumflex" unicode="&#x135;" horiz-adv-x="520" 
d="M70 -479q-35 -6 -52.5 6t-17.5 35q0 31 37 49q91 36 125.5 118.5t34.5 217.5v604v17q0 149 -18 185t-113 44q-37 9 -37 34q0 23 28 43q41 25 123 44.5t135 19.5q38 0 58 -18.5t18 -47.5q0 -34 -3 -142t-3 -177v-543q-1 -117 -22.5 -203.5t-64 -143.5t-97.5 -90.5
t-131 -51.5zM27 1069q-18 0 -29.5 11.5t-11.5 27.5q0 11 12 31l182 262q17 26 32 33.5t36 7.5h53q20 0 33.5 -7.5t32.5 -33.5l178 -258q12 -18 12 -33q0 -18 -13 -29.5t-34 -11.5q-26 0 -49 25l-180 194q-10 10 -17 10q-10 0 -20 -14l-160 -188q-24 -27 -57 -27z" />
    <glyph glyph-name="uni0136" unicode="&#x136;" horiz-adv-x="1404" 
d="M111 0q-23 0 -35.5 14t-12.5 33q0 43 43 53l46 9q51 6 71 21.5t29 45.5q16 72 16 164v754q0 89 -16 161q-7 31 -27.5 47.5t-72.5 22.5l-46 8q-43 10 -43 53q0 19 12.5 33.5t35.5 14.5h495q23 0 35 -14.5t12 -33.5q0 -43 -43 -53l-37 -6q-49 -5 -67 -22t-25 -48
q-12 -67 -12 -159v-363q0 -14 8 -17t17 7l413 479q43 50 43 86q0 19 -16.5 29.5t-67.5 17.5q-49 12 -49 52q0 45 47 45h410q49 0 49 -50q0 -40 -45 -51q-72 -11 -111.5 -35t-105.5 -100l-299 -336q-20 -23 -4 -45l397 -577q53 -76 88 -104t100 -38q48 -8 48 -49
q0 -49 -52 -49h-471q-23 0 -35 13.5t-12 35.5q0 38 37 49l37 4q63 9 63 43q0 29 -38 84l-304 451q-12 19 -26 2l-105 -121q-16 -21 -16 -55v-178q0 -81 16 -156q7 -29 26.5 -46t68.5 -24l26 -4q39 -13 39 -51q0 -19 -12 -33t-35 -14h-487zM711 -502q-21 -21 -40.5 -7.5
t-6.5 44.5q27 59 24 111q-1 18 -15 36.5t-28 40.5t-14 50q0 46 30 68t70 22q42 0 71 -29.5t29 -83.5q0 -60 -35 -132t-85 -120z" />
    <glyph glyph-name="uni0137" unicode="&#x137;" horiz-adv-x="1073" 
d="M88 0q-51 0 -51 43q0 32 35 43l28 6q32 6 45.5 20t18.5 40q12 56 12 155v971q0 72 -20.5 96t-87.5 33q-54 11 -54 43q0 34 68 59q95 37 203 37q46 0 67 -19.5t21 -66.5q0 -18 -4 -121.5t-4 -185.5v-639q0 -24 15.5 -27.5t35.5 15.5l170 180q67 69 67 106q0 26 -45 37
l-28 6q-31 11 -31 41q0 41 51 41h354q27 0 39.5 -12t12.5 -29q0 -34 -41 -43l-29 -8q-51 -10 -96 -55q-92 -83 -113 -104l-70 -70q-14 -12 -15 -23t11 -28l183 -265q68 -97 92 -124q22 -28 38.5 -40.5t45.5 -21.5l22 -6q37 -12 37 -41q0 -43 -51 -43h-356q-52 0 -52 43
q0 29 31 39l27 6q43 8 43 35q0 18 -64 119l-127 192q-23 40 -47 19l-92 -95q-18 -18 -18 -65q0 -78 4 -119q2 -37 15 -55.5t52 -28.5l25 -6q31 -11 31 -41q0 -43 -52 -43h-352zM526 -502q-21 -21 -40.5 -7.5t-6.5 44.5q28 61 25 111q-1 18 -15.5 36.5t-28.5 40.5t-14 50
q0 46 30 68t71 22q42 0 71 -29.5t29 -83.5q0 -60 -35 -132t-86 -120z" />
    <glyph glyph-name="kgreenlandic" unicode="&#x138;" horiz-adv-x="1083" 
d="M674 0q-51 0 -51 43q0 29 30 39l27 6q43 8 43 35q0 18 -64 119l-127 192q-19 29 -30 29q-7 0 -17 -10l-92 -95q-18 -18 -18 -55q0 -100 8 -149q3 -28 16 -42.5t47 -21.5q33 -10 44.5 -21t11.5 -26q0 -43 -51 -43h-353q-51 0 -51 43q0 32 35 43q50 10 68.5 25.5t23.5 42.5
q12 49 12 153v314q0 90 -10 139q-5 27 -23.5 42t-70.5 25q-35 11 -35 45q0 17 12.5 29t38.5 12h353q47 0 47 -43q0 -30 -56 -47q-31 -7 -43.5 -22t-17.5 -43q-6 -49 -6 -123v-123q0 -27 18 -27q13 0 33 17l170 180q68 70 68 106q0 14 -14.5 23.5t-57.5 19.5q-31 11 -31 41
q0 41 51 41h353q51 0 51 -41q0 -34 -41 -43q-80 -18 -125 -63q-17 -16 -33.5 -31t-42 -38.5t-51.5 -47.5l-55 -57q-15 -12 -15.5 -23t11.5 -28l182 -265q68 -97 92 -124q22 -28 38.5 -40.5t45.5 -21.5l22 -6q37 -12 37 -41q0 -43 -51 -43h-356z" />
    <glyph glyph-name="Lacute" unicode="&#x139;" horiz-adv-x="1208" 
d="M111 0q-23 0 -35.5 14t-12.5 33q0 43 43 53l46 9q51 6 71 21.5t29 45.5q16 69 16 164v754q0 89 -16 161q-7 31 -27.5 47.5t-72.5 22.5l-46 8q-43 10 -43 53q0 19 12.5 33.5t35.5 14.5h512q23 0 36 -14.5t13 -33.5q0 -45 -45 -53l-45 -6q-50 -6 -70 -23t-29 -49
q-14 -82 -14 -159v-764q0 -52 1.5 -79t8 -56.5t19 -42.5t36 -24.5t56.5 -15t84 -3.5h123q54 0 85 7t60.5 32.5t50.5 74t43 131.5l23 82q12 45 57 45q29 0 45 -20t10 -55l-55 -375q-3 -19 -12.5 -26t-32.5 -7h-960zM233 1595q-25 -13 -48 0t-27.5 35.5t10.5 42.5
q81 88 293 283q44 33 86.5 11.5t49 -63t-21.5 -71.5q-78 -71 -342 -238z" />
    <glyph glyph-name="lacute" unicode="&#x13a;" horiz-adv-x="538" 
d="M88 0q-51 0 -51 43q0 32 39 45l24 4q33 7 47 22t21 44q8 45 8 149v971q0 72 -20.5 96t-87.5 33q-54 11 -54 43q0 34 68 59q95 37 203 37q46 0 67 -19.5t21 -66.5q0 -18 -4 -121.5t-4 -185.5v-846q0 -93 10 -149q5 -28 19 -43.5t48 -22.5l27 -6q37 -10 37 -43
q0 -43 -53 -43h-365zM154 1690q-24 -14 -48.5 -7t-30.5 26t9 40q97 122 256 281q50 44 101 18q37 -18 41 -55q3 -27 -19 -47q-127 -127 -309 -256z" />
    <glyph glyph-name="uni013B" unicode="&#x13b;" horiz-adv-x="1208" 
d="M111 0q-23 0 -35.5 14t-12.5 33q0 43 43 53l46 9q51 6 71 21.5t29 45.5q16 69 16 164v754q0 89 -16 161q-7 31 -27.5 47.5t-72.5 22.5l-46 8q-43 10 -43 53q0 19 12.5 33.5t35.5 14.5h512q23 0 36 -14.5t13 -33.5q0 -45 -45 -53l-45 -6q-50 -6 -70 -23t-29 -49
q-14 -82 -14 -159v-764q0 -52 1.5 -79t8 -56.5t19 -42.5t36 -24.5t56.5 -15t84 -3.5h123q54 0 85 7t60.5 32.5t50.5 74t43 131.5l23 82q12 45 57 45q29 0 45 -20t10 -55l-55 -375q-3 -19 -12.5 -26t-32.5 -7h-960zM618 -502q-21 -21 -40.5 -7.5t-6.5 44.5q28 61 25 111
q-1 18 -15 36.5t-28 40.5t-14 50q0 46 30 68t70 22q42 0 71 -29.5t29 -83.5q0 -60 -35 -132t-86 -120z" />
    <glyph glyph-name="uni013C" unicode="&#x13c;" horiz-adv-x="538" 
d="M88 0q-51 0 -51 43q0 32 39 45l24 4q33 7 47 22t21 44q8 45 8 149v971q0 72 -20.5 96t-87.5 33q-54 11 -54 43q0 34 68 59q95 37 203 37q46 0 67 -19.5t21 -66.5q0 -18 -4 -121.5t-4 -185.5v-846q0 -93 10 -149q5 -28 19 -43.5t48 -22.5l27 -6q37 -10 37 -43
q0 -43 -53 -43h-365zM248 -502q-21 -21 -40.5 -7.5t-6.5 44.5q27 59 24 111q-1 18 -15 36.5t-28 40.5t-14 50q0 46 30 68t70 22q43 0 72 -29.5t29 -83.5q0 -60 -35 -132t-86 -120z" />
    <glyph glyph-name="Lcaron" unicode="&#x13d;" horiz-adv-x="1208" 
d="M111 0q-23 0 -35.5 14t-12.5 33q0 43 43 53l46 9q51 6 71 21.5t29 45.5q16 69 16 164v754q0 89 -16 161q-7 31 -27.5 47.5t-72.5 22.5l-46 8q-43 10 -43 53q0 19 12.5 33.5t35.5 14.5h512q23 0 36 -14.5t13 -33.5q0 -45 -45 -53l-45 -6q-50 -6 -70 -23t-29 -49
q-14 -82 -14 -159v-764q0 -52 1.5 -79t8 -56.5t19 -42.5t36 -24.5t56.5 -15t84 -3.5h123q54 0 85 7t60.5 32.5t50.5 74t43 131.5l23 82q12 45 57 45q29 0 45 -20t10 -55l-55 -375q-3 -19 -12.5 -26t-32.5 -7h-960zM903 1085q-21 -21 -40.5 -7.5t-6.5 44.5q28 61 25 111
q-1 18 -15.5 36.5t-28.5 40.5t-14 50q0 46 30 68t71 22q42 0 71 -29.5t29 -83.5q0 -60 -35 -132t-86 -120z" />
    <glyph glyph-name="lcaron" unicode="&#x13e;" horiz-adv-x="571" 
d="M88 0q-51 0 -51 43q0 32 39 45l24 4q33 7 47 22t21 44q8 45 8 149v971q0 72 -20.5 96t-87.5 33q-54 11 -54 43q0 34 68 59q95 37 203 37q46 0 67 -19.5t21 -66.5q0 -18 -4 -121.5t-4 -185.5v-846q0 -93 10 -149q5 -28 19 -43.5t48 -22.5l27 -6q37 -10 37 -43
q0 -43 -53 -43h-365zM586 1184q-21 -21 -40.5 -7.5t-6.5 44.5q27 59 24 110q-1 18 -15 36.5t-28 40.5t-14 50q0 46 30 68t70 22q43 0 72 -29t29 -83q0 -60 -35 -132t-86 -120z" />
    <glyph glyph-name="Ldot" unicode="&#x13f;" horiz-adv-x="1208" 
d="M111 0q-23 0 -35.5 14t-12.5 33q0 43 43 53l46 9q51 6 71 21.5t29 45.5q16 69 16 164v754q0 89 -16 161q-7 31 -27.5 47.5t-72.5 22.5l-46 8q-43 10 -43 53q0 19 12.5 33.5t35.5 14.5h512q23 0 36 -14.5t13 -33.5q0 -45 -45 -53l-45 -6q-50 -6 -70 -23t-29 -49
q-14 -82 -14 -159v-764q0 -52 1.5 -79t8 -56.5t19 -42.5t36 -24.5t56.5 -15t84 -3.5h123q54 0 85 7t60.5 32.5t50.5 74t43 131.5l23 82q12 45 57 45q29 0 45 -20t10 -55l-55 -375q-3 -19 -12.5 -26t-32.5 -7h-960zM942 745q-52 0 -83.5 31t-31.5 82q0 48 32 80.5t83 32.5
q52 0 84.5 -32.5t32.5 -80.5q0 -51 -32 -82t-85 -31z" />
    <glyph glyph-name="ldot" unicode="&#x140;" horiz-adv-x="792" 
d="M88 0q-51 0 -51 43q0 32 39 45l24 4q33 7 47 22t21 44q8 45 8 149v971q0 72 -20.5 96t-87.5 33q-54 11 -54 43q0 34 68 59q95 37 203 37q46 0 67 -19.5t21 -66.5q0 -18 -4 -121.5t-4 -185.5v-846q0 -93 10 -149q5 -28 19 -43.5t48 -22.5l27 -6q37 -10 37 -43
q0 -43 -53 -43h-365zM674 686q-52 0 -83.5 31.5t-31.5 81.5q0 48 31.5 80t83.5 32t84.5 -32t32.5 -80q0 -50 -32.5 -81.5t-84.5 -31.5z" />
    <glyph glyph-name="Lslash" unicode="&#x141;" horiz-adv-x="1208" 
d="M111 0q-23 0 -35.5 14t-12.5 33q0 43 43 53l46 9q51 6 71 21.5t29 45.5q16 69 16 164v305q0 6 -5.5 9.5t-10.5 0.5l-102 -43q-15 -6 -31 -6q-18 0 -30.5 12.5t-12.5 34.5q0 38 37 56l149 61q6 6 6 10v314q0 89 -16 161q-7 31 -27.5 47.5t-72.5 22.5l-46 8q-43 10 -43 53
q0 19 12.5 33.5t35.5 14.5h512q23 0 36 -14.5t13 -33.5q0 -45 -45 -53l-45 -6q-50 -6 -70 -23t-29 -49q-14 -82 -14 -159v-222q0 -16 16 -10l234 101q30 10 45 10q20 0 31.5 -12.5t11.5 -32.5q0 -43 -55 -64l-277 -116q-6 -6 -6 -11v-407q0 -52 1.5 -79t8 -56.5t19 -42.5
t36 -24.5t56.5 -15t84 -3.5h123q54 0 85 7t60.5 32.5t50.5 74t43 131.5l23 82q12 45 57 45q29 0 45 -20t10 -55l-55 -375q-3 -19 -12.5 -26t-32.5 -7h-960z" />
    <glyph glyph-name="lslash" unicode="&#x142;" horiz-adv-x="739" 
d="M178 0q-53 0 -53 43q0 32 39 45l24 4q35 7 49 22.5t19 43.5q10 56 10 149v381q0 8 -5 12t-11 0l-158 -67q-18 -6 -31 -6q-18 0 -30.5 12.5t-12.5 36.5q0 38 37 53l199 84q12 6 12 18v447q0 73 -21 96.5t-89 32.5q-52 11 -52 43q0 35 68 59q92 37 203 37q45 0 65.5 -20
t20.5 -66q0 -18 -3 -121.5t-3 -185.5v-238q0 -18 16 -12l143 62q16 8 33 8q47 0 47 -45q0 -42 -35 -54l-194 -83q-10 -5 -10 -19v-465q0 -104 8 -149q7 -29 20.5 -44t46.5 -22l29 -6q35 -10 35 -43q0 -43 -51 -43h-365z" />
    <glyph glyph-name="Nacute" unicode="&#x143;" horiz-adv-x="1595" 
d="M111 0q-23 0 -35.5 14t-12.5 33q0 43 43 53l46 9q51 6 71 21.5t29 45.5q16 72 16 164v754q0 89 -16 161q-7 31 -27.5 47.5t-72.5 22.5l-46 8q-43 10 -43 53q0 19 12.5 33.5t35.5 14.5h237q27 0 47 -23l785 -1018q19 -23 34 -18.5t15 33.5v686q0 86 -17 163q-9 30 -29 46
t-71 22l-45 8q-43 10 -43 53q0 19 12 33.5t35 14.5h428q22 0 34.5 -14.5t12.5 -33.5q0 -42 -45 -53l-45 -8q-50 -6 -69.5 -22t-28.5 -46q-17 -77 -17 -163v-1045q0 -69 -59 -69q-20 0 -36.5 9.5t-39.5 35.5l-778 1015q-19 21 -34 16t-15 -32l2 -684q0 -83 14 -162
q8 -31 28.5 -47t72.5 -22l45 -9q45 -11 45 -53q0 -19 -12.5 -33t-34.5 -14h-428zM641 1595q-25 -13 -48.5 0t-28 35.5t10.5 42.5q81 88 293 283q44 33 87 11.5t49.5 -63t-21.5 -71.5q-78 -71 -342 -238z" />
    <glyph glyph-name="nacute" unicode="&#x144;" horiz-adv-x="1153" 
d="M520 1075q-38 -22 -66.5 3.5t-2.5 56.5q93 117 256 280q50 45 101 18q37 -19 40 -56q2 -26 -19 -46q-127 -127 -309 -256zM111 0q-52 0 -52 43q0 33 35 43l27 6q33 7 46.5 21t18.5 41q13 61 13 153v357q0 73 -19 96.5t-84 34.5q-51 13 -51 43q0 15 16.5 30.5t49.5 26.5
q97 41 192 41q84 0 84 -76q0 -15 -1 -34.5t-1 -24.5q0 -17 8 -17q7 0 21 17q107 133 288 133q146 0 225 -95.5t79 -254.5v-277q0 -94 10 -153q7 -27 20.5 -41t46.5 -21l25 -4q37 -13 37 -45q0 -43 -51 -43h-351q-27 0 -39 12.5t-12 30.5q0 29 31 41l25 6q32 7 44 21t17 41
q8 43 8 127v272q0 117 -48.5 181.5t-141.5 64.5q-104 0 -172 -76.5t-68 -208.5v-233q0 -84 6 -127q5 -25 18.5 -40t45.5 -22l24 -6q29 -10 29 -41q0 -43 -49 -43h-350z" />
    <glyph glyph-name="uni0145" unicode="&#x145;" horiz-adv-x="1595" 
d="M111 0q-23 0 -35.5 14t-12.5 33q0 43 43 53l46 9q51 6 71 21.5t29 45.5q16 72 16 164v754q0 89 -16 161q-7 31 -27.5 47.5t-72.5 22.5l-46 8q-43 10 -43 53q0 19 12.5 33.5t35.5 14.5h237q27 0 47 -23l785 -1018q19 -23 34 -18.5t15 33.5v686q0 86 -17 163q-9 30 -29 46
t-71 22l-45 8q-43 10 -43 53q0 19 12 33.5t35 14.5h428q22 0 34.5 -14.5t12.5 -33.5q0 -42 -45 -53l-45 -8q-50 -6 -69.5 -22t-28.5 -46q-17 -77 -17 -163v-1045q0 -69 -59 -69q-20 0 -36.5 9.5t-39.5 35.5l-778 1015q-19 21 -34 16t-15 -32l2 -684q0 -83 14 -162
q8 -31 28.5 -47t72.5 -22l45 -9q45 -11 45 -53q0 -19 -12.5 -33t-34.5 -14h-428zM786 -502q-21 -21 -40.5 -7.5t-6.5 44.5q28 61 25 111q-1 18 -15 36.5t-28 40.5t-14 50q0 46 30 68t70 22q42 0 71 -29.5t29 -83.5q0 -60 -35 -132t-86 -120z" />
    <glyph glyph-name="uni0146" unicode="&#x146;" horiz-adv-x="1169" 
d="M111 0q-52 0 -52 43q0 33 35 43l27 6q33 7 46.5 21t18.5 41q13 61 13 153v357q0 73 -19 96.5t-84 34.5q-51 13 -51 43q0 15 16.5 30.5t49.5 26.5q97 41 192 41q84 0 84 -76q0 -15 -1 -34.5t-1 -24.5q0 -17 8 -17q7 0 21 17q107 133 288 133q146 0 225 -95.5t79 -254.5
v-277q0 -94 10 -153q7 -27 20.5 -41t46.5 -21l25 -4q37 -13 37 -45q0 -43 -51 -43h-351q-27 0 -39 12.5t-12 30.5q0 29 31 41l25 6q32 7 44 21t17 41q8 43 8 127v272q0 117 -48.5 181.5t-141.5 64.5q-104 0 -172 -76.5t-68 -208.5v-233q0 -84 6 -127q5 -25 18.5 -40
t45.5 -22l24 -6q29 -10 29 -41q0 -43 -49 -43h-350zM575 -502q-21 -21 -40.5 -7.5t-6.5 44.5q28 61 25 111q-1 18 -15 36.5t-28 40.5t-14 50q0 46 30 68t70 22q42 0 71 -29.5t29 -83.5q0 -60 -35 -132t-86 -120z" />
    <glyph glyph-name="Ncaron" unicode="&#x147;" horiz-adv-x="1595" 
d="M111 0q-23 0 -35.5 14t-12.5 33q0 43 43 53l46 9q51 6 71 21.5t29 45.5q16 72 16 164v754q0 89 -16 161q-7 31 -27.5 47.5t-72.5 22.5l-46 8q-43 10 -43 53q0 19 12.5 33.5t35.5 14.5h237q27 0 47 -23l785 -1018q19 -23 34 -18.5t15 33.5v686q0 86 -17 163q-9 30 -29 46
t-71 22l-45 8q-43 10 -43 53q0 19 12 33.5t35 14.5h428q22 0 34.5 -14.5t12.5 -33.5q0 -42 -45 -53l-45 -8q-50 -6 -69.5 -22t-28.5 -46q-17 -77 -17 -163v-1045q0 -69 -59 -69q-20 0 -36.5 9.5t-39.5 35.5l-778 1015q-19 21 -34 16t-15 -32l2 -684q0 -83 14 -162
q8 -31 28.5 -47t72.5 -22l45 -9q45 -11 45 -53q0 -19 -12.5 -33t-34.5 -14h-428zM731 1591q-21 0 -34.5 8t-34.5 35l-193 254q-12 15 -12 31q0 17 14.5 30t34.5 13q27 0 47 -20l195 -187q12 -12 24 -12q9 0 19 10l200 184q30 23 53 23q20 0 33.5 -11t14.5 -30q0 -15 -13 -35
l-194 -252q-19 -26 -32.5 -33.5t-35.5 -7.5h-86z" />
    <glyph glyph-name="ncaron" unicode="&#x148;" horiz-adv-x="1169" 
d="M111 0q-52 0 -52 43q0 33 35 43l27 6q33 7 46.5 21t18.5 41q13 61 13 153v357q0 73 -19 96.5t-84 34.5q-51 13 -51 43q0 15 16.5 30.5t49.5 26.5q97 41 192 41q84 0 84 -76q0 -15 -1 -34.5t-1 -24.5q0 -17 8 -17q7 0 21 17q107 133 288 133q146 0 225 -95.5t79 -254.5
v-277q0 -94 10 -153q7 -27 20.5 -41t46.5 -21l25 -4q37 -13 37 -45q0 -43 -51 -43h-351q-27 0 -39 12.5t-12 30.5q0 29 31 41l25 6q32 7 44 21t17 41q8 43 8 127v272q0 117 -48.5 181.5t-141.5 64.5q-104 0 -172 -76.5t-68 -208.5v-233q0 -84 6 -127q5 -25 18.5 -40
t45.5 -22l24 -6q29 -10 29 -41q0 -43 -49 -43h-350zM569 1067q-20 0 -33.5 8.5t-31.5 34.5l-182 258q-13 22 -13 31q0 18 12 30.5t33 12.5q27 0 52 -25l172 -192q15 -15 22 -15q5 0 16 11l164 190q25 29 56 29q19 0 32 -10.5t13 -28.5q0 -13 -13 -33l-180 -262
q-18 -25 -31 -32t-34 -7h-54z" />
    <glyph glyph-name="napostrophe" unicode="&#x149;" horiz-adv-x="1169" 
d="M111 0q-52 0 -52 43q0 33 35 43l27 6q33 7 46.5 21t18.5 41q13 61 13 153v357q0 73 -19 96.5t-84 34.5q-51 13 -51 43q0 15 16.5 30.5t49.5 26.5q97 41 192 41q84 0 84 -76q0 -15 -1 -34.5t-1 -24.5q0 -17 8 -17q7 0 21 17q107 133 288 133q146 0 225 -95.5t79 -254.5
v-277q0 -94 10 -153q7 -27 20.5 -41t46.5 -21l25 -4q37 -13 37 -45q0 -43 -51 -43h-351q-27 0 -39 12.5t-12 30.5q0 29 31 41l25 6q32 7 44 21t17 41q8 43 8 127v272q0 117 -48.5 181.5t-141.5 64.5q-104 0 -172 -76.5t-68 -208.5v-233q0 -84 6 -127q5 -25 18.5 -40
t45.5 -22l24 -6q29 -10 29 -41q0 -43 -49 -43h-350zM117 1100q-21 -21 -40.5 -7.5t-6.5 44.5q27 59 24 110q-1 18 -15 36.5t-28 40.5t-14 50q0 46 30 68t70 22q43 0 72 -29t29 -83q0 -60 -35 -132t-86 -120z" />
    <glyph glyph-name="Eng" unicode="&#x14a;" horiz-adv-x="1593" 
d="M111 0q-23 0 -35.5 14t-12.5 33q0 43 43 53l46 9q51 6 71 21.5t29 45.5q16 72 16 164v754q0 89 -16 161q-7 31 -27.5 47.5t-72.5 22.5l-46 8q-43 10 -43 53q0 19 12.5 33.5t35.5 14.5h235q27 0 47 -23l785 -1018q20 -23 34.5 -18.5t14.5 33.5v686q0 99 -17 163
q-7 29 -27.5 45.5t-70.5 22.5l-45 8q-45 11 -45 53q0 19 13 33.5t36 14.5h424q23 0 36 -14.5t13 -33.5q0 -42 -45 -53l-45 -8q-50 -6 -70.5 -22.5t-27.5 -45.5q-17 -64 -17 -163v-1104q0 -153 -74.5 -246t-195.5 -123q-37 -9 -59.5 1.5t-22.5 33.5q0 15 11 29.5t30 21.5
q94 37 143.5 105.5t51.5 154.5q0 40 -23 66l-774 1007q-19 21 -33 16t-14 -32v-684q0 -90 16 -162q8 -31 28.5 -47t72.5 -22l45 -9q43 -10 43 -53q0 -19 -12 -33t-35 -14h-426z" />
    <glyph glyph-name="eng" unicode="&#x14b;" horiz-adv-x="1122" 
d="M692 -479q-31 -6 -50 4.5t-21 30.5q-3 39 36 55q46 19 78 50.5t49.5 76t25 94.5t7.5 115v604q0 117 -48.5 181.5t-141.5 64.5q-104 0 -172 -76.5t-68 -208.5v-233q0 -84 6 -127q5 -25 18.5 -40t45.5 -22l24 -6q29 -10 29 -41q0 -43 -49 -43h-350q-52 0 -52 43q0 33 35 43
l27 6q33 7 46.5 21t18.5 41q13 61 13 153v357q0 73 -19 96.5t-84 34.5q-51 13 -51 43q0 15 16.5 30.5t49.5 26.5q97 41 192 41q84 0 84 -76q0 -15 -1 -34.5t-1 -24.5q0 -17 8 -17q7 0 21 17q107 133 288 133q146 0 225 -95.5t79 -254.5v-574q0 -117 -21 -203.5t-63.5 -143.5
t-98 -90.5t-131.5 -51.5z" />
    <glyph glyph-name="Omacron" unicode="&#x14c;" horiz-adv-x="1509" 
d="M754 -20q-195 0 -350.5 92t-242.5 258t-87 377t88.5 382t244.5 268t349 97q147 0 273.5 -53.5t216 -148.5t140 -229.5t50.5 -291.5q0 -213 -88.5 -385t-244.5 -269t-349 -97zM776 106q197 0 317.5 159.5t120.5 418.5q0 102 -21 197.5t-62.5 176t-98.5 141t-134 94.5
t-165 34q-197 0 -317.5 -159t-120.5 -418q0 -173 57 -318.5t168 -235.5t256 -90zM483 1706q-28 0 -43.5 17t-15.5 40t16 41.5t43 18.5h541q26 0 42.5 -19t16.5 -41q0 -23 -16 -40t-43 -17h-541z" />
    <glyph glyph-name="omacron" unicode="&#x14d;" horiz-adv-x="1048" 
d="M526 -20q-206 0 -339.5 133.5t-133.5 343.5q0 206 133.5 342.5t335.5 136.5q205 0 339 -133.5t134 -337.5q0 -213 -133.5 -349t-335.5 -136zM537 100q119 0 186.5 88.5t67.5 245.5q0 167 -78 274t-201 107q-119 0 -186.5 -88.5t-67.5 -245.5q0 -168 78.5 -274.5
t200.5 -106.5zM313 1194q-28 0 -43.5 17t-15.5 40q0 22 16 40t43 18h430q26 0 43 -18t17 -40q0 -23 -16.5 -40t-43.5 -17h-430z" />
    <glyph glyph-name="Obreve" unicode="&#x14e;" horiz-adv-x="1509" 
d="M754 -20q-195 0 -350.5 92t-242.5 258t-87 377t88.5 382t244.5 268t349 97q147 0 273.5 -53.5t216 -148.5t140 -229.5t50.5 -291.5q0 -213 -88.5 -385t-244.5 -269t-349 -97zM776 106q197 0 317.5 159.5t120.5 418.5q0 102 -21 197.5t-62.5 176t-98.5 141t-134 94.5
t-165 34q-197 0 -317.5 -159t-120.5 -418q0 -173 57 -318.5t168 -235.5t256 -90zM752 1597q-138 0 -218.5 76t-80.5 207q0 25 18.5 36.5t39.5 5.5t28 -24q17 -74 73 -116.5t140 -42.5q85 0 142.5 42t74.5 115q7 19 28 25t39.5 -5.5t18.5 -37.5q0 -129 -82 -205t-221 -76z
" />
    <glyph glyph-name="obreve" unicode="&#x14f;" horiz-adv-x="1048" 
d="M526 -20q-206 0 -339.5 133.5t-133.5 343.5q0 206 133.5 342.5t335.5 136.5q205 0 339 -133.5t134 -337.5q0 -213 -133.5 -349t-335.5 -136zM537 100q119 0 186.5 88.5t67.5 245.5q0 167 -78 274t-201 107q-119 0 -186.5 -88.5t-67.5 -245.5q0 -168 78.5 -274.5
t200.5 -106.5zM528 1092q-126 0 -202 76.5t-76 191.5q0 25 17.5 37t37.5 6.5t27 -23.5q33 -159 196 -159q85 0 135 41t66 114q7 20 27 26t37.5 -6t17.5 -38q0 -115 -77.5 -190.5t-205.5 -75.5z" />
    <glyph glyph-name="Ohungarumlaut" unicode="&#x150;" horiz-adv-x="1509" 
d="M754 -20q-195 0 -350.5 92t-242.5 258t-87 377t88.5 382t244.5 268t349 97q147 0 273.5 -53.5t216 -148.5t140 -229.5t50.5 -291.5q0 -213 -88.5 -385t-244.5 -269t-349 -97zM776 106q197 0 317.5 159.5t120.5 418.5q0 102 -21 197.5t-62.5 176t-98.5 141t-134 94.5
t-165 34q-197 0 -317.5 -159t-120.5 -418q0 -173 57 -318.5t168 -235.5t256 -90zM688 1604q-29 -26 -61 -15q-33 -6 -52 11.5t0 46.5q115 177 207 288q43 49 92 39q26 6 54 -8q32 -12 38 -39.5t-14 -50.5q-59 -70 -135.5 -148.5t-128.5 -123.5z" />
    <glyph glyph-name="ohungarumlaut" unicode="&#x151;" horiz-adv-x="1048" 
d="M526 -20q-206 0 -339.5 133.5t-133.5 343.5q0 206 133.5 342.5t335.5 136.5q205 0 339 -133.5t134 -337.5q0 -213 -133.5 -349t-335.5 -136zM537 100q119 0 186.5 88.5t67.5 245.5q0 167 -78 274t-201 107q-119 0 -186.5 -88.5t-67.5 -245.5q0 -168 78.5 -274.5
t200.5 -106.5zM522 1067q-10 6 -12 20t6 29q65 97 234 291q23 28 56.5 32.5t53.5 -12.5q21 -13 24 -36t-12 -43q-23 -27 -52 -58t-64.5 -64.5t-59 -54.5t-61 -54.5t-43.5 -39.5q-16 -13 -38.5 -15t-31.5 5zM246 1067q-22 18 -6 49q127 204 194 291q22 28 54.5 33t54.5 -10
q22 -14 26.5 -36t-12.5 -46q-170 -204 -244 -271q-16 -13 -37 -15t-30 5z" />
    <glyph glyph-name="OE" unicode="&#x152;" horiz-adv-x="1994" 
d="M756 -20q-308 0 -495 202t-187 525q0 212 85 382t240 266.5t351 96.5q87 0 203 -9t177 -9h660q24 0 33.5 -8.5t11.5 -28.5l45 -297q2 -6 2 -17q0 -28 -15.5 -42.5t-41.5 -14.5q-48 0 -62 47q-15 48 -24 74.5t-22 58t-25 47t-29.5 32.5t-38.5 24t-49 11.5t-64 4.5h-143
q-78 0 -106.5 -30t-28.5 -117v-361q0 -21 7.5 -30t27.5 -9h135q63 0 82 35t26 125q3 19 17 29t31 10q19 0 33 -13t14 -38v-402q0 -23 -14 -36t-33 -13q-17 0 -31 10t-17 29q-7 94 -26 128t-82 34h-135q-20 0 -27.5 -8t-7.5 -29v-342q0 -43 2.5 -70.5t10.5 -50t20 -34.5
t35.5 -20t52 -10.5t73.5 -2.5h132q46 0 78 8.5t56.5 25.5t43.5 52.5t34 80t33 117.5q6 25 22.5 37t37.5 12q27 0 42.5 -21.5t10.5 -51.5l-51 -334q-3 -19 -12.5 -27t-30.5 -8h-695q-69 0 -179.5 -10t-192.5 -10zM770 102q81 0 126 8t78.5 35t45.5 75.5t12 131.5v727
q0 81 -14.5 130t-50.5 75.5t-84.5 35.5t-130.5 9q-214 0 -335.5 -158t-121.5 -421q0 -105 17 -199t54.5 -176.5t92.5 -143t134.5 -95t176.5 -34.5z" />
    <glyph glyph-name="oe" unicode="&#x153;" horiz-adv-x="1630" 
d="M514 -20q-198 0 -329.5 134t-131.5 343q0 205 131 342t324 137q108 0 193.5 -49t140.5 -133q12 -14 28 2q53 83 139.5 131.5t184.5 48.5q170 0 275.5 -110t105.5 -302q0 -47 -20 -65.5t-68 -18.5h-486q-21 0 -29.5 -9t-8.5 -28q0 -138 77 -218.5t213 -80.5q146 0 220 95
q30 33 61.5 16.5t13.5 -59.5q-31 -68 -120 -122t-220 -54q-217 0 -338 174q-12 14 -26 0q-127 -174 -330 -174zM524 100q116 0 179 88t63 246q0 170 -72.5 275.5t-195.5 105.5q-109 0 -174.5 -89.5t-65.5 -244.5q0 -167 76 -274t190 -107zM1348 537q41 0 41 38
q0 111 -57 175.5t-146 64.5q-95 0 -151 -65t-68 -175q0 -21 9 -29.5t32 -8.5h340z" />
    <glyph glyph-name="Racute" unicode="&#x154;" horiz-adv-x="1341" 
d="M109 0q-22 0 -34 14t-12 33q0 43 43 53l46 9q51 5 70 20.5t28 44.5q18 68 18 166v754q0 89 -16 161q-7 31 -28 48t-74 24l-44 6q-43 10 -43 53q0 21 12 34.5t36 13.5h149q82 0 200.5 10t174.5 10q516 0 516 -399q0 -129 -65 -227t-193 -156q-26 -13 -10 -39l198 -359
q54 -98 89 -130t90 -40l26 -4q43 -8 43 -49q0 -21 -11.5 -36t-33.5 -15h-459q-23 0 -36 14.5t-13 34.5q0 36 35 47l33 4q67 11 67 47q0 31 -51 125l-155 293q-13 25 -25 32t-37 5q-36 -6 -106 -6q-44 0 -56 -9.5t-12 -45.5v-228q0 -87 10 -141q5 -29 22 -46t64 -24l29 -6
q35 -10 35 -47q0 -20 -11.5 -34.5t-33.5 -14.5h-475zM535 696q211 0 307 85.5t96 252.5q0 65 -16 118.5t-50.5 98.5t-96.5 70t-146 25q-37 0 -63 -6t-49.5 -22t-35.5 -48t-12 -80v-447q0 -31 11.5 -39t54.5 -8zM522 1595q-25 -13 -48 0t-27.5 35.5t10.5 42.5q81 88 293 283
q44 33 86.5 11.5t49 -63t-21.5 -71.5q-78 -71 -342 -238z" />
    <glyph glyph-name="racute" unicode="&#x155;" horiz-adv-x="829" 
d="M111 0q-52 0 -52 43q0 31 37 45l25 4q34 7 48 21.5t19 42.5q11 65 11 151v357q0 73 -19 96.5t-84 34.5q-51 13 -51 43q0 15 16.5 30.5t49.5 26.5q97 41 186 41q84 0 84 -72q0 -15 -1 -34.5t-1 -24.5q0 -21 10 -21t19 15q38 66 93.5 101.5t121.5 35.5q76 0 120.5 -47
t44.5 -133q0 -52 -21.5 -84.5t-57.5 -32.5q-61 0 -70 59q0 86 -80 86q-70 0 -121 -71.5t-51 -190.5v-213q0 -97 12 -153q6 -26 24 -41t56 -21l43 -6q43 -7 43 -45q0 -43 -51 -43h-403zM303 1077q-38 -22 -67 3.5t-3 56.5q93 117 256 280q50 44 101 18q37 -18 41 -55
q3 -27 -19 -47q-127 -127 -309 -256z" />
    <glyph glyph-name="uni0156" unicode="&#x156;" horiz-adv-x="1341" 
d="M109 0q-22 0 -34 14t-12 33q0 43 43 53l46 9q51 5 70 20.5t28 44.5q18 68 18 166v754q0 89 -16 161q-7 31 -28 48t-74 24l-44 6q-43 10 -43 53q0 21 12 34.5t36 13.5h149q82 0 200.5 10t174.5 10q516 0 516 -399q0 -129 -65 -227t-193 -156q-26 -13 -10 -39l198 -359
q54 -98 89 -130t90 -40l26 -4q43 -8 43 -49q0 -21 -11.5 -36t-33.5 -15h-459q-23 0 -36 14.5t-13 34.5q0 36 35 47l33 4q67 11 67 47q0 31 -51 125l-155 293q-13 25 -25 32t-37 5q-36 -6 -106 -6q-44 0 -56 -9.5t-12 -45.5v-228q0 -87 10 -141q5 -29 22 -46t64 -24l29 -6
q35 -10 35 -47q0 -20 -11.5 -34.5t-33.5 -14.5h-475zM535 696q211 0 307 85.5t96 252.5q0 65 -16 118.5t-50.5 98.5t-96.5 70t-146 25q-37 0 -63 -6t-49.5 -22t-35.5 -48t-12 -80v-447q0 -31 11.5 -39t54.5 -8zM651 -502q-21 -21 -40.5 -7.5t-6.5 44.5q28 61 25 111
q-1 18 -15.5 36.5t-28.5 40.5t-14 50q0 46 30 68t71 22q42 0 71 -29.5t29 -83.5q0 -60 -35 -132t-86 -120z" />
    <glyph glyph-name="uni0157" unicode="&#x157;" horiz-adv-x="829" 
d="M111 0q-52 0 -52 43q0 31 37 45l25 4q34 7 48 21.5t19 42.5q11 65 11 151v357q0 73 -19 96.5t-84 34.5q-51 13 -51 43q0 15 16.5 30.5t49.5 26.5q97 41 186 41q84 0 84 -72q0 -15 -1 -34.5t-1 -24.5q0 -21 10 -21t19 15q38 66 93.5 101.5t121.5 35.5q76 0 120.5 -47
t44.5 -133q0 -52 -21.5 -84.5t-57.5 -32.5q-61 0 -70 59q0 86 -80 86q-70 0 -121 -71.5t-51 -190.5v-213q0 -97 12 -153q6 -26 24 -41t56 -21l43 -6q43 -7 43 -45q0 -43 -51 -43h-403zM272 -502q-21 -21 -40.5 -7.5t-6.5 44.5q28 61 25 111q-1 18 -15 36.5t-28 40.5t-14 50
q0 46 30 68t70 22q42 0 71 -29.5t29 -83.5q0 -60 -35 -132t-86 -120z" />
    <glyph glyph-name="Rcaron" unicode="&#x158;" horiz-adv-x="1341" 
d="M109 0q-22 0 -34 14t-12 33q0 43 43 53l46 9q51 5 70 20.5t28 44.5q18 68 18 166v754q0 89 -16 161q-7 31 -28 48t-74 24l-44 6q-43 10 -43 53q0 21 12 34.5t36 13.5h149q82 0 200.5 10t174.5 10q516 0 516 -399q0 -129 -65 -227t-193 -156q-26 -13 -10 -39l198 -359
q54 -98 89 -130t90 -40l26 -4q43 -8 43 -49q0 -21 -11.5 -36t-33.5 -15h-459q-23 0 -36 14.5t-13 34.5q0 36 35 47l33 4q67 11 67 47q0 31 -51 125l-155 293q-13 25 -25 32t-37 5q-36 -6 -106 -6q-44 0 -56 -9.5t-12 -45.5v-228q0 -87 10 -141q5 -29 22 -46t64 -24l29 -6
q35 -10 35 -47q0 -20 -11.5 -34.5t-33.5 -14.5h-475zM535 696q211 0 307 85.5t96 252.5q0 65 -16 118.5t-50.5 98.5t-96.5 70t-146 25q-37 0 -63 -6t-49.5 -22t-35.5 -48t-12 -80v-447q0 -31 11.5 -39t54.5 -8zM612 1591q-21 0 -34.5 8t-34.5 35l-193 254q-12 15 -12 31
q0 17 14.5 30t34.5 13q27 0 47 -20l195 -187q12 -12 24 -12q9 0 19 10l200 184q30 23 54 23q20 0 32.5 -11t14.5 -30q0 -17 -12 -35l-195 -252q-19 -26 -32.5 -33.5t-35.5 -7.5h-86z" />
    <glyph glyph-name="rcaron" unicode="&#x159;" horiz-adv-x="829" 
d="M111 0q-52 0 -52 43q0 31 37 45l25 4q34 7 48 21.5t19 42.5q11 65 11 151v357q0 73 -19 96.5t-84 34.5q-51 13 -51 43q0 15 16.5 30.5t49.5 26.5q97 41 186 41q84 0 84 -72q0 -15 -1 -34.5t-1 -24.5q0 -21 10 -21t19 15q38 66 93.5 101.5t121.5 35.5q76 0 120.5 -47
t44.5 -133q0 -52 -21.5 -84.5t-57.5 -32.5q-61 0 -70 59q0 86 -80 86q-70 0 -121 -71.5t-51 -190.5v-213q0 -97 12 -153q6 -26 24 -41t56 -21l43 -6q43 -7 43 -45q0 -43 -51 -43h-403zM395 1067q-20 0 -33.5 8.5t-31.5 34.5l-183 258q-12 20 -12 31q0 18 12 30.5t33 12.5
q26 0 51 -25l172 -192q15 -15 23 -15q5 0 16 11l164 190q25 29 56 29q19 0 32 -10.5t13 -28.5q0 -13 -13 -33l-180 -262q-18 -25 -31 -32t-34 -7h-54z" />
    <glyph glyph-name="Sacute" unicode="&#x15a;" horiz-adv-x="1112" 
d="M557 -20q-217 0 -350 105t-137 290q-1 49 24 76.5t66 27.5q40 2 65 -23t31 -77q4 -141 90 -215t229 -74q121 0 197 65.5t76 180.5q0 28 -6 53.5t-14.5 46t-26.5 41t-32 34.5t-43 31.5t-47 27.5t-55.5 27t-57.5 25.5t-64 26.5q-52 21 -85 35.5t-80.5 39t-77.5 46.5
t-64.5 55t-53.5 67.5t-32 80.5t-13 98q0 165 125.5 274t341.5 109q193 0 321.5 -97t133.5 -233q1 -50 -23.5 -75t-62.5 -25q-34 0 -60 22t-34 68q-11 105 -81.5 168.5t-191.5 63.5q-120 0 -192 -61t-72 -165q0 -48 17 -88t44 -68t70.5 -53.5t85 -44.5t98.5 -42q15 -6 23 -9
q165 -69 234 -114q161 -105 175 -275q1 -17 1 -35q0 -84 -33.5 -158.5t-95 -130.5t-155.5 -89t-208 -33zM422 1595q-25 -13 -48.5 0t-28 35.5t10.5 42.5q81 88 293 283q44 33 87 11.5t49.5 -63t-21.5 -71.5q-78 -71 -342 -238z" />
    <glyph glyph-name="sacute" unicode="&#x15b;" horiz-adv-x="864" 
d="M430 -20q-181 0 -277 69.5t-96 177.5q0 44 23 67t61 23q68 0 86 -73q6 -81 60 -122.5t147 -41.5q86 0 132 36t46 101q0 18 -4.5 34t-9 28t-18 24t-21.5 19.5t-29 17t-30 14t-36.5 13t-37 11t-41.5 11.5q-40 11 -64 18t-60.5 20.5t-59 27t-48.5 35.5t-40.5 47t-24.5 59.5
t-10 75.5q0 112 91.5 188t264.5 76q149 0 243 -63t99 -142q1 -42 -21.5 -62t-54.5 -20q-58 0 -84 64q-22 59 -63.5 90t-114.5 31q-80 0 -123 -34.5t-43 -94.5q0 -25 6.5 -44.5t23.5 -35t31 -25t46.5 -20.5t51 -16.5t61.5 -16.5q36 -10 57.5 -16.5t55 -18t54.5 -23t48 -28
t43 -36t31.5 -44.5t22.5 -56.5t7 -68.5q0 -123 -97.5 -199.5t-283.5 -76.5zM324 1077q-38 -22 -67 3.5t-3 56.5q93 117 256 280q50 44 101 18q37 -18 41 -55q3 -27 -19 -47q-127 -127 -309 -256z" />
    <glyph glyph-name="Scircumflex" unicode="&#x15c;" horiz-adv-x="1112" 
d="M557 -20q-217 0 -350 105t-137 290q-1 49 24 76.5t66 27.5q40 2 65 -23t31 -77q4 -141 90 -215t229 -74q121 0 197 65.5t76 180.5q0 28 -6 53.5t-14.5 46t-26.5 41t-32 34.5t-43 31.5t-47 27.5t-55.5 27t-57.5 25.5t-64 26.5q-52 21 -85 35.5t-80.5 39t-77.5 46.5
t-64.5 55t-53.5 67.5t-32 80.5t-13 98q0 165 125.5 274t341.5 109q193 0 321.5 -97t133.5 -233q1 -50 -23.5 -75t-62.5 -25q-34 0 -60 22t-34 68q-11 105 -81.5 168.5t-191.5 63.5q-120 0 -192 -61t-72 -165q0 -48 17 -88t44 -68t70.5 -53.5t85 -44.5t98.5 -42q15 -6 23 -9
q165 -69 234 -114q161 -105 175 -275q1 -17 1 -35q0 -84 -33.5 -158.5t-95 -130.5t-155.5 -89t-208 -33zM281 1589q-20 0 -32.5 13t-12.5 32q0 16 12 31l194 254q19 26 33.5 33.5t36.5 7.5h86q22 0 35.5 -7.5t32.5 -35.5l192 -252q12 -15 12 -33q-2 -19 -16.5 -31t-36.5 -12
q-21 0 -49 21l-211 190q-12 8 -18 8q-15 0 -25 -14l-184 -180q-25 -25 -49 -25z" />
    <glyph glyph-name="scircumflex" unicode="&#x15d;" horiz-adv-x="864" 
d="M430 -20q-181 0 -277 69.5t-96 177.5q0 44 23 67t61 23q68 0 86 -73q6 -81 60 -122.5t147 -41.5q86 0 132 36t46 101q0 18 -4.5 34t-9 28t-18 24t-21.5 19.5t-29 17t-30 14t-36.5 13t-37 11t-41.5 11.5q-40 11 -64 18t-60.5 20.5t-59 27t-48.5 35.5t-40.5 47t-24.5 59.5
t-10 75.5q0 112 91.5 188t264.5 76q149 0 243 -63t99 -142q1 -42 -21.5 -62t-54.5 -20q-58 0 -84 64q-22 59 -63.5 90t-114.5 31q-80 0 -123 -34.5t-43 -94.5q0 -25 6.5 -44.5t23.5 -35t31 -25t46.5 -20.5t51 -16.5t61.5 -16.5q36 -10 57.5 -16.5t55 -18t54.5 -23t48 -28
t43 -36t31.5 -44.5t22.5 -56.5t7 -68.5q0 -123 -97.5 -199.5t-283.5 -76.5zM193 1069q-18 0 -29.5 11.5t-11.5 27.5q0 11 12 31l182 262q17 26 32 33.5t36 7.5h53q20 0 33 -7.5t32 -33.5l179 -258q12 -18 12 -33q0 -18 -13 -29.5t-34 -11.5q-26 0 -49 25l-181 194
q-10 10 -16 10q-10 0 -20 -14l-160 -188q-24 -27 -57 -27z" />
    <glyph glyph-name="Scedilla" unicode="&#x15e;" horiz-adv-x="1110" 
d="M532 -440q-81 0 -143 30q-29 12 -29 35q0 16 13.5 27.5t32.5 7.5q74 -18 94 -18q51 0 78.5 25t27.5 69q0 40 -29.5 67t-72.5 27q-18 0 -38 -7t-32 -7q-20 0 -29 17t3 42l57 88q7 18 -12 21q-175 25 -278.5 128t-106.5 263q-1 49 24 76.5t66 27.5q39 2 64.5 -23t31.5 -77
q4 -141 89.5 -215t227.5 -74q123 0 199 65.5t76 180.5q0 28 -6 53.5t-14.5 46t-26.5 41t-32 34.5t-43 31.5t-47 27.5t-55.5 27t-57.5 25.5t-64 26.5q-52 21 -85 35.5t-80.5 39t-77.5 46.5t-64.5 55t-53.5 67.5t-32 80.5t-13 98q0 165 125.5 274t341.5 109q192 0 320.5 -96.5
t134.5 -233.5q1 -50 -23.5 -75t-62.5 -25q-34 0 -60 22t-34 68q-12 105 -82.5 168.5t-190.5 63.5t-192 -61t-72 -165q0 -49 17.5 -89t42.5 -67t71.5 -54.5t84 -44t100.5 -42.5q13 -5 20 -8q42 -17 67.5 -27.5t65 -28.5t64 -32.5t57.5 -36.5t53 -43t42.5 -49.5t34.5 -59
t20 -68t8 -79.5q0 -164 -120 -279t-333 -130q-14 0 -21 -13q-32 -50 -32 -61q0 -14 37 -14q87 0 134.5 -41t47.5 -109q0 -74 -60.5 -129t-167.5 -55z" />
    <glyph glyph-name="scedilla" unicode="&#x15f;" horiz-adv-x="864" 
d="M414 -440q-82 0 -144 30q-28 11 -28 35q0 16 13 27.5t32 7.5q74 -18 94 -18q51 0 78.5 25t27.5 69q0 40 -29.5 67t-72.5 27q-17 0 -38 -7t-32 -7q-20 0 -29 17t3 42l57 92q10 14 -10 17q-136 18 -207.5 83.5t-71.5 159.5q0 44 23 67t61 23q68 0 86 -73q6 -81 60 -122.5
t147 -41.5q86 0 132 36t46 101q0 18 -4.5 34t-9 28t-18 24t-21.5 19.5t-29 17t-30 14t-36.5 13t-37 11t-41.5 11.5q-40 11 -64 18t-60.5 20.5t-59 27t-48.5 35.5t-40.5 47t-24.5 59.5t-10 75.5q0 112 91.5 188t264.5 76q149 0 243 -63t99 -142q1 -42 -21.5 -62t-54.5 -20
q-58 0 -84 64q-22 59 -63.5 90t-114.5 31q-80 0 -123 -34.5t-43 -94.5q0 -25 6.5 -44.5t23.5 -35t31 -25t46.5 -20.5t51 -16.5t61.5 -16.5q36 -10 57.5 -16.5t55 -18t54.5 -23t48 -28t43 -36t31.5 -44.5t22.5 -56.5t7 -68.5q0 -114 -86.5 -192t-249.5 -84q-15 -3 -20 -13
q-33 -51 -33 -59q0 -14 37 -14q87 0 134.5 -41t47.5 -109q0 -74 -60 -129t-167 -55z" />
    <glyph glyph-name="Scaron" unicode="&#x160;" horiz-adv-x="1112" 
d="M557 -20q-217 0 -350 105t-137 290q-1 49 24 76.5t66 27.5q40 2 65 -23t31 -77q4 -141 90 -215t229 -74q121 0 197 65.5t76 180.5q0 28 -6 53.5t-14.5 46t-26.5 41t-32 34.5t-43 31.5t-47 27.5t-55.5 27t-57.5 25.5t-64 26.5q-52 21 -85 35.5t-80.5 39t-77.5 46.5
t-64.5 55t-53.5 67.5t-32 80.5t-13 98q0 165 125.5 274t341.5 109q193 0 321.5 -97t133.5 -233q1 -50 -23.5 -75t-62.5 -25q-34 0 -60 22t-34 68q-11 105 -81.5 168.5t-191.5 63.5q-120 0 -192 -61t-72 -165q0 -48 17 -88t44 -68t70.5 -53.5t85 -44.5t98.5 -42q15 -6 23 -9
q165 -69 234 -114q161 -105 175 -275q1 -17 1 -35q0 -84 -33.5 -158.5t-95 -130.5t-155.5 -89t-208 -33zM512 1591q-21 0 -35 8t-35 35l-192 254q-12 15 -12 31q0 17 14.5 30t34.5 13q27 0 47 -20l194 -187q12 -12 25 -12q8 0 18 10l201 184q30 23 53 23q20 0 32.5 -11
t14.5 -30q0 -17 -12 -35l-194 -252q-19 -26 -32.5 -33.5t-35.5 -7.5h-86z" />
    <glyph glyph-name="scaron" unicode="&#x161;" horiz-adv-x="864" 
d="M430 -20q-181 0 -277 69.5t-96 177.5q0 44 23 67t61 23q68 0 86 -73q6 -81 60 -122.5t147 -41.5q86 0 132 36t46 101q0 18 -4.5 34t-9 28t-18 24t-21.5 19.5t-29 17t-30 14t-36.5 13t-37 11t-41.5 11.5q-40 11 -64 18t-60.5 20.5t-59 27t-48.5 35.5t-40.5 47t-24.5 59.5
t-10 75.5q0 112 91.5 188t264.5 76q149 0 243 -63t99 -142q1 -42 -21.5 -62t-54.5 -20q-58 0 -84 64q-22 59 -63.5 90t-114.5 31q-80 0 -123 -34.5t-43 -94.5q0 -25 6.5 -44.5t23.5 -35t31 -25t46.5 -20.5t51 -16.5t61.5 -16.5q36 -10 57.5 -16.5t55 -18t54.5 -23t48 -28
t43 -36t31.5 -44.5t22.5 -56.5t7 -68.5q0 -123 -97.5 -199.5t-283.5 -76.5zM416 1067q-20 0 -34 8.5t-32 34.5l-182 258q-12 20 -12 31q0 18 12 30.5t33 12.5q26 0 51 -25l172 -192q15 -15 22 -15q6 0 17 11l164 190q25 29 55 29q19 0 32 -10.5t13 -28.5q0 -15 -12 -33
l-180 -262q-17 -24 -31 -31.5t-35 -7.5h-53z" />
    <glyph glyph-name="uni0162" unicode="&#x162;" horiz-adv-x="1398" 
d="M426 0q-23 0 -35 14t-12 33q0 43 43 53l59 9q50 6 71.5 22t29.5 45q18 81 18 164v823q0 98 -30 130t-130 32q-60 0 -95.5 -8t-62.5 -32.5t-42.5 -62.5t-32.5 -106l-29 -110q-14 -56 -63 -56q-27 0 -43.5 19.5t-12.5 56.5l54 373q3 21 11.5 28t29.5 7h1093q20 0 28 -7.5
t11 -27.5l53 -373q4 -37 -12 -56.5t-43 -19.5q-47 0 -61 56l-31 110q-17 68 -32.5 105.5t-42.5 62.5t-63.5 33t-97.5 8q-98 0 -126.5 -31.5t-28.5 -130.5v-823q0 -90 16 -162q8 -31 28.5 -47t72.5 -22l59 -9q43 -10 43 -53q0 -19 -12 -33t-35 -14h-215q-16 0 -23 -12
q-43 -69 -43 -80q0 -14 37 -14q86 0 133 -41t47 -109q0 -74 -59.5 -129t-167.5 -55q-83 0 -141 30q-29 10 -29 35q0 16 12 27.5t31 7.5q9 -2 24.5 -6t24.5 -6t22 -4t25 -2q52 0 79.5 25t27.5 69q0 40 -30 67t-73 27q-18 0 -38.5 -7t-30.5 -7q-21 0 -30 17t3 42l64 105
q6 9 2 14.5t-13 5.5h-186z" />
    <glyph glyph-name="uni0163" unicode="&#x163;" horiz-adv-x="731" 
d="M391 -440q-83 0 -141 30q-29 10 -29 35q0 16 12 27.5t31 7.5q9 -2 24.5 -6t24.5 -6t21.5 -4t23.5 -2q53 0 81 25t28 69q0 39 -31 66.5t-74 27.5q-18 0 -38 -7t-31 -7q-20 0 -28.5 17t3.5 42l64 100q7 18 -8 21q-127 50 -127 231v502q0 42 -11.5 54t-50.5 12h-69
q-46 0 -46 49q0 44 46 53q107 16 135.5 41t80.5 145q9 19 13 29q23 51 65 51q17 0 28 -12t11 -37q0 -7 -12 -166q-3 -35 31 -35h207q30 0 42.5 -11.5t12.5 -35.5q0 -33 -20 -51t-56 -18h-182q-20 0 -28.5 -8.5t-8.5 -30.5v-490q0 -98 31 -135t98 -37q38 0 78.5 12.5
t52.5 12.5q37 0 37 -35q0 -44 -69 -74t-162 -32q-12 0 -19 -11q-33 -54 -33 -61q0 -14 39 -14q86 0 133 -41t47 -109q0 -74 -60 -129t-167 -55z" />
    <glyph glyph-name="Tcaron" unicode="&#x164;" horiz-adv-x="1398" 
d="M426 0q-23 0 -35 14t-12 33q0 43 43 53l59 9q50 6 71.5 22t29.5 45q18 81 18 164v823q0 98 -30 130t-130 32q-60 0 -95.5 -8t-62.5 -32.5t-42.5 -62.5t-32.5 -106l-29 -110q-14 -56 -63 -56q-27 0 -43.5 19.5t-12.5 56.5l54 373q3 21 11.5 28t29.5 7h1093q20 0 28 -7.5
t11 -27.5l53 -373q4 -37 -12 -56.5t-43 -19.5q-47 0 -61 56l-31 110q-17 68 -32.5 105.5t-42.5 62.5t-63.5 33t-97.5 8q-98 0 -126.5 -31.5t-28.5 -130.5v-823q0 -90 16 -162q8 -31 28.5 -47t72.5 -22l59 -9q43 -10 43 -53q0 -19 -12 -33t-35 -14h-547zM653 1591
q-21 0 -34.5 8t-34.5 35l-193 254q-12 15 -12 31q0 17 14.5 30t34.5 13q27 0 47 -20l195 -187q12 -12 24 -12q9 0 19 10l200 184q30 23 54 23q20 0 32.5 -11t14.5 -30q0 -15 -13 -35l-194 -252q-19 -26 -32.5 -33.5t-35.5 -7.5h-86z" />
    <glyph glyph-name="tcaron" unicode="&#x165;" horiz-adv-x="731" 
d="M446 -20q-125 0 -187 59.5t-62 187.5v502q0 42 -11.5 54t-50.5 12h-69q-46 0 -46 49q0 44 46 53q107 16 135.5 41t80.5 145q9 19 13 29q23 51 65 51q17 0 28 -12t11 -37q0 -7 -12 -166q-3 -35 31 -35h207q30 0 42.5 -11.5t12.5 -35.5q0 -33 -20 -51t-56 -18h-182
q-20 0 -28.5 -8.5t-8.5 -30.5v-490q0 -98 31 -135t98 -37q38 0 78.5 12.5t52.5 12.5q37 0 37 -35q0 -45 -72.5 -75.5t-163.5 -30.5zM598 1122q-21 -20 -39.5 -6.5t-5.5 45.5q27 67 22 109q-1 21 -29 56t-28 71q0 46 30 69t70 23q44 0 73.5 -29.5t29.5 -85.5
q0 -59 -35.5 -129.5t-87.5 -122.5z" />
    <glyph glyph-name="Tbar" unicode="&#x166;" horiz-adv-x="1398" 
d="M426 0q-23 0 -35 14t-12 33q0 43 43 53l59 9q50 6 71.5 22t29.5 45q18 81 18 164v299q0 16 -18 16h-193q-20 0 -33.5 13t-13.5 39q0 49 47 49h193q18 0 18 16v391q0 98 -30 130t-130 32q-60 0 -95.5 -8t-62.5 -32.5t-42.5 -62.5t-32.5 -106l-29 -110q-14 -56 -63 -56
q-27 0 -43.5 19.5t-12.5 56.5l54 373q3 21 11.5 28t29.5 7h1093q20 0 28 -7.5t11 -27.5l53 -373q4 -37 -12 -56.5t-43 -19.5q-47 0 -61 56l-31 110q-17 68 -32.5 105.5t-42.5 62.5t-63.5 33t-97.5 8q-98 0 -126.5 -31.5t-28.5 -130.5v-391q0 -16 16 -16h191q47 0 47 -49
q0 -52 -47 -52h-191q-16 0 -16 -16v-299q0 -90 16 -162q8 -31 28.5 -47t72.5 -22l59 -9q43 -10 43 -53q0 -19 -12 -33t-35 -14h-547z" />
    <glyph glyph-name="tbar" unicode="&#x167;" horiz-adv-x="731" 
d="M446 -20q-125 0 -187 59.5t-62 187.5v273q0 16 -15 16q-61 0 -102 -2q-27 -1 -42 12.5t-15 36.5q0 24 15 37.5t42 13.5q39 -2 102 -2q15 -3 15 13v104q0 42 -11.5 54t-50.5 12h-69q-46 0 -46 49q0 44 46 53q107 16 135.5 41t80.5 145q9 19 13 29q23 51 65 51q17 0 28 -12
t11 -37q0 -7 -12 -166q-3 -35 31 -35h207q30 0 42.5 -11.5t12.5 -35.5q0 -33 -20 -51t-56 -18h-182q-20 0 -28.5 -8.5t-8.5 -30.5v-133q0 -17 16 -17q76 0 211 6q26 0 41 -14.5t15 -36.5t-15 -36t-41 -13q-159 4 -211 2q-16 0 -16 -14v-234q0 -98 31 -135t98 -37
q38 0 78.5 12.5t52.5 12.5q37 0 37 -35q0 -45 -72.5 -75.5t-163.5 -30.5z" />
    <glyph glyph-name="Utilde" unicode="&#x168;" horiz-adv-x="1572" 
d="M793 -20q-149 0 -256 41t-170 121.5t-92 188.5t-29 251v512q0 86 -17 163q-9 30 -29 46t-71 22l-45 8q-43 10 -43 53q0 19 12 33.5t35 14.5h514q23 0 36 -14.5t13 -33.5q0 -42 -45 -53l-45 -8q-52 -6 -72 -22.5t-28 -49.5q-15 -84 -15 -159v-486q0 -261 96 -380t285 -119
q111 0 187.5 35t120 105t61.5 162.5t18 221.5v461q0 98 -18 166q-7 28 -26.5 43.5t-69.5 21.5l-47 8q-43 11 -43 53q0 19 12.5 33.5t34.5 14.5h428q22 0 34.5 -14.5t12.5 -33.5q0 -42 -45 -53l-45 -8q-50 -6 -70 -22t-29 -46q-16 -72 -16 -163v-453q0 -124 -15 -221
t-52 -181.5t-96.5 -140t-153 -87t-217.5 -31.5zM963 1640q-47 0 -136 48.5t-133 48.5q-34 0 -59 -14.5t-49 -36.5t-43 -31q-22 -11 -40 2t-11 39q21 79 81 133.5t140 54.5q41 0 88.5 -24t93 -48t80.5 -24q29 0 51 11t34 25.5t29.5 33.5t34.5 30q23 10 40 -4.5t12 -40.5
q-15 -80 -73.5 -141.5t-139.5 -61.5z" />
    <glyph glyph-name="utilde" unicode="&#x169;" horiz-adv-x="1138" 
d="M473 -20q-149 0 -232 86.5t-83 271.5v326q0 73 -18 96.5t-83 34.5q-30 7 -41.5 17t-11.5 26q0 15 17 30.5t51 26.5q93 41 194 41q88 0 88 -80q0 -22 -4 -113t-4 -155v-230q0 -119 49 -180t135 -61q110 0 170 90t60 237v220q0 73 -18.5 96.5t-82.5 34.5q-30 7 -41.5 17
t-11.5 26q0 15 16.5 30.5t49.5 26.5q97 41 196 41q88 0 88 -80q0 -22 -4 -113t-4 -155v-340q0 -81 16.5 -114.5t55.5 -33.5q20 0 40 10.5t30 10.5q28 0 28 -33q0 -44 -50 -76t-114 -32q-63 0 -104.5 41t-56.5 124q-3 15 -13 15q-8 0 -18 -15q-114 -165 -289 -165zM645 1122
q-46 0 -120 47.5t-113 47.5q-32 0 -55.5 -15t-47 -37.5t-41.5 -31.5q-25 -6 -32 22q-12 20 4 57q81 144 190 144q42 0 113.5 -47t113.5 -47q33 0 56 15.5t46 41t46 37.5q26 3 29 -27q6 -5 8 -17.5t-2 -23.5q-29 -69 -78.5 -117.5t-116.5 -48.5z" />
    <glyph glyph-name="Umacron" unicode="&#x16a;" horiz-adv-x="1572" 
d="M793 -20q-149 0 -256 41t-170 121.5t-92 188.5t-29 251v512q0 86 -17 163q-9 30 -29 46t-71 22l-45 8q-43 10 -43 53q0 19 12 33.5t35 14.5h514q23 0 36 -14.5t13 -33.5q0 -42 -45 -53l-45 -8q-52 -6 -72 -22.5t-28 -49.5q-15 -84 -15 -159v-486q0 -261 96 -380t285 -119
q111 0 187.5 35t120 105t61.5 162.5t18 221.5v461q0 98 -18 166q-7 28 -26.5 43.5t-69.5 21.5l-47 8q-43 11 -43 53q0 19 12.5 33.5t34.5 14.5h428q22 0 34.5 -14.5t12.5 -33.5q0 -42 -45 -53l-45 -8q-50 -6 -70 -22t-29 -46q-16 -72 -16 -163v-453q0 -124 -15 -221
t-52 -181.5t-96.5 -140t-153 -87t-217.5 -31.5zM561 1706q-28 0 -43.5 17t-15.5 40t16 41.5t43 18.5h541q26 0 42.5 -19t16.5 -41q0 -23 -16 -40t-43 -17h-541z" />
    <glyph glyph-name="umacron" unicode="&#x16b;" horiz-adv-x="1138" 
d="M473 -20q-149 0 -232 86.5t-83 271.5v326q0 73 -18 96.5t-83 34.5q-30 7 -41.5 17t-11.5 26q0 15 17 30.5t51 26.5q93 41 194 41q88 0 88 -80q0 -22 -4 -113t-4 -155v-230q0 -119 49 -180t135 -61q110 0 170 90t60 237v220q0 73 -18.5 96.5t-82.5 34.5q-30 7 -41.5 17
t-11.5 26q0 15 16.5 30.5t49.5 26.5q97 41 196 41q88 0 88 -80q0 -22 -4 -113t-4 -155v-340q0 -81 16.5 -114.5t55.5 -33.5q20 0 40 10.5t30 10.5q28 0 28 -33q0 -44 -50 -76t-114 -32q-63 0 -104.5 41t-56.5 124q-3 15 -13 15q-8 0 -18 -15q-114 -165 -289 -165zM322 1194
q-28 0 -44 17t-16 40q0 22 16.5 40t43.5 18h430q26 0 42.5 -18t16.5 -40q0 -23 -16 -40t-43 -17h-430z" />
    <glyph glyph-name="Ubreve" unicode="&#x16c;" horiz-adv-x="1572" 
d="M793 -20q-149 0 -256 41t-170 121.5t-92 188.5t-29 251v512q0 86 -17 163q-9 30 -29 46t-71 22l-45 8q-43 10 -43 53q0 19 12 33.5t35 14.5h514q23 0 36 -14.5t13 -33.5q0 -42 -45 -53l-45 -8q-52 -6 -72 -22.5t-28 -49.5q-15 -84 -15 -159v-486q0 -261 96 -380t285 -119
q111 0 187.5 35t120 105t61.5 162.5t18 221.5v461q0 98 -18 166q-7 28 -26.5 43.5t-69.5 21.5l-47 8q-43 11 -43 53q0 19 12.5 33.5t34.5 14.5h428q22 0 34.5 -14.5t12.5 -33.5q0 -42 -45 -53l-45 -8q-50 -6 -70 -22t-29 -46q-16 -72 -16 -163v-453q0 -124 -15 -221
t-52 -181.5t-96.5 -140t-153 -87t-217.5 -31.5zM829 1597q-138 0 -218.5 76t-80.5 207q0 25 18.5 36.5t39.5 5.5t28 -24q17 -74 73 -116.5t140 -42.5q85 0 143 42t75 115q7 19 28 25t39.5 -5.5t18.5 -37.5q0 -129 -82 -205t-222 -76z" />
    <glyph glyph-name="ubreve" unicode="&#x16d;" horiz-adv-x="1138" 
d="M473 -20q-149 0 -232 86.5t-83 271.5v326q0 73 -18 96.5t-83 34.5q-30 7 -41.5 17t-11.5 26q0 15 17 30.5t51 26.5q93 41 194 41q88 0 88 -80q0 -22 -4 -113t-4 -155v-230q0 -119 49 -180t135 -61q110 0 170 90t60 237v220q0 73 -18.5 96.5t-82.5 34.5q-30 7 -41.5 17
t-11.5 26q0 15 16.5 30.5t49.5 26.5q97 41 196 41q88 0 88 -80q0 -22 -4 -113t-4 -155v-340q0 -81 16.5 -114.5t55.5 -33.5q20 0 40 10.5t30 10.5q28 0 28 -33q0 -44 -50 -76t-114 -32q-63 0 -104.5 41t-56.5 124q-3 15 -13 15q-8 0 -18 -15q-114 -165 -289 -165zM537 1092
q-126 0 -202.5 76.5t-76.5 191.5q0 25 17.5 37t37.5 6.5t27 -23.5q33 -159 197 -159q167 0 200 155q7 20 27 26t37.5 -6t17.5 -38q0 -115 -77 -190.5t-205 -75.5z" />
    <glyph glyph-name="Uring" unicode="&#x16e;" horiz-adv-x="1572" 
d="M793 -20q-149 0 -256 41t-170 121.5t-92 188.5t-29 251v512q0 86 -17 163q-9 30 -29 46t-71 22l-45 8q-43 10 -43 53q0 19 12 33.5t35 14.5h514q23 0 36 -14.5t13 -33.5q0 -42 -45 -53l-45 -8q-52 -6 -72 -22.5t-28 -49.5q-15 -84 -15 -159v-486q0 -261 96 -380t285 -119
q111 0 187.5 35t120 105t61.5 162.5t18 221.5v461q0 98 -18 166q-7 28 -26.5 43.5t-69.5 21.5l-47 8q-43 11 -43 53q0 19 12.5 33.5t34.5 14.5h428q22 0 34.5 -14.5t12.5 -33.5q0 -42 -45 -53l-45 -8q-50 -6 -70 -22t-29 -46q-16 -72 -16 -163v-453q0 -124 -15 -221
t-52 -181.5t-96.5 -140t-153 -87t-217.5 -31.5zM829 1577q-87 0 -146.5 53t-59.5 142q0 95 59.5 150.5t146.5 55.5q89 0 150 -54t61 -144q0 -94 -60.5 -148.5t-150.5 -54.5zM838 1655q34 0 57.5 29.5t22.5 82.5q0 60 -28 95.5t-67 35.5q-34 0 -57 -30.5t-23 -83.5
q0 -60 28 -94.5t67 -34.5z" />
    <glyph glyph-name="uring" unicode="&#x16f;" horiz-adv-x="1138" 
d="M473 -20q-149 0 -232 86.5t-83 271.5v326q0 73 -18 96.5t-83 34.5q-30 7 -41.5 17t-11.5 26q0 15 17 30.5t51 26.5q93 41 194 41q88 0 88 -80q0 -22 -4 -113t-4 -155v-230q0 -119 49 -180t135 -61q110 0 170 90t60 237v220q0 73 -18.5 96.5t-82.5 34.5q-30 7 -41.5 17
t-11.5 26q0 15 16.5 30.5t49.5 26.5q97 41 196 41q88 0 88 -80q0 -22 -4 -113t-4 -155v-340q0 -81 16.5 -114.5t55.5 -33.5q20 0 40 10.5t30 10.5q28 0 28 -33q0 -44 -50 -76t-114 -32q-63 0 -104.5 41t-56.5 124q-3 15 -13 15q-8 0 -18 -15q-114 -165 -289 -165zM532 1069
q-86 0 -146 54t-60 143q0 93 59.5 148.5t146.5 55.5q90 0 150.5 -53.5t60.5 -144.5q0 -92 -61 -147.5t-150 -55.5zM541 1145q37 0 60.5 29.5t23.5 85.5q-1 64 -29.5 99.5t-69.5 35.5q-37 0 -60 -30t-22 -87q0 -64 28 -98.5t69 -34.5z" />
    <glyph glyph-name="Uhungarumlaut" unicode="&#x170;" horiz-adv-x="1572" 
d="M793 -20q-149 0 -256 41t-170 121.5t-92 188.5t-29 251v512q0 86 -17 163q-9 30 -29 46t-71 22l-45 8q-43 10 -43 53q0 19 12 33.5t35 14.5h514q23 0 36 -14.5t13 -33.5q0 -42 -45 -53l-45 -8q-52 -6 -72 -22.5t-28 -49.5q-15 -84 -15 -159v-486q0 -261 96 -380t285 -119
q111 0 187.5 35t120 105t61.5 162.5t18 221.5v461q0 98 -18 166q-7 28 -26.5 43.5t-69.5 21.5l-47 8q-43 11 -43 53q0 19 12.5 33.5t34.5 14.5h428q22 0 34.5 -14.5t12.5 -33.5q0 -42 -45 -53l-45 -8q-50 -6 -70 -22t-29 -46q-16 -72 -16 -163v-453q0 -124 -15 -221
t-52 -181.5t-96.5 -140t-153 -87t-217.5 -31.5zM766 1604q-29 -26 -61 -15q-33 -6 -52 11.5t0 46.5q115 177 207 288q43 49 92 39q26 6 54 -8q32 -12 38 -39.5t-14 -50.5q-59 -70 -135.5 -148.5t-128.5 -123.5z" />
    <glyph glyph-name="uhungarumlaut" unicode="&#x171;" horiz-adv-x="1138" 
d="M473 -20q-149 0 -232 86.5t-83 271.5v326q0 73 -18 96.5t-83 34.5q-30 7 -41.5 17t-11.5 26q0 15 17 30.5t51 26.5q93 41 194 41q88 0 88 -80q0 -22 -4 -113t-4 -155v-230q0 -119 49 -180t135 -61q110 0 170 90t60 237v220q0 73 -18.5 96.5t-82.5 34.5q-30 7 -41.5 17
t-11.5 26q0 15 16.5 30.5t49.5 26.5q97 41 196 41q88 0 88 -80q0 -22 -4 -113t-4 -155v-340q0 -81 16.5 -114.5t55.5 -33.5q20 0 40 10.5t30 10.5q28 0 28 -33q0 -44 -50 -76t-114 -32q-63 0 -104.5 41t-56.5 124q-3 15 -13 15q-8 0 -18 -15q-114 -165 -289 -165zM530 1067
q-10 6 -12 20t6 29q65 97 234 291q23 28 56.5 32.5t53.5 -12.5q21 -13 24.5 -36t-11.5 -43q-28 -33 -72.5 -77.5t-71 -69.5t-81.5 -75l-56 -49q-16 -13 -38.5 -15t-31.5 5zM254 1067q-22 18 -6 49q127 204 194 291q22 28 54.5 33t54.5 -10q22 -14 26.5 -36t-12.5 -46
q-173 -208 -243 -271q-16 -13 -37.5 -15t-30.5 5z" />
    <glyph glyph-name="Uogonek" unicode="&#x172;" horiz-adv-x="1572" 
d="M246 1094q0 86 -17 163q-9 30 -29 46t-71 22l-45 8q-43 10 -43 53q0 19 12 33.5t35 14.5h514q23 0 36 -14.5t13 -33.5q0 -42 -45 -53l-45 -8q-52 -6 -72 -22.5t-28 -49.5q-15 -84 -15 -159v-486q0 -261 96 -380t285 -119q112 0 188.5 35t120.5 105t62.5 162.5t18.5 221.5
v461q0 80 -19 166q-7 28 -27.5 43.5t-70.5 21.5l-45 8q-43 10 -43 53q0 19 12 33.5t35 14.5h426q22 0 34.5 -14.5t12.5 -33.5q0 -42 -45 -53l-45 -8q-50 -6 -70 -22t-29 -46q-16 -72 -16 -163v-453q0 -252 -71 -405t-242 -222q-65 -27 -131 -92.5t-66 -124.5q0 -38 21.5 -61
t58.5 -23q55 0 115 43q19 11 35 8q13 0 21.5 -8t8.5 -22q0 -13 -10 -33q-28 -48 -88.5 -76t-124.5 -28q-81 0 -126.5 40t-45.5 105q0 111 129 217q7 7 4 14t-14 7q-152 2 -260 44t-172.5 122t-93.5 187t-29 249v512z" />
    <glyph glyph-name="uogonek" unicode="&#x173;" horiz-adv-x="1140" 
d="M473 -20q-149 0 -232 86.5t-83 271.5v326q0 73 -18 96.5t-83 34.5q-30 7 -41.5 17t-11.5 26q0 15 17 30.5t51 26.5q93 41 194 41q88 0 88 -80q0 -22 -4 -113t-4 -155v-230q0 -119 49 -180t135 -61q110 0 170 90t60 237v220q0 73 -18.5 96.5t-82.5 34.5q-30 7 -41.5 17
t-11.5 26q0 15 16.5 30.5t49.5 26.5q97 41 196 41q88 0 88 -80q0 -22 -4 -113t-4 -155v-340q0 -81 16.5 -114.5t55.5 -33.5q20 0 40 10.5t30 10.5q28 0 28 -33q0 -43 -65 -86q-43 -28 -62.5 -42t-55.5 -44t-52.5 -58.5t-16.5 -58.5q0 -38 22.5 -62t59.5 -24q51 0 115 43
q15 11 35 11q14 -2 22 -11t8 -22q0 -16 -8 -29q-28 -50 -88.5 -79t-124.5 -29q-82 0 -130 40t-48 107q0 38 12 71t36.5 62.5t42.5 46.5t49 43q8 7 12 10q7 5 6.5 10.5t-8.5 8.5q-70 29 -86 149q-3 15 -13 15q-8 0 -18 -15q-114 -165 -289 -165z" />
    </font>
</defs>
</svg>
